<svg width="331" height="132" viewBox="0 0 331 132" fill="none" xmlns="http://www.w3.org/2000/svg">
<path d="M293.413 30.666C293.89 30.834 294.354 30.9975 294.79 31.1645C296.043 31.6395 297.415 32.0345 298.815 32.2105C296.332 31.9155 291.536 32.973 289.193 33.6315C284.683 34.905 279.085 40.6085 283.224 45.2245C286.487 48.8855 293.888 44.0045 295.772 41.086C296.069 40.6185 296.418 40.151 296.777 39.67C298.325 37.5925 298.929 35.32 299.777 32.9375C299.473 36.5545 299.366 43.126 301.422 46.0735C303.81 49.4955 310.76 50.265 312.989 46.153C315.323 41.8555 310.203 36.019 306.489 34.666C306.13 34.543 305.769 34.4247 305.406 34.311C303.686 33.7595 301.693 33.089 301.156 32.594C302.496 32.6145 304.727 32.0415 306 31.594C309.951 30.204 314 28.0805 315.297 24.214C315.827 22.675 316.04 21.0835 314.872 19.757C313.758 18.457 311.53 18.643 309.991 18.908C305.932 19.6245 301.953 23.338 300.732 27.2115C300.597 27.6475 300.374 29.1095 300.196 30.282C300.045 31.2705 299.926 32.0535 299.916 31.8435C299.916 31.4205 299.948 30.991 299.98 30.561C300.056 29.5365 300.133 28.5095 299.777 27.556C299.424 26.6295 298.925 25.831 298.4 24.9935C298.294 24.824 298.187 24.6535 298.08 24.479C297.943 24.257 297.798 24.014 297.645 23.7565C296.038 21.0595 293.491 16.785 289.882 18.7225C286.831 20.3675 285.293 25.3545 288.078 27.981C289.453 29.271 291.536 30.0045 293.413 30.666Z" fill="#F5AC5F"/>
<path d="M299.474 32.814C298.159 38.439 296.804 44.015 295.955 49.7505C295.843 50.5035 295.442 54.9035 295.509 54.7625" stroke="#232F61" stroke-width="0.612512" stroke-miterlimit="2.854" stroke-linecap="round" stroke-linejoin="round"/>
<path d="M45.568 112.872C31.4027 112.787 20.7787 109.288 13.696 102.376C6.69867 95.464 3.2 84.2427 3.2 68.712C3.2 54.632 6.61333 43.5813 13.44 35.56C20.2667 27.4533 29.9093 23.4 42.368 23.4C50.048 23.4 56.7467 24.552 62.464 26.856C68.1813 29.16 72.576 32.4453 75.648 36.712C78.72 40.9787 80.256 46.0133 80.256 51.816C80.256 56.424 79.232 60.52 77.184 64.104C75.2213 67.688 72.2773 70.888 68.352 73.704C71.5093 74.216 74.24 75.9227 76.544 78.824C78.9333 81.7253 80.128 85.096 80.128 88.936C80.128 93.032 79.0187 96.9147 76.8 100.584C74.6667 104.168 70.9973 107.112 65.792 109.416C60.672 111.72 53.9307 112.872 45.568 112.872ZM36.736 65.128C38.272 65.896 40.192 66.28 42.496 66.28C45.2267 66.28 47.5733 65.64 49.536 64.36C51.584 62.9947 52.608 60.9893 52.608 58.344C52.608 55.784 51.584 53.864 49.536 52.584C47.5733 51.2187 45.184 50.536 42.368 50.536C40.1493 50.536 38.272 50.92 36.736 51.688C35.5413 52.2 34.6453 53.096 34.048 54.376C33.4507 55.656 33.152 57.0213 33.152 58.472C33.152 59.9227 33.4507 61.288 34.048 62.568C34.6453 63.7627 35.5413 64.616 36.736 65.128ZM36.736 95.08C38.3573 95.7627 40.2773 96.104 42.496 96.104C45.2267 96.104 47.5733 95.5493 49.536 94.44C51.584 93.2453 52.608 91.496 52.608 89.192C52.608 86.9733 51.584 85.2667 49.536 84.072C47.488 82.8773 45.0987 82.28 42.368 82.28C40.2347 82.28 38.3573 82.6213 36.736 83.304C35.5413 83.816 34.6453 84.6267 34.048 85.736C33.4507 86.76 33.152 87.912 33.152 89.192C33.152 90.472 33.4507 91.6667 34.048 92.776C34.6453 93.8 35.5413 94.568 36.736 95.08ZM101.676 112.744C97.4093 112.744 94.2093 111.165 92.076 108.008C89.9427 104.851 88.492 100.2 87.724 94.056C87.0413 87.8267 86.7 79.1653 86.7 68.072C86.7 57.4053 86.956 49.0853 87.468 43.112C88.0653 37.1387 89.4307 32.36 91.564 28.776C93.7827 25.192 97.196 23.4 101.804 23.4C106.412 23.4 109.783 25.192 111.916 28.776C114.135 32.36 115.5 37.1387 116.012 43.112C116.609 49.0853 116.908 57.4053 116.908 68.072C116.908 78.568 116.439 87.0587 115.5 93.544C114.647 99.944 113.111 104.765 110.892 108.008C108.673 111.165 105.601 112.744 101.676 112.744ZM152.825 113.128C146.681 113.213 141.177 111.933 136.313 109.288C131.534 106.643 127.78 103.016 125.049 98.408C122.404 93.7147 120.996 88.5093 120.825 82.792C120.74 77.0747 122.062 71.9547 124.793 67.432C127.524 62.9093 131.321 59.3253 136.185 56.68C141.134 54.0347 146.681 52.712 152.825 52.712C158.798 52.712 164.174 53.992 168.953 56.552C173.817 59.112 177.657 62.696 180.473 67.304C183.289 71.912 184.782 77.0747 184.953 82.792C185.038 88.3387 183.716 93.416 180.985 98.024C178.254 102.547 174.414 106.173 169.465 108.904C164.601 111.635 159.054 113.043 152.825 113.128ZM153.209 94.44C155.513 94.44 157.518 93.544 159.225 91.752C160.932 89.96 161.785 87.8693 161.785 85.48C161.785 83.0907 160.932 81.0427 159.225 79.336C157.518 77.544 155.513 76.648 153.209 76.648C150.905 76.648 148.9 77.544 147.193 79.336C145.486 81.0427 144.633 83.0907 144.633 85.48C144.633 87.8693 145.486 89.96 147.193 91.752C148.9 93.544 150.905 94.44 153.209 94.44ZM220.825 113.128C214.681 113.213 209.177 111.933 204.313 109.288C199.534 106.643 195.78 103.016 193.049 98.408C190.404 93.7147 188.996 88.5093 188.825 82.792C188.74 77.0747 190.062 71.9547 192.793 67.432C195.524 62.9093 199.321 59.3253 204.185 56.68C209.134 54.0347 214.681 52.712 220.825 52.712C226.798 52.712 232.174 53.992 236.953 56.552C241.817 59.112 245.657 62.696 248.473 67.304C251.289 71.912 252.782 77.0747 252.953 82.792C253.038 88.3387 251.716 93.416 248.985 98.024C246.254 102.547 242.414 106.173 237.465 108.904C232.601 111.635 227.054 113.043 220.825 113.128ZM221.209 94.44C223.513 94.44 225.518 93.544 227.225 91.752C228.932 89.96 229.785 87.8693 229.785 85.48C229.785 83.0907 228.932 81.0427 227.225 79.336C225.518 77.544 223.513 76.648 221.209 76.648C218.905 76.648 216.9 77.544 215.193 79.336C213.486 81.0427 212.633 83.0907 212.633 85.48C212.633 87.8693 213.486 89.96 215.193 91.752C216.9 93.544 218.905 94.44 221.209 94.44ZM269.881 131.304C265.7 131.304 262.67 129.171 260.793 124.904C258.916 120.723 257.764 115.944 257.337 110.568C256.996 105.192 256.825 98.1093 256.825 89.32C256.825 82.5787 257.081 76.648 257.593 71.528C258.19 66.408 259.513 61.9707 261.561 58.216C263.609 54.4613 266.724 52.584 270.905 52.584C275.257 52.584 278.414 54.2907 280.377 57.704C282.34 56.2533 284.772 55.1013 287.673 54.248C290.66 53.3093 293.774 52.84 297.017 52.84C302.478 52.84 307.513 54.2053 312.121 56.936C316.729 59.6667 320.398 63.336 323.129 67.944C325.86 72.552 327.225 77.5867 327.225 83.048C327.225 88.5093 325.86 93.5867 323.129 98.28C320.398 102.888 316.729 106.557 312.121 109.288C307.513 112.019 302.478 113.384 297.017 113.384C293.689 113.384 290.574 112.957 287.673 112.104C284.772 111.165 282.297 109.928 280.249 108.392C280.249 113.853 280.078 118.077 279.737 121.064C279.396 124.051 278.457 126.483 276.921 128.36C275.47 130.323 273.124 131.304 269.881 131.304ZM296.377 92.136C298.596 92.136 300.516 91.3253 302.137 89.704C303.844 87.9973 304.697 86.0347 304.697 83.816C304.697 81.5973 303.844 79.6773 302.137 78.056C300.516 76.3493 298.596 75.496 296.377 75.496C294.158 75.496 292.196 76.3493 290.489 78.056C288.868 79.6773 288.057 81.5973 288.057 83.816C288.057 86.0347 288.868 87.9973 290.489 89.704C292.196 91.3253 294.158 92.136 296.377 92.136Z" fill="#232F61"/>
</svg>
