<svg width="199" height="79" viewBox="0 0 199 79" fill="none" xmlns="http://www.w3.org/2000/svg">
<path d="M176.048 18.3995C176.334 18.5003 176.613 18.5984 176.874 18.6986C177.626 18.9836 178.449 19.2206 179.289 19.3262C177.799 19.1492 174.922 19.7837 173.516 20.1788C170.81 20.9429 167.451 24.365 169.934 27.1346C171.892 29.3312 176.333 26.4026 177.463 24.6515C177.642 24.371 177.851 24.0905 178.066 23.8019C178.995 22.5554 179.358 21.1919 179.866 19.7624C179.684 21.9326 179.62 25.8755 180.853 27.644C182.286 29.6972 186.456 30.1589 187.793 27.6917C189.194 25.1132 186.122 21.6113 183.893 20.7995C183.678 20.7257 183.461 20.6547 183.244 20.5865C182.212 20.2556 181.016 19.8533 180.694 19.5563C181.498 19.5686 182.836 19.2248 183.6 18.9563C185.971 18.1223 188.4 16.8482 189.178 14.5283C189.496 13.6049 189.624 12.65 188.923 11.8541C188.255 11.0741 186.918 11.1857 185.995 11.3447C183.559 11.7746 181.172 14.0027 180.439 16.3268C180.358 16.5884 180.225 17.4656 180.118 18.1691C180.027 18.7622 179.956 19.232 179.95 19.106C179.95 18.8522 179.969 18.5945 179.988 18.3365C180.034 17.7218 180.08 17.1056 179.866 16.5335C179.655 15.9776 179.355 15.4985 179.04 14.996C178.976 14.8943 178.912 14.792 178.848 14.6873C178.766 14.5541 178.679 14.4083 178.587 14.2538C177.623 12.6356 176.095 10.0709 173.929 11.2334C172.099 12.2204 171.176 15.2126 172.847 16.7885C173.672 17.5625 174.922 18.0026 176.048 18.3995Z" fill="#F5AC5F"/>
<path d="M179.684 19.6882C178.895 23.0632 178.082 26.4088 177.573 29.8501C177.506 30.3019 177.265 32.9419 177.305 32.8573" stroke="#F7F4E9" stroke-width="0.367507" stroke-miterlimit="2.854" stroke-linecap="round" stroke-linejoin="round"/>
<path d="M27.3408 67.9232C18.8416 67.872 12.4672 65.7728 8.2176 61.6256C4.0192 57.4784 1.92 50.7456 1.92 41.4272C1.92 32.9792 3.968 26.3488 8.064 21.536C12.16 16.672 17.9456 14.24 25.4208 14.24C30.0288 14.24 34.048 14.9312 37.4784 16.3136C40.9088 17.696 43.5456 19.6672 45.3888 22.2272C47.232 24.7872 48.1536 27.808 48.1536 31.2896C48.1536 34.0544 47.5392 36.512 46.3104 38.6624C45.1328 40.8128 43.3664 42.7328 41.0112 44.4224C42.9056 44.7296 44.544 45.7536 45.9264 47.4944C47.36 49.2352 48.0768 51.2576 48.0768 53.5616C48.0768 56.0192 47.4112 58.3488 46.08 60.5504C44.8 62.7008 42.5984 64.4672 39.4752 65.8496C36.4032 67.232 32.3584 67.9232 27.3408 67.9232ZM22.0416 39.2768C22.9632 39.7376 24.1152 39.968 25.4976 39.968C27.136 39.968 28.544 39.584 29.7216 38.816C30.9504 37.9968 31.5648 36.7936 31.5648 35.2064C31.5648 33.6704 30.9504 32.5184 29.7216 31.7504C28.544 30.9312 27.1104 30.5216 25.4208 30.5216C24.0896 30.5216 22.9632 30.752 22.0416 31.2128C21.3248 31.52 20.7872 32.0576 20.4288 32.8256C20.0704 33.5936 19.8912 34.4128 19.8912 35.2832C19.8912 36.1536 20.0704 36.9728 20.4288 37.7408C20.7872 38.4576 21.3248 38.9696 22.0416 39.2768ZM22.0416 57.248C23.0144 57.6576 24.1664 57.8624 25.4976 57.8624C27.136 57.8624 28.544 57.5296 29.7216 56.864C30.9504 56.1472 31.5648 55.0976 31.5648 53.7152C31.5648 52.384 30.9504 51.36 29.7216 50.6432C28.4928 49.9264 27.0592 49.568 25.4208 49.568C24.1408 49.568 23.0144 49.7728 22.0416 50.1824C21.3248 50.4896 20.7872 50.976 20.4288 51.6416C20.0704 52.256 19.8912 52.9472 19.8912 53.7152C19.8912 54.4832 20.0704 55.2 20.4288 55.8656C20.7872 56.48 21.3248 56.9408 22.0416 57.248ZM61.0056 67.8464C58.4456 67.8464 56.5256 66.8992 55.2456 65.0048C53.9656 63.1104 53.0952 60.32 52.6344 56.6336C52.2248 52.896 52.02 47.6992 52.02 41.0432C52.02 34.6432 52.1736 29.6512 52.4808 26.0672C52.8392 22.4832 53.6584 19.616 54.9384 17.4656C56.2696 15.3152 58.3176 14.24 61.0824 14.24C63.8472 14.24 65.8696 15.3152 67.1496 17.4656C68.4808 19.616 69.3 22.4832 69.6072 26.0672C69.9656 29.6512 70.1448 34.6432 70.1448 41.0432C70.1448 47.3408 69.8632 52.4352 69.3 56.3264C68.788 60.1664 67.8664 63.0592 66.5352 65.0048C65.204 66.8992 63.3608 67.8464 61.0056 67.8464ZM91.695 68.0768C88.0086 68.128 84.7062 67.36 81.7878 65.7728C78.9206 64.1856 76.6678 62.0096 75.0294 59.2448C73.4422 56.4288 72.5974 53.3056 72.495 49.8752C72.4438 46.4448 73.2374 43.3728 74.8758 40.6592C76.5142 37.9456 78.7926 35.7952 81.711 34.208C84.6806 32.6208 88.0086 31.8272 91.695 31.8272C95.279 31.8272 98.5046 32.5952 101.372 34.1312C104.29 35.6672 106.594 37.8176 108.284 40.5824C109.973 43.3472 110.869 46.4448 110.972 49.8752C111.023 53.2032 110.229 56.2496 108.591 59.0144C106.953 61.728 104.649 63.904 101.679 65.5424C98.7606 67.1808 95.4326 68.0256 91.695 68.0768ZM91.9254 56.864C93.3078 56.864 94.511 56.3264 95.535 55.2512C96.559 54.176 97.071 52.9216 97.071 51.488C97.071 50.0544 96.559 48.8256 95.535 47.8016C94.511 46.7264 93.3078 46.1888 91.9254 46.1888C90.543 46.1888 89.3398 46.7264 88.3158 47.8016C87.2918 48.8256 86.7798 50.0544 86.7798 51.488C86.7798 52.9216 87.2918 54.176 88.3158 55.2512C89.3398 56.3264 90.543 56.864 91.9254 56.864ZM132.495 68.0768C128.809 68.128 125.506 67.36 122.588 65.7728C119.721 64.1856 117.468 62.0096 115.829 59.2448C114.242 56.4288 113.397 53.3056 113.295 49.8752C113.244 46.4448 114.037 43.3728 115.676 40.6592C117.314 37.9456 119.593 35.7952 122.511 34.208C125.481 32.6208 128.809 31.8272 132.495 31.8272C136.079 31.8272 139.305 32.5952 142.172 34.1312C145.09 35.6672 147.394 37.8176 149.084 40.5824C150.773 43.3472 151.669 46.4448 151.772 49.8752C151.823 53.2032 151.029 56.2496 149.391 59.0144C147.753 61.728 145.449 63.904 142.479 65.5424C139.561 67.1808 136.233 68.0256 132.495 68.0768ZM132.725 56.864C134.108 56.864 135.311 56.3264 136.335 55.2512C137.359 54.176 137.871 52.9216 137.871 51.488C137.871 50.0544 137.359 48.8256 136.335 47.8016C135.311 46.7264 134.108 46.1888 132.725 46.1888C131.343 46.1888 130.14 46.7264 129.116 47.8016C128.092 48.8256 127.58 50.0544 127.58 51.488C127.58 52.9216 128.092 54.176 129.116 55.2512C130.14 56.3264 131.343 56.864 132.725 56.864ZM161.929 78.9824C159.42 78.9824 157.602 77.7024 156.476 75.1424C155.349 72.6336 154.658 69.7664 154.402 66.5408C154.197 63.3152 154.095 59.0656 154.095 53.792C154.095 49.7472 154.249 46.1888 154.556 43.1168C154.914 40.0448 155.708 37.3824 156.937 35.1296C158.165 32.8768 160.034 31.7504 162.543 31.7504C165.154 31.7504 167.049 32.7744 168.226 34.8224C169.404 33.952 170.863 33.2608 172.604 32.7488C174.396 32.1856 176.265 31.904 178.21 31.904C181.487 31.904 184.508 32.7232 187.273 34.3616C190.037 36 192.239 38.2016 193.877 40.9664C195.516 43.7312 196.335 46.752 196.335 50.0288C196.335 53.3056 195.516 56.352 193.877 59.168C192.239 61.9328 190.037 64.1344 187.273 65.7728C184.508 67.4112 181.487 68.2304 178.21 68.2304C176.213 68.2304 174.345 67.9744 172.604 67.4624C170.863 66.8992 169.378 66.1568 168.149 65.2352C168.149 68.512 168.047 71.0464 167.842 72.8384C167.637 74.6304 167.074 76.0896 166.153 77.216C165.282 78.3936 163.874 78.9824 161.929 78.9824ZM177.826 55.4816C179.157 55.4816 180.309 54.9952 181.282 54.0224C182.306 52.9984 182.818 51.8208 182.818 50.4896C182.818 49.1584 182.306 48.0064 181.282 47.0336C180.309 46.0096 179.157 45.4976 177.826 45.4976C176.495 45.4976 175.317 46.0096 174.293 47.0336C173.321 48.0064 172.834 49.1584 172.834 50.4896C172.834 51.8208 173.321 52.9984 174.293 54.0224C175.317 54.9952 176.495 55.4816 177.826 55.4816Z" fill="#F7F4E9"/>
</svg>
