<svg width="161" height="28" viewBox="0 0 161 28" fill="none" xmlns="http://www.w3.org/2000/svg">
<path d="M11.901 22.936C9.81033 22.936 7.933 22.52 6.269 21.688C4.62633 20.8347 3.325 19.576 2.365 17.912C1.405 16.2267 0.925 14.168 0.925 11.736C0.925 9.77333 1.373 7.93867 2.269 6.232C3.165 4.52533 4.40233 3.16 5.981 2.136C7.55967 1.112 9.33033 0.599998 11.293 0.599998C13.149 0.599998 14.8023 0.951998 16.253 1.656C17.7037 2.33867 18.8237 3.27733 19.613 4.472C20.4237 5.66667 20.829 7 20.829 8.472C20.829 9.41067 20.5517 10.2213 19.997 10.904C19.4637 11.5867 18.6957 11.928 17.693 11.928C16.9463 11.928 16.3703 11.8 15.965 11.544C15.5597 11.288 15.133 10.8933 14.685 10.36C14.237 9.82667 13.7997 9.432 13.373 9.176C12.9677 8.89867 12.3703 8.76 11.581 8.76C10.5783 8.76 9.71433 9.144 8.989 9.912C8.285 10.6587 7.933 11.576 7.933 12.664C7.933 13.8373 8.23167 14.8293 8.829 15.64C9.44767 16.4293 10.2797 16.824 11.325 16.824C12.1357 16.824 12.7757 16.7067 13.245 16.472C13.7357 16.2373 14.2477 15.896 14.781 15.448C15.229 15.064 15.6343 14.776 15.997 14.584C16.381 14.392 16.8503 14.296 17.405 14.296C18.2583 14.296 18.9303 14.5627 19.421 15.096C19.9117 15.608 20.157 16.28 20.157 17.112C20.157 18.0933 19.7943 19.032 19.069 19.928C18.365 20.824 17.3837 21.5493 16.125 22.104C14.8663 22.6587 13.4583 22.936 11.901 22.936ZM25.849 23C24.4837 23 23.5663 22.2 23.097 20.6C22.649 19 22.425 16.792 22.425 13.976C22.425 12.696 22.4783 11.6293 22.585 10.776C22.713 9.90133 23.001 9.16533 23.449 8.568C23.9183 7.94933 24.633 7.64 25.593 7.64C26.1903 7.64 26.713 7.77867 27.161 8.056C27.6303 8.33333 27.929 8.728 28.057 9.24C28.5263 8.81333 29.1343 8.49333 29.881 8.28C30.6277 8.06667 31.4277 7.96 32.281 7.96C32.9637 7.96 33.657 8.13067 34.361 8.472C35.0863 8.81333 35.6837 9.28267 36.153 9.88C36.6437 10.456 36.889 11.0853 36.889 11.768C36.889 12.4507 36.6437 13.0587 36.153 13.592C35.6837 14.104 35.0543 14.36 34.265 14.36C34.009 14.36 33.7637 14.328 33.529 14.264C33.3157 14.2 33.1237 14.136 32.953 14.072C32.5263 13.9013 32.185 13.816 31.929 13.816C31.097 13.816 30.361 14.1467 29.721 14.808C29.1023 15.448 28.793 16.28 28.793 17.304C28.793 18.4347 28.7503 19.3733 28.665 20.12C28.5797 20.8667 28.3237 21.5387 27.897 22.136C27.4703 22.712 26.7877 23 25.849 23ZM44.9258 23C43.3471 23 41.9498 22.6907 40.7338 22.072C39.5178 21.4533 38.5684 20.5893 37.8858 19.48C37.2244 18.3493 36.8938 17.08 36.8938 15.672C36.8938 14.2853 37.2244 13.0053 37.8858 11.832C38.5684 10.6587 39.5071 9.72 40.7018 9.016C41.8964 8.312 43.2511 7.96 44.7658 7.96C46.1311 7.96 47.3364 8.23733 48.3818 8.792C49.4271 9.34667 50.2271 10.0827 50.7818 11C51.3364 11.896 51.6138 12.8347 51.6138 13.816C51.6138 15.416 51.0058 16.5893 49.7898 17.336C48.5951 18.0613 47.1658 18.424 45.5017 18.424C44.3924 18.424 43.4538 18.2853 42.6858 18.008C43.3258 19.0533 44.3818 19.576 45.8538 19.576C46.4511 19.576 47.0911 19.5013 47.7738 19.352C48.0298 19.288 48.2751 19.256 48.5098 19.256C48.9791 19.256 49.3524 19.3733 49.6298 19.608C49.9284 19.8427 50.0778 20.1627 50.0778 20.568C50.0778 21.2293 49.6724 21.8053 48.8618 22.296C48.0511 22.7653 46.7391 23 44.9258 23ZM42.7818 14.104C42.9738 14.4027 43.2298 14.6267 43.5498 14.776C43.8911 14.904 44.2644 14.968 44.6698 14.968C45.1391 14.968 45.5444 14.8613 45.8858 14.648C46.2484 14.4347 46.4298 14.1573 46.4298 13.816C46.4298 13.432 46.2698 13.1013 45.9498 12.824C45.6511 12.5467 45.2138 12.408 44.6378 12.408C44.0618 12.408 43.6031 12.5893 43.2618 12.952C42.9418 13.2933 42.7818 13.6773 42.7818 14.104ZM58.3413 23C56.6773 23 55.3119 22.6267 54.2453 21.88C53.1786 21.112 52.6453 20.0133 52.6453 18.584C52.6453 17.3467 53.1893 16.3653 54.2773 15.64C55.3653 14.9147 56.7199 14.552 58.3413 14.552C58.9386 14.552 59.4933 14.6053 60.0052 14.712C60.5386 14.7973 60.9013 14.904 61.0933 15.032C61.0933 14.4987 60.8693 14.0613 60.4213 13.72C59.9733 13.3573 59.2906 13.176 58.3733 13.176C57.9679 13.176 57.6373 13.208 57.3813 13.272C57.1253 13.336 56.8479 13.432 56.5493 13.56C56.2506 13.688 55.9733 13.784 55.7173 13.848C55.4826 13.912 55.1626 13.944 54.7573 13.944C54.0746 13.944 53.5413 13.7733 53.1573 13.432C52.7733 13.0693 52.5813 12.5253 52.5813 11.8C52.5813 10.968 52.8799 10.264 53.4773 9.688C54.0959 9.112 54.8639 8.68533 55.7812 8.408C56.6986 8.10933 57.6159 7.96 58.5333 7.96C60.3466 7.96 61.8613 8.30133 63.0773 8.984C64.3146 9.64533 65.2213 10.5307 65.7973 11.64C66.3946 12.7493 66.6933 13.976 66.6933 15.32C66.6933 16.0453 66.6293 16.7173 66.5013 17.336C66.3946 17.9547 66.2453 18.4347 66.0533 18.776C66.3519 19.032 66.5759 19.3307 66.7253 19.672C66.8959 20.0133 66.9813 20.3653 66.9813 20.728C66.9813 21.3467 66.7679 21.88 66.3413 22.328C65.9359 22.776 65.3919 23 64.7093 23C64.1973 23 63.7813 22.9253 63.4613 22.776C63.1413 22.6267 62.7999 22.392 62.4373 22.072C61.9039 22.392 61.3173 22.6267 60.6773 22.776C60.0586 22.9253 59.2799 23 58.3413 23ZM58.9813 19.768C59.4293 19.768 59.7813 19.672 60.0373 19.48C60.3146 19.288 60.4533 19.0533 60.4533 18.776C60.4533 18.4987 60.3146 18.264 60.0373 18.072C59.7813 17.88 59.4293 17.784 58.9813 17.784C58.5333 17.784 58.1706 17.88 57.8933 18.072C57.6373 18.264 57.5093 18.4987 57.5093 18.776C57.5093 19.0533 57.6373 19.288 57.8933 19.48C58.1706 19.672 58.5333 19.768 58.9813 19.768ZM82.916 9.144C82.916 10.2533 82.3933 11.0107 81.348 11.416C80.3027 11.8 78.8733 12.0027 77.06 12.024C77.0387 12.5573 77.028 13.4213 77.028 14.616C77.028 15.832 77.1133 16.696 77.284 17.208C77.3907 17.5707 77.5507 17.8053 77.764 17.912C77.9987 18.0187 78.34 18.0933 78.788 18.136C78.9373 18.1573 79.0973 18.1893 79.268 18.232C79.46 18.2533 79.6733 18.2853 79.908 18.328C80.3987 18.4347 80.7827 18.7013 81.06 19.128C81.3373 19.5333 81.476 20.056 81.476 20.696C81.476 21.4213 81.1027 21.9867 80.356 22.392C79.6093 22.7973 78.5853 23 77.284 23C76.0893 23 74.948 22.6587 73.86 21.976C72.772 21.272 72.0253 20.3333 71.62 19.16C71.1933 17.9013 70.98 15.5227 70.98 12.024C69.4867 11.9813 68.2813 11.7893 67.364 11.448C66.468 11.0853 66.02 10.4453 66.02 9.528C66.02 8.376 66.4467 7.608 67.3 7.224C68.1533 6.81867 69.38 6.60533 70.98 6.584C71.044 4.87733 71.3107 3.45867 71.78 2.328C72.2493 1.176 73.092 0.599998 74.308 0.599998C75.5453 0.599998 76.3453 1.13333 76.708 2.2C77.092 3.26667 77.2627 4.728 77.22 6.584C79.1613 6.56267 80.5907 6.712 81.508 7.032C82.4467 7.352 82.916 8.056 82.916 9.144ZM90.957 23C89.3783 23 87.981 22.6907 86.765 22.072C85.549 21.4533 84.5997 20.5893 83.917 19.48C83.2557 18.3493 82.925 17.08 82.925 15.672C82.925 14.2853 83.2557 13.0053 83.917 11.832C84.5997 10.6587 85.5383 9.72 86.733 9.016C87.9277 8.312 89.2823 7.96 90.797 7.96C92.1623 7.96 93.3677 8.23733 94.413 8.792C95.4583 9.34667 96.2583 10.0827 96.813 11C97.3677 11.896 97.645 12.8347 97.645 13.816C97.645 15.416 97.037 16.5893 95.821 17.336C94.6263 18.0613 93.197 18.424 91.533 18.424C90.4237 18.424 89.485 18.2853 88.717 18.008C89.357 19.0533 90.413 19.576 91.885 19.576C92.4823 19.576 93.1223 19.5013 93.805 19.352C94.061 19.288 94.3063 19.256 94.541 19.256C95.0103 19.256 95.3837 19.3733 95.661 19.608C95.9597 19.8427 96.109 20.1627 96.109 20.568C96.109 21.2293 95.7037 21.8053 94.893 22.296C94.0823 22.7653 92.7703 23 90.957 23ZM88.813 14.104C89.005 14.4027 89.261 14.6267 89.581 14.776C89.9223 14.904 90.2957 14.968 90.701 14.968C91.1703 14.968 91.5757 14.8613 91.917 14.648C92.2797 14.4347 92.461 14.1573 92.461 13.816C92.461 13.432 92.301 13.1013 91.981 12.824C91.6823 12.5467 91.245 12.408 90.669 12.408C90.093 12.408 89.6343 12.5893 89.293 12.952C88.973 13.2933 88.813 13.6773 88.813 14.104ZM106.229 23C104.714 23 103.37 22.6373 102.197 21.912C101.045 21.1653 100.159 20.2053 99.5405 19.032C98.9218 17.8373 98.6125 16.568 98.6125 15.224C98.6125 13.6453 98.9325 12.312 99.5725 11.224C100.234 10.1147 101.077 9.29333 102.101 8.76C103.146 8.22667 104.266 7.96 105.461 7.96C106.655 7.96 107.722 8.216 108.661 8.728C108.618 8.28 108.533 7.8 108.405 7.288C108.298 6.776 108.223 6.456 108.181 6.328C108.01 5.66667 107.882 5.112 107.797 4.664C107.711 4.216 107.669 3.768 107.669 3.32C107.669 2.424 107.935 1.74133 108.469 1.272C109.002 0.802666 109.642 0.567999 110.389 0.567999C111.583 0.567999 112.554 1.16533 113.301 2.36C114.047 3.55467 114.581 5.03733 114.901 6.808C115.242 8.57867 115.413 10.3707 115.413 12.184C115.413 14.6373 114.847 17.0587 113.717 19.448C112.607 21.816 110.111 23 106.229 23ZM106.421 17.944C106.997 17.944 107.498 17.7307 107.925 17.304C108.351 16.856 108.565 16.3333 108.565 15.736C108.565 15.1387 108.351 14.616 107.925 14.168C107.498 13.72 106.997 13.496 106.421 13.496C105.845 13.496 105.333 13.72 104.885 14.168C104.458 14.616 104.245 15.1387 104.245 15.736C104.245 16.3333 104.458 16.856 104.885 17.304C105.333 17.7307 105.845 17.944 106.421 17.944ZM135.797 23C131.914 23 129.407 21.816 128.277 19.448C127.167 17.0587 126.613 14.6373 126.613 12.184C126.613 10.3707 126.773 8.57867 127.093 6.808C127.434 5.03733 127.978 3.55467 128.725 2.36C129.471 1.16533 130.442 0.567999 131.637 0.567999C132.383 0.567999 133.023 0.802666 133.557 1.272C134.09 1.74133 134.357 2.424 134.357 3.32C134.357 3.768 134.314 4.216 134.229 4.664C134.143 5.112 134.015 5.66667 133.845 6.328C133.802 6.456 133.717 6.776 133.589 7.288C133.482 7.8 133.407 8.28 133.365 8.728C134.303 8.216 135.37 7.96 136.565 7.96C137.759 7.96 138.869 8.22667 139.893 8.76C140.938 9.29333 141.781 10.1147 142.421 11.224C143.082 12.312 143.413 13.6453 143.413 15.224C143.413 16.568 143.103 17.8373 142.485 19.032C141.866 20.2053 140.97 21.1653 139.797 21.912C138.645 22.6373 137.311 23 135.797 23ZM135.605 17.944C136.181 17.944 136.682 17.7307 137.109 17.304C137.557 16.856 137.781 16.3333 137.781 15.736C137.781 15.1387 137.557 14.616 137.109 14.168C136.682 13.72 136.181 13.496 135.605 13.496C135.029 13.496 134.527 13.72 134.101 14.168C133.674 14.616 133.461 15.1387 133.461 15.736C133.461 16.3333 133.674 16.856 134.101 17.304C134.527 17.7307 135.029 17.944 135.605 17.944ZM149.394 27.736C148.242 27.736 147.282 27.512 146.514 27.064C145.746 26.616 145.362 25.9547 145.362 25.08C145.362 24.376 145.693 23.8213 146.354 23.416C147.015 23.0107 147.794 22.8293 148.69 22.872C149.629 22.9147 150.354 22.872 150.866 22.744C151.399 22.616 151.805 22.3813 152.082 22.04C150.119 22.04 148.551 21.7627 147.378 21.208C146.205 20.632 145.351 19.7467 144.818 18.552C144.306 17.336 144.05 15.736 144.05 13.752C144.05 12.0453 144.306 10.6693 144.818 9.624C145.351 8.55733 146.183 8.024 147.314 8.024C148.317 8.024 149.053 8.312 149.522 8.888C150.013 9.44267 150.258 10.168 150.258 11.064L150.226 12.472C150.205 12.7493 150.194 13.1547 150.194 13.688C150.194 14.712 150.322 15.4907 150.578 16.024C150.834 16.536 151.346 16.792 152.114 16.792C152.882 16.792 153.394 16.536 153.65 16.024C153.906 15.4907 154.034 14.7227 154.034 13.72C154.034 13.1867 154.023 12.7813 154.002 12.504L153.97 11.128C153.97 10.168 154.205 9.41067 154.674 8.856C155.165 8.30133 155.911 8.024 156.914 8.024C158.045 8.024 158.877 8.55733 159.41 9.624C159.943 10.6907 160.21 12.0667 160.21 13.752C160.21 16.2693 159.847 18.584 159.122 20.696C158.418 22.7867 157.255 24.4827 155.634 25.784C154.034 27.0853 151.954 27.736 149.394 27.736Z" fill="#F7F4E9"/>
</svg>
