<svg width="50" height="50" viewBox="0 0 50 50" fill="none" xmlns="http://www.w3.org/2000/svg">
<g id="Flower-3--Streamline-Fun-Stickers">
<path id="Vector" d="M18.4129 19.666C18.8904 19.834 19.3544 19.9975 19.7904 20.1645C21.0429 20.6395 22.4154 21.0345 23.8154 21.2105C21.3319 20.9155 16.5359 21.973 14.1929 22.6315C9.68291 23.905 4.08541 29.6085 8.22391 34.2245C11.4869 37.8855 18.8884 33.0045 20.7719 30.086C21.0694 29.6185 21.4179 29.151 21.7769 28.67C23.3254 26.5925 23.9294 24.32 24.7774 21.9375C24.4734 25.5545 24.3664 32.126 26.4224 35.0735C28.8099 38.4955 35.7604 39.265 37.9889 35.153C40.3234 30.8555 35.2034 25.019 31.4889 23.666C31.1296 23.543 30.7687 23.4247 30.4064 23.311C28.6864 22.7595 26.6929 22.089 26.1564 21.594C27.4964 21.6145 29.7269 21.0415 30.9999 20.594C34.9514 19.204 38.9999 17.0805 40.2969 13.214C40.8274 11.675 41.0399 10.0835 39.8719 8.75696C38.7579 7.45696 36.5299 7.64296 34.9909 7.90796C30.9324 8.62446 26.9529 12.338 25.7324 16.2115C25.5974 16.6475 25.3744 18.1095 25.1959 19.282C25.0454 20.2705 24.9259 21.0535 24.9164 20.8435C24.9164 20.4205 24.9484 19.991 24.9804 19.561C25.0564 18.5365 25.1329 17.5095 24.7774 16.556C24.4244 15.6295 23.9249 14.831 23.3999 13.9935C23.2939 13.824 23.1869 13.6535 23.0799 13.479C22.9434 13.257 22.7984 13.014 22.6449 12.7565C21.0379 10.0595 18.4909 5.78496 14.8824 7.72246C11.8314 9.36746 10.2929 14.3545 13.0784 16.981C14.4534 18.271 16.5359 19.0045 18.4129 19.666Z" fill="#F5AC5F"/>
<path id="Vector_2" d="M24.4736 21.814C23.1586 27.439 21.8036 33.015 20.9546 38.7505C20.8431 39.5035 20.4421 43.9035 20.5086 43.7625" stroke="#232F61" stroke-width="0.612512" stroke-miterlimit="2.854" stroke-linecap="round" stroke-linejoin="round"/>
</g>
</svg>
