<svg width="268" height="252" viewBox="0 0 268 252" fill="none" xmlns="http://www.w3.org/2000/svg">
<g filter="url(#filter0_d_10_33)">
<path d="M240.729 140.436C212.916 185.23 180.022 163.404 158.497 179.635C136.972 195.865 100.253 208.407 55.4311 190.701C10.6089 172.995 25.9631 149.039 31.1207 109.057C38.2629 53.6898 130.942 28.5116 156.226 35.0812C195.983 51.5353 268.542 95.642 240.729 140.436Z" fill="#D2ECF8"/>
<path d="M240.729 140.436C212.916 185.23 180.022 163.404 158.497 179.635C136.972 195.865 100.253 208.407 55.4311 190.701C10.6089 172.995 25.9631 149.039 31.1207 109.057C38.2629 53.6898 130.942 28.5116 156.226 35.0812C195.983 51.5353 268.542 95.642 240.729 140.436Z" stroke="#696969" stroke-width="0.472199"/>
</g>
<path d="M121.042 120.826C103.873 111.712 104.21 120.756 107.809 125.063C112.421 130.536 119.544 135.105 125.991 137.843C128.333 138.817 130.457 140.032 132.969 140.602C135.818 141.245 140.865 142.531 143.133 139.746C144.945 137.509 142.216 135.177 140.912 133.63C139.753 132.25 137.943 131.94 136.566 130.87C132.993 128.038 124.735 123.564 121.041 120.826H121.042Z" fill="#2953A7"/>
<path d="M108.78 115.019C107.636 116.04 105.962 117.534 106.07 118.494L106.179 118.553C107.332 116.308 111.46 115.74 121.041 120.826C122.75 122.093 125.436 123.731 128.182 125.406C131.374 127.352 134.646 129.348 136.566 130.87C137.133 131.311 137.774 131.622 138.413 131.934C139.324 132.377 140.232 132.819 140.912 133.63C141.092 133.844 141.299 134.071 141.518 134.312C142.66 135.572 144.115 137.178 143.645 138.799C148.351 133.235 150.772 125.412 143.375 119.732C141.323 118.137 152.937 105.953 153.734 106.238C154.767 106.598 155.776 107.422 156.771 108.234C157.75 109.034 158.715 109.822 159.673 110.141C161.194 110.641 164.043 106.262 163.174 104.549C162.232 102.669 140.454 86.2248 137.628 87.1523C136.775 87.4272 136.225 88.6166 135.757 89.6242C135.575 90.0157 135.407 90.3785 135.238 90.6509C135.191 90.7213 135.141 90.7898 135.088 90.8562C134.794 91.2425 134.248 91.9595 134.562 92.2692C134.732 92.4363 135.29 92.8748 135.974 93.4125C137.24 94.4088 138.936 95.7426 139.391 96.3142C139.682 96.6771 138.034 98.1997 136.958 99.1951C136.691 99.4422 136.459 99.6562 136.3 99.8128C134.611 101.455 131.713 104.049 129.419 106C128.801 106.517 128.392 106.998 127.998 107.461C127.486 108.063 126.999 108.635 126.111 109.213C125.153 109.848 123.293 109.677 121.565 109.518C120.506 109.42 119.496 109.328 118.771 109.427C115.173 109.927 112.083 111.474 109.668 114.187C109.492 114.385 109.166 114.675 108.78 115.019Z" fill="#FBC604"/>
<path d="M121.042 120.826C103.873 111.712 104.21 120.756 107.809 125.063C112.421 130.536 119.544 135.105 125.991 137.843C128.333 138.817 130.457 140.032 132.969 140.602C135.818 141.245 140.865 142.531 143.133 139.746C144.945 137.509 142.216 135.177 140.912 133.63C139.753 132.25 137.943 131.94 136.566 130.87C132.993 128.038 124.735 123.564 121.041 120.826H121.042Z" stroke="#7B6661" stroke-width="0.235441" stroke-miterlimit="2.854" stroke-linecap="round" stroke-linejoin="round"/>
<path d="M108.78 115.019C107.636 116.04 105.962 117.534 106.07 118.494L106.179 118.553C107.332 116.308 111.46 115.74 121.041 120.826C122.75 122.093 125.436 123.731 128.182 125.406C131.374 127.352 134.646 129.348 136.566 130.87C137.133 131.311 137.774 131.622 138.413 131.934C139.324 132.377 140.232 132.819 140.912 133.63C141.092 133.844 141.299 134.071 141.518 134.312C142.66 135.572 144.115 137.178 143.645 138.799C148.351 133.235 150.772 125.412 143.375 119.732C141.323 118.137 152.937 105.953 153.734 106.238C154.767 106.598 155.776 107.422 156.771 108.234C157.75 109.034 158.715 109.822 159.673 110.141C161.194 110.641 164.043 106.262 163.174 104.549C162.232 102.669 140.454 86.2248 137.628 87.1523C136.775 87.4272 136.225 88.6166 135.757 89.6242C135.575 90.0157 135.407 90.3785 135.238 90.6509C135.191 90.7213 135.141 90.7898 135.088 90.8562C134.794 91.2425 134.248 91.9595 134.562 92.2692C134.732 92.4363 135.29 92.8748 135.974 93.4125C137.24 94.4088 138.936 95.7426 139.391 96.3142C139.682 96.6771 138.034 98.1997 136.958 99.1951C136.691 99.4422 136.459 99.6562 136.3 99.8128C134.611 101.455 131.713 104.049 129.419 106C128.801 106.517 128.392 106.998 127.998 107.461C127.486 108.063 126.999 108.635 126.111 109.213C125.153 109.848 123.293 109.677 121.565 109.518C120.506 109.42 119.496 109.328 118.771 109.427C115.173 109.927 112.083 111.474 109.668 114.187C109.492 114.385 109.166 114.675 108.78 115.019Z" stroke="#7B6661" stroke-width="0.235441" stroke-miterlimit="2.854" stroke-linecap="round" stroke-linejoin="round"/>
<path d="M125.376 132.406C125.376 129.758 121.955 127.403 119.412 129.028C112.679 136.612 107.65 144.33 102.473 152.953C101.638 154.344 100.888 155.782 100.227 157.26C98.5674 158.897 99.6329 160.32 101.541 158.726C103.447 157.131 106.999 153.55 108.713 151.765C113.256 146.997 125.376 133.929 125.376 132.406Z" fill="#FB8CAC"/>
<path d="M125.376 132.406C125.376 129.758 121.955 127.403 119.412 129.028C112.679 136.612 107.65 144.33 102.473 152.953C101.638 154.344 100.888 155.782 100.227 157.26C98.5674 158.897 99.6329 160.32 101.541 158.726C103.447 157.131 106.999 153.55 108.713 151.765C113.256 146.997 125.376 133.929 125.376 132.406Z" fill="#FB8CAC" stroke="#7B6661" stroke-width="0.235441" stroke-miterlimit="2.854" stroke-linecap="round" stroke-linejoin="round"/>
<path d="M46.0538 139.054L37.1331 138.765C36.8749 138.757 36.7517 138.582 36.7634 138.241C36.7744 137.919 36.9782 137.764 37.3747 137.776C37.0015 136.814 36.8302 135.89 36.8605 135.005C36.9035 133.751 37.2348 132.838 37.8544 132.268C38.4739 131.697 39.2401 131.427 40.153 131.456C41.4438 131.498 42.2784 132.194 42.6567 133.545L46.0691 131.343C46.1724 131.291 46.2609 131.266 46.3347 131.268C46.4454 131.272 46.5314 131.321 46.5927 131.415C46.6544 131.5 46.6829 131.612 46.6782 131.75C46.6684 132.036 46.5454 132.258 46.3092 132.417L42.8558 134.603C42.9045 135.066 42.9179 135.616 42.8961 136.252C42.8898 136.436 42.8663 136.717 42.8257 137.094C42.7854 137.462 42.7621 137.738 42.7557 137.923L46.0889 138.031C46.2088 138.035 46.2993 138.088 46.3603 138.192C46.4217 138.286 46.45 138.402 46.4453 138.541C46.4333 138.891 46.3028 139.062 46.0538 139.054ZM41.5663 137.884C41.6991 137.51 41.7852 136.752 41.8244 135.608C41.856 134.686 41.7201 133.939 41.4167 133.366C41.104 132.793 40.6204 132.496 39.9657 132.475C39.4033 132.456 38.9253 132.667 38.5318 133.107C38.129 133.546 37.9115 134.236 37.8792 135.176C37.8514 135.987 38.0662 136.857 38.5236 137.786L41.5663 137.884Z" fill="#0D6E9A"/>
<path d="M43.7471 123.762C43.1675 123.65 42.6775 123.423 42.2769 123.082C41.8763 122.74 41.5876 122.337 41.4107 121.87C41.2338 121.403 41.1314 120.918 41.1034 120.415C41.0664 119.909 41.0991 119.408 41.2016 118.911C41.3843 118.026 41.7206 117.377 42.2107 116.965C42.6916 116.551 43.2129 116.399 43.7743 116.508C44.381 116.626 44.8385 117.011 45.1466 117.663C45.4548 118.315 45.5008 119.165 45.2846 120.213C45.0908 121.153 44.7704 122.021 44.3235 122.817C45.0141 122.848 45.6399 122.646 46.2008 122.21C46.7616 121.774 47.1213 121.172 47.2797 120.404C47.3636 119.997 47.3869 119.565 47.3496 119.106C47.3141 118.639 47.2048 118.256 47.0215 117.957C46.9565 117.907 46.9352 117.828 46.9576 117.719C46.9837 117.593 47.0705 117.469 47.218 117.347C47.3565 117.224 47.4846 117.173 47.6024 117.196C48.0176 117.512 48.2658 118.021 48.3471 118.723C48.4212 119.414 48.3948 120.066 48.2681 120.681C48.0388 121.792 47.4838 122.633 46.6031 123.204C45.7224 123.775 44.7704 123.961 43.7471 123.762ZM43.2888 122.559C43.7274 121.94 44.0502 121.129 44.2571 120.126C44.4192 119.34 44.42 118.72 44.2594 118.266C44.0897 117.81 43.8509 117.552 43.543 117.492C43.2714 117.439 43.0096 117.567 42.7576 117.875C42.4985 118.172 42.3 118.655 42.162 119.324C42.0129 120.046 42.0511 120.683 42.2764 121.235C42.4946 121.775 42.832 122.217 43.2888 122.559Z" fill="#0D6E9A"/>
<path d="M48.0311 110.29C46.8698 109.867 46.0434 109.05 45.5521 107.84C45.0608 106.63 45.0365 105.453 45.479 104.308C45.7818 103.525 46.3387 102.968 47.1497 102.635C47.9607 102.302 48.7475 102.275 49.5102 102.553L52.9113 103.809C53.0239 103.85 53.0933 103.939 53.1194 104.076C53.1401 104.201 53.1255 104.329 53.0756 104.458C52.9658 104.742 52.7896 104.839 52.5469 104.751L50.3498 103.949C50.9903 104.978 51.3911 105.885 51.5522 106.671C51.7167 107.447 51.6691 108.171 51.4096 108.842C51.17 109.462 50.7074 109.917 50.0217 110.206C49.3273 110.493 48.6638 110.521 48.0311 110.29ZM48.4165 109.371C48.9105 109.551 49.3541 109.516 49.7472 109.267C50.1316 109.014 50.3987 108.695 50.5484 108.307C50.7215 107.86 50.6984 107.267 50.4794 106.53C50.2516 105.789 49.938 105.13 49.5384 104.552C49.1334 103.962 48.775 103.611 48.463 103.497C48.2029 103.402 47.9433 103.396 47.6841 103.478C47.4195 103.548 47.1963 103.678 47.0145 103.867C46.8359 104.047 46.6901 104.22 46.5769 104.385C46.455 104.547 46.3707 104.688 46.3242 104.808C45.9981 105.651 46.0443 106.542 46.4627 107.48C46.8726 108.415 47.5238 109.045 48.4165 109.371Z" fill="#0D6E9A"/>
<path d="M53.8534 96.3613C52.7769 95.7536 52.0978 94.8142 51.8161 93.5432C51.5343 92.2722 51.7086 91.1103 52.3387 90.0575C52.732 89.4005 53.3125 88.9604 54.0803 88.7373L50.7905 86.8801C50.5817 86.7622 50.5625 86.5608 50.7331 86.2758C50.9131 85.9751 51.1076 85.8836 51.3165 86.0015L59.7035 90.7362C59.9285 90.8631 59.9533 91.0731 59.778 91.3659C59.7069 91.4847 59.6172 91.5717 59.5088 91.627C59.3924 91.6778 59.282 91.6737 59.1776 91.6148L57.2134 90.5059C57.6731 91.6233 57.9164 92.5814 57.9434 93.3803C57.9751 94.1713 57.8061 94.8755 57.4365 95.4929C57.0954 96.0628 56.5615 96.4339 55.835 96.6062C55.1004 96.774 54.4399 96.6923 53.8534 96.3613ZM54.3893 95.52C54.8472 95.7785 55.2914 95.8175 55.7219 95.6369C56.1444 95.4518 56.4623 95.1812 56.6755 94.825C56.9219 94.4134 56.999 93.8268 56.9067 93.0651C56.8064 92.299 56.6075 91.5989 56.3099 90.9649C56.0089 90.3185 55.7139 89.9136 55.4247 89.7504C55.1837 89.6143 54.9281 89.5654 54.6581 89.6035C54.3847 89.6292 54.1422 89.7201 53.9307 89.876C53.7239 90.024 53.5506 90.1698 53.4109 90.3133C53.2632 90.4523 53.1562 90.5772 53.0899 90.688C52.6255 91.4638 52.5211 92.3474 52.7767 93.3389C53.0243 94.3259 53.5618 95.0529 54.3893 95.52Z" fill="#0D6E9A"/>
<path d="M68.4316 79.1792L61.4506 72.5441C61.2767 72.3788 61.3142 72.1728 61.5631 71.9258C61.7988 71.6919 62.0036 71.6576 62.1775 71.8228L64.9158 74.4254C64.9272 73.6476 65.2048 72.989 65.7483 72.4497C66.6193 71.5855 67.7229 71.1205 69.0591 71.0547C70.3953 70.9889 71.5115 71.3818 72.4075 72.2335C72.8956 72.6974 73.1569 73.2956 73.1912 74.0279C73.2189 74.7539 72.997 75.3508 72.5255 75.8186C72.0147 76.3255 71.3598 76.6699 70.5609 76.8521C69.7686 77.0277 68.7562 77.045 67.5236 76.904L69.1585 78.4579C69.2455 78.5405 69.2797 78.643 69.2611 78.7653C69.2359 78.8813 69.1742 78.988 69.0759 79.0855C68.8336 79.3259 68.6189 79.3571 68.4316 79.1792ZM66.2866 75.4229C66.5273 75.6517 67.0057 75.8266 67.7218 75.9474C68.4378 76.0554 69.189 76.057 69.9755 75.9521C70.7552 75.8409 71.3154 75.6163 71.6559 75.2785C71.9506 74.9861 72.132 74.6177 72.2 74.1735C72.2613 73.723 72.1014 73.3165 71.7203 72.9543C71.0316 72.2997 70.1644 71.9844 69.119 72.0085C68.0668 72.0262 67.2199 72.3535 66.5781 72.9903C66.4864 73.0813 66.3919 73.214 66.2945 73.3886C66.1904 73.5568 66.09 73.7604 65.9933 73.9992C65.9031 74.2316 65.8794 74.4825 65.922 74.752C65.9644 75.0086 66.086 75.2323 66.2866 75.4229Z" fill="#0D6E9A"/>
<path d="M77.0891 66.6173C76.7324 66.1468 76.5198 65.6526 76.4512 65.1348C76.3827 64.617 76.4402 64.1281 76.6238 63.6681C76.8074 63.2081 77.0591 62.7845 77.3788 62.3972C77.6929 62.0026 78.0564 61.6577 78.4691 61.3626C79.2046 60.8368 79.8947 60.5871 80.5396 60.6135C81.179 60.6325 81.6714 60.8699 82.0169 61.3257C82.3903 61.8183 82.4716 62.4063 82.2608 63.0899C82.0499 63.7734 81.5092 64.4263 80.6387 65.0487C79.8582 65.6067 79.0317 66.0276 78.1591 66.3114C78.654 66.7964 79.2585 67.0671 79.9724 67.1235C80.6863 67.1798 81.3622 66.98 82.0001 66.524C82.3378 66.2825 82.6478 65.9816 82.93 65.6211C83.2197 65.2553 83.3971 64.9017 83.4624 64.5603C83.4478 64.4801 83.4855 64.4077 83.5756 64.3434C83.6807 64.2682 83.8294 64.2355 84.022 64.2453C84.2089 64.2476 84.3386 64.2966 84.4111 64.3922C84.5077 64.9012 84.349 65.4398 83.9349 66.0079C83.5228 66.5633 83.0615 67.0234 82.5512 67.3883C81.6281 68.0482 80.6445 68.2924 79.6002 68.1207C78.5559 67.9491 77.7189 67.448 77.0891 66.6173ZM77.5604 65.4301C78.3071 65.2703 79.097 64.8926 79.93 64.2971C80.5829 63.8303 81.003 63.3769 81.1902 62.937C81.3719 62.4897 81.368 62.1411 81.1785 61.8912C81.0113 61.6706 80.7294 61.5888 80.3327 61.6456C79.938 61.6898 79.463 61.9104 78.9076 62.3074C78.3073 62.7366 77.9048 63.2284 77.7002 63.7828C77.4975 64.3245 77.4509 64.8736 77.5604 65.4301Z" fill="#0D6E9A"/>
<path d="M87.5147 56.309C87.4473 56.1881 87.4175 56.0683 87.4252 55.9496C87.4412 55.8266 87.5022 55.7373 87.6084 55.6815L88.0248 55.4625L87.1961 53.9758C87.1377 53.8711 87.1336 53.7691 87.1838 53.6697C87.2422 53.5661 87.3326 53.4821 87.4551 53.4177C87.7654 53.2546 87.9812 53.2818 88.1025 53.4994L88.9312 54.9861L90.891 53.9558C90.9971 53.9 91.1035 53.9014 91.2101 53.96C91.3121 54.0106 91.3969 54.0963 91.4642 54.2171C91.6349 54.5233 91.61 54.7344 91.3896 54.8503L89.4298 55.8805L91.04 58.7693C91.5431 59.6717 92.1417 59.9405 92.8358 59.5757C93.1297 59.4211 93.338 59.2075 93.4604 58.9347C93.5911 58.6577 93.5441 58.3177 93.3195 57.9148C93.2566 57.802 93.2499 57.6857 93.2993 57.566C93.3569 57.4419 93.451 57.3456 93.5816 57.2769C93.7041 57.2125 93.8264 57.1951 93.9485 57.2247C94.0661 57.2463 94.1608 57.3215 94.2327 57.4504C94.5793 58.0913 94.6551 58.6818 94.46 59.222C94.273 59.7579 93.8978 60.1739 93.3343 60.4701C92.036 61.1526 90.9085 60.6357 89.9517 58.9194L88.5234 56.357L88.1069 56.5759C87.8783 56.6961 87.6809 56.6071 87.5147 56.309Z" fill="#0D6E9A"/>
<path d="M98.0829 50.8328C98.0398 50.711 98.0712 50.5789 98.1773 50.4365C98.2921 50.2911 98.4107 50.1979 98.5332 50.1569C98.6732 50.1101 98.8013 50.1402 98.9175 50.2472L102.771 54.2831L103.016 49.3867C103.022 49.3461 103.025 49.2721 103.026 49.1648C103.027 49.0574 103.03 48.9834 103.035 48.9428C103.04 48.9022 103.047 48.8514 103.054 48.7904C103.071 48.7266 103.098 48.6786 103.136 48.6466C103.173 48.6146 103.218 48.5898 103.271 48.5722C103.323 48.5547 103.377 48.556 103.433 48.5761C103.498 48.5933 103.559 48.6265 103.616 48.6757C103.681 48.7219 103.732 48.7682 103.768 48.8145C103.812 48.8579 103.86 48.9099 103.911 48.9707C103.959 49.0228 103.984 49.0532 103.987 49.0619L107.351 52.7511L107.579 47.3499C107.603 47.1961 107.684 47.0958 107.824 47.049C107.956 47.0051 108.105 47.0133 108.274 47.0738C108.447 47.1226 108.554 47.2035 108.595 47.3165C108.61 47.36 108.614 47.4122 108.606 47.4732L108.283 53.6797C108.279 53.8363 108.241 53.9757 108.167 54.0978C108.089 54.2111 108.003 54.2839 107.906 54.3161C107.705 54.3834 107.476 54.2898 107.22 54.0352L104.066 50.7719L103.703 55.2117C103.688 55.3626 103.643 55.4991 103.569 55.6211C103.504 55.7403 103.423 55.8159 103.326 55.8481C103.116 55.9184 102.883 55.8262 102.626 55.5717L98.1732 50.9631C98.1284 50.9197 98.0984 50.8762 98.0829 50.8328Z" fill="#0D6E9A"/>
<path d="M117.637 47.8776C117.547 47.2943 117.593 46.7559 117.778 46.2626C117.963 45.7693 118.244 45.3597 118.623 45.0337C119.002 44.7078 119.423 44.4455 119.887 44.2469C120.35 44.0391 120.832 43.8984 121.334 43.8247C122.228 43.6935 122.952 43.7876 123.506 44.1073C124.059 44.4178 124.379 44.8556 124.467 45.4208C124.562 46.0315 124.355 46.5933 123.847 47.1061C123.339 47.6189 122.555 47.9531 121.496 48.1084C120.547 48.2478 119.622 48.2437 118.722 48.0961C118.927 48.7559 119.33 49.2749 119.93 49.653C120.53 50.031 121.219 50.1631 121.994 50.0493C122.405 49.989 122.82 49.8629 123.238 49.671C123.665 49.4777 123.988 49.2438 124.207 48.9693C124.232 48.891 124.3 48.8438 124.409 48.8278C124.537 48.809 124.683 48.8482 124.847 48.9452C125.01 49.0332 125.101 49.1364 125.12 49.2549C124.964 49.7533 124.57 50.1608 123.938 50.4773C123.313 50.7834 122.69 50.982 122.07 51.0731C120.947 51.2379 119.968 51.004 119.132 50.3715C118.296 49.739 117.798 48.9077 117.637 47.8776ZM118.613 47.0352C119.344 47.2356 120.216 47.2614 121.229 47.1127C122.023 46.9962 122.607 46.7847 122.979 46.4783C123.35 46.1628 123.511 45.85 123.463 45.5401C123.421 45.2666 123.212 45.0642 122.837 44.9328C122.469 44.7909 121.948 44.7696 121.272 44.8687C120.542 44.9759 119.956 45.2297 119.514 45.6302C119.08 46.0203 118.78 46.4886 118.613 47.0352Z" fill="#0D6E9A"/>
<path d="M132.079 46.1064C132.082 45.516 132.215 44.9909 132.476 44.5311C132.737 44.0713 133.08 43.7088 133.506 43.4437C133.932 43.1785 134.39 42.9827 134.88 42.8563C135.369 42.7207 135.868 42.6543 136.375 42.6571C137.279 42.6622 137.979 42.8645 138.475 43.2639C138.971 43.6542 139.217 44.1353 139.214 44.7072C139.21 45.3253 138.916 45.8495 138.333 46.2798C137.749 46.7102 136.922 46.9223 135.852 46.9163C134.893 46.911 133.98 46.7675 133.115 46.4859C133.212 47.1691 133.527 47.7428 134.059 48.2071C134.591 48.6713 135.25 48.9056 136.034 48.91C136.449 48.9124 136.878 48.8502 137.322 48.7235C137.775 48.5969 138.131 48.4144 138.391 48.176C138.428 48.1024 138.502 48.0659 138.613 48.0665C138.742 48.0672 138.88 48.128 139.027 48.2487C139.174 48.3603 139.247 48.476 139.246 48.5959C139.013 49.0651 138.559 49.4085 137.884 49.6261C137.218 49.8346 136.572 49.9371 135.945 49.9336C134.81 49.9272 133.881 49.5484 133.156 48.797C132.432 48.0457 132.073 47.1489 132.079 46.1064ZM133.176 45.4207C133.866 45.729 134.723 45.886 135.747 45.8917C136.55 45.8962 137.16 45.7751 137.576 45.5283C137.993 45.2724 138.202 44.9876 138.204 44.6739C138.206 44.3971 138.032 44.1655 137.682 43.9791C137.342 43.7834 136.831 43.6837 136.148 43.6799C135.41 43.6757 134.791 43.8383 134.291 44.1676C133.8 44.4878 133.428 44.9055 133.176 45.4207Z" fill="#0D6E9A"/>
<path d="M146.413 49.7742L147.491 43.6833C147.512 43.5652 147.573 43.4819 147.676 43.4335C147.787 43.3866 147.911 43.3746 148.048 43.3974C148.393 43.4551 148.544 43.6066 148.501 43.8518L148.311 44.9283C148.852 44.5137 149.471 44.2195 150.167 44.0457C150.865 43.8628 151.545 43.8268 152.21 43.9377C153.065 44.0804 153.732 44.4676 154.21 45.0993C154.699 45.7233 154.868 46.4623 154.717 47.3162C154.703 47.398 154.624 47.8151 154.482 48.5675C154.35 49.3124 154.205 50.13 154.048 51.0203C154.027 51.1383 153.96 51.2254 153.847 51.2813C153.736 51.3282 153.612 51.3403 153.475 51.3175C153.139 51.2613 152.993 51.106 153.038 50.8517L153.672 47.268C153.786 46.623 153.642 46.0892 153.239 45.6666C152.845 45.2455 152.402 44.9939 151.911 44.9119C151.247 44.801 150.525 44.9097 149.745 45.2379C148.977 45.5585 148.396 46.0322 148.004 46.6588L147.423 49.9427C147.38 50.188 147.185 50.2818 146.839 50.2241C146.703 50.2013 146.59 50.1498 146.501 50.0695C146.422 49.9907 146.392 49.8923 146.413 49.7742Z" fill="#0D6E9A"/>
<path d="M170.516 49.276C170.571 49.149 170.649 49.0512 170.749 48.9825C170.858 48.9172 170.967 48.9073 171.078 48.9527L171.514 49.1305L172.19 47.5686C172.238 47.4586 172.317 47.3914 172.428 47.367C172.548 47.3461 172.672 47.3618 172.8 47.4141C173.125 47.5466 173.237 47.7272 173.138 47.9558L172.462 49.5177L174.512 50.3547C174.623 50.4001 174.688 50.4815 174.707 50.5991C174.731 50.7081 174.715 50.8261 174.66 50.9531C174.52 51.2748 174.335 51.3886 174.105 51.2944L172.055 50.4573L170.741 53.4923C170.33 54.4404 170.488 55.0627 171.214 55.3592C171.521 55.4847 171.823 55.5082 172.118 55.4296C172.422 55.3544 172.666 55.1052 172.849 54.6819C172.9 54.5634 172.989 54.4852 173.116 54.4474C173.252 54.4131 173.388 54.4238 173.524 54.4796C173.653 54.5319 173.743 54.6136 173.795 54.7247C173.851 54.8273 173.85 54.9463 173.791 55.0818C173.493 55.7471 173.066 56.1755 172.511 56.3672C171.964 56.5623 171.396 56.5395 170.807 56.2989C169.449 55.7443 169.16 54.5654 169.941 52.7623L171.107 50.0702L170.671 49.8923C170.432 49.7947 170.381 49.5892 170.516 49.276Z" fill="#0D6E9A"/>
<path d="M178.623 59.2458L183.739 51.0535C183.803 50.9518 183.891 50.8969 184.005 50.889C184.127 50.8857 184.247 50.9192 184.366 50.9894C184.668 51.1673 184.753 51.3619 184.621 51.5732L182.188 55.4698C182.831 55.2923 183.509 55.2524 184.22 55.3501C184.931 55.4478 185.58 55.6698 186.168 56.0163C186.924 56.4611 187.415 57.05 187.642 57.7831C187.874 58.5084 187.763 59.2349 187.308 59.9626C187.264 60.033 187.035 60.3906 186.622 61.0354C186.221 61.677 185.781 62.3812 185.302 63.148C185.239 63.2497 185.144 63.3062 185.017 63.3172C184.896 63.3205 184.775 63.287 184.656 63.2168C184.362 63.0436 184.283 62.8474 184.42 62.6283L186.348 59.5416C186.587 59.1582 186.676 58.7718 186.615 58.3825C186.567 57.9901 186.441 57.6696 186.237 57.4212C186.033 57.1728 185.796 56.9691 185.526 56.8099C184.938 56.4634 184.225 56.2899 183.388 56.2893C182.56 56.2934 181.854 56.5093 181.272 56.9369L179.505 59.7655C179.373 59.9767 179.156 59.9934 178.854 59.8155C178.735 59.7453 178.648 59.657 178.595 59.5508C178.55 59.4492 178.559 59.3475 178.623 59.2458Z" fill="#0D6E9A"/>
<path d="M193.7 64.7517C194.092 64.3094 194.539 63.9983 195.043 63.8182C195.547 63.6381 196.051 63.5838 196.554 63.6552C197.057 63.7266 197.539 63.8705 198 64.0869C198.467 64.2964 198.896 64.5637 199.285 64.8887C199.979 65.4677 200.386 66.0654 200.506 66.6816C200.632 67.2909 200.506 67.8098 200.127 68.2382C199.717 68.7012 199.146 68.909 198.412 68.8615C197.679 68.8141 196.901 68.4476 196.079 67.7622C195.342 67.1477 194.733 66.459 194.25 65.6963C193.876 66.2727 193.741 66.905 193.846 67.5932C193.952 68.2814 194.305 68.8767 194.908 69.3789C195.226 69.6448 195.599 69.8712 196.024 70.0581C196.457 70.2509 196.852 70.3402 197.209 70.3259C197.287 70.2943 197.368 70.3139 197.453 70.3848C197.552 70.4675 197.618 70.6011 197.652 70.7855C197.692 70.9629 197.673 71.0966 197.593 71.1864C197.104 71.3911 196.528 71.3607 195.864 71.0952C195.213 70.8287 194.647 70.4946 194.166 70.0928C193.294 69.366 192.826 68.4893 192.761 67.4628C192.697 66.4363 193.01 65.5326 193.7 64.7517ZM194.998 64.9336C195.328 65.6048 195.886 66.2684 196.672 66.9242C197.289 67.4383 197.839 67.735 198.323 67.8143C198.813 67.8867 199.161 67.8055 199.369 67.5705C199.553 67.3632 199.571 67.0782 199.424 66.7154C199.29 66.3517 198.961 65.9512 198.437 65.5139C197.87 65.0412 197.285 64.7697 196.683 64.6994C196.093 64.6281 195.532 64.7062 194.998 64.9336Z" fill="#0D6E9A"/>
<path d="M209.337 79.8411C209.984 79.3824 210.669 79.1573 211.39 79.1658C212.119 79.169 212.769 79.3357 213.34 79.6657C213.911 79.9957 214.394 80.4225 214.787 80.9462C215.286 81.6099 215.515 82.3911 215.475 83.2897C215.467 83.386 215.421 83.4635 215.339 83.5222C215.218 83.6075 215.069 83.6396 214.892 83.6184C214.722 83.5919 214.598 83.527 214.521 83.4237C214.465 83.35 214.444 83.2686 214.458 83.1797C214.508 82.6016 214.334 82.0471 213.935 81.5161C213.37 80.7639 212.693 80.3392 211.905 80.2422C211.122 80.1525 210.468 80.2944 209.941 80.6677C209.406 81.0465 209.1 81.6365 209.022 82.438C208.951 83.2341 209.154 83.9493 209.63 84.5836C210.118 85.2326 210.751 85.5919 211.53 85.6614C211.674 85.6839 211.768 85.7246 211.813 85.7836C211.896 85.8943 211.92 86.0412 211.884 86.2245C211.849 86.4077 211.779 86.5367 211.673 86.6114C211.606 86.6594 211.526 86.6762 211.434 86.6619C210.345 86.5635 209.479 86.0865 208.836 85.231C208.155 84.3238 207.863 83.3441 207.96 82.2917C208.065 81.2341 208.524 80.4172 209.337 79.8411Z" fill="#0D6E9A"/>
<path d="M214.546 92.2416L223.201 87.9536C223.308 87.9004 223.412 87.9002 223.513 87.9532C223.618 88.0144 223.703 88.1062 223.767 88.2287C223.93 88.5391 223.9 88.7495 223.677 88.8601L219.56 90.8997C220.2 91.0869 220.797 91.409 221.349 91.8659C221.902 92.3229 222.337 92.8536 222.655 93.4579C223.062 94.2338 223.17 94.9936 222.977 95.7375C222.793 96.4772 222.316 97.0376 221.547 97.4184C221.473 97.4553 221.091 97.6396 220.4 97.9714C219.722 98.3072 218.978 98.6758 218.168 99.0771C218.061 99.1304 217.95 99.1285 217.837 99.0714C217.732 99.0102 217.647 98.9184 217.583 98.7959C217.424 98.4937 217.461 98.2853 217.692 98.1706L220.953 96.555C221.358 96.3543 221.637 96.072 221.79 95.7082C221.955 95.3485 222.016 95.0093 221.974 94.6906C221.931 94.372 221.837 94.0738 221.691 93.7961C221.374 93.1918 220.86 92.6694 220.149 92.2289C219.443 91.7966 218.73 91.6095 218.01 91.6676L215.022 93.1481C214.799 93.2586 214.606 93.1588 214.443 92.8484C214.378 92.7259 214.352 92.6054 214.362 92.4869C214.377 92.3766 214.438 92.2948 214.546 92.2416Z" fill="#0D6E9A"/>
<path d="M223.29 105.02C224.473 104.662 225.641 104.815 226.793 105.479C227.945 106.143 228.708 107.059 229.082 108.227C229.338 109.027 229.252 109.8 228.823 110.546C228.393 111.292 227.79 111.783 227.013 112.018L223.538 113.053C223.423 113.088 223.312 113.059 223.205 112.966C223.109 112.879 223.041 112.77 222.998 112.638C222.905 112.348 222.983 112.166 223.23 112.091L225.469 111.415C224.313 110.983 223.424 110.505 222.801 109.98C222.18 109.464 221.76 108.864 221.541 108.178C221.338 107.546 221.416 106.911 221.773 106.273C222.139 105.632 222.645 105.214 223.29 105.02ZM223.567 105.977C223.064 106.129 222.736 106.42 222.583 106.852C222.44 107.281 222.431 107.693 222.558 108.088C222.704 108.545 223.097 109 223.736 109.452C224.384 109.902 225.048 110.236 225.728 110.455C226.42 110.679 226.924 110.744 227.242 110.648C227.507 110.568 227.716 110.418 227.868 110.198C228.033 109.985 228.127 109.749 228.151 109.492C228.177 109.243 228.183 109.019 228.168 108.821C228.162 108.621 228.14 108.459 228.1 108.336C227.824 107.475 227.225 106.799 226.302 106.307C225.388 105.812 224.477 105.702 223.567 105.977Z" fill="#0D6E9A"/>
<path d="M231.254 118.651C231.391 118.63 231.514 118.643 231.625 118.692C231.737 118.749 231.803 118.837 231.822 118.955L231.898 119.42L233.58 119.161C233.699 119.142 233.797 119.174 233.876 119.255C233.956 119.345 234.008 119.459 234.03 119.595C234.086 119.941 233.992 120.133 233.745 120.171L232.063 120.43L232.42 122.615C232.44 122.734 232.404 122.833 232.314 122.912C232.234 122.99 232.125 123.039 231.988 123.06C231.642 123.113 231.448 123.017 231.408 122.771L231.051 120.586L227.782 121.09C226.761 121.247 226.314 121.713 226.44 122.487C226.494 122.814 226.631 123.083 226.852 123.291C227.075 123.509 227.414 123.583 227.87 123.512C227.997 123.493 228.11 123.527 228.209 123.614C228.309 123.711 228.371 123.832 228.394 123.978C228.417 124.114 228.394 124.234 228.327 124.338C228.269 124.44 228.167 124.503 228.021 124.525C227.299 124.627 226.712 124.494 226.259 124.125C225.808 123.765 225.531 123.271 225.428 122.643C225.192 121.195 226.045 120.322 227.987 120.022L230.886 119.576L230.81 119.111C230.769 118.856 230.916 118.703 231.254 118.651Z" fill="#0D6E9A"/>
<path d="M227.806 130.288C227.926 130.286 228.057 130.334 228.197 130.432C228.338 130.54 228.428 130.663 228.468 130.8C228.47 130.865 228.461 130.897 228.443 130.898C228.127 131.199 227.883 131.629 227.71 132.186C227.548 132.743 227.456 133.179 227.435 133.493C227.415 133.817 227.408 134.117 227.414 134.393C227.441 135.592 227.819 136.184 228.547 136.169C228.796 136.163 228.992 136.067 229.136 135.879C229.289 135.701 229.389 135.454 229.438 135.14C229.486 134.834 229.516 134.524 229.528 134.21C229.539 133.896 229.545 133.555 229.546 133.186C229.556 132.816 229.578 132.534 229.61 132.34C229.7 131.812 229.902 131.342 230.215 130.929C230.538 130.516 230.921 130.305 231.364 130.296C232.065 130.281 232.608 130.62 232.992 131.314C233.386 132.016 233.593 132.791 233.612 133.64C233.625 134.211 233.537 134.827 233.349 135.486C233.17 136.145 232.876 136.64 232.468 136.972C232.45 136.981 232.427 136.986 232.4 136.987C232.28 136.99 232.135 136.937 231.967 136.83C231.808 136.723 231.727 136.618 231.725 136.517C231.723 136.425 231.794 136.331 231.94 136.235C232.4 135.783 232.616 134.897 232.586 133.578C232.574 133.034 232.47 132.519 232.275 132.035C232.079 131.55 231.802 131.311 231.442 131.319C231.138 131.325 230.912 131.542 230.765 131.97C230.626 132.397 230.563 132.85 230.574 133.33C230.581 133.671 230.583 133.957 230.579 134.188C230.575 134.419 230.554 134.701 230.515 135.034C230.485 135.367 230.422 135.645 230.326 135.868C230.239 136.091 230.119 136.311 229.967 136.526C229.824 136.742 229.625 136.903 229.369 137.01C229.122 137.125 228.828 137.187 228.487 137.194C228.017 137.204 227.617 137.065 227.287 136.777C226.967 136.497 226.743 136.17 226.615 135.794C226.477 135.428 226.404 135.038 226.395 134.623C226.351 132.676 226.735 131.266 227.546 130.391C227.609 130.325 227.696 130.29 227.806 130.288Z" fill="#0D6E9A"/>
<defs>
<filter id="filter0_d_10_33" x="24.1377" y="33.8259" width="226.266" height="169.506" filterUnits="userSpaceOnUse" color-interpolation-filters="sRGB">
<feFlood flood-opacity="0" result="BackgroundImageFix"/>
<feColorMatrix in="SourceAlpha" type="matrix" values="0 0 0 0 0 0 0 0 0 0 0 0 0 0 0 0 0 0 127 0" result="hardAlpha"/>
<feOffset dx="3.24139" dy="3.78162"/>
<feComposite in2="hardAlpha" operator="out"/>
<feColorMatrix type="matrix" values="0 0 0 0 0 0 0 0 0 0 0 0 0 0 0 0 0 0 0.85 0"/>
<feBlend mode="normal" in2="BackgroundImageFix" result="effect1_dropShadow_10_33"/>
<feBlend mode="normal" in="SourceGraphic" in2="effect1_dropShadow_10_33" result="shape"/>
</filter>
</defs>
</svg>
