<svg width="233" height="208" viewBox="0 0 233 208" fill="none" xmlns="http://www.w3.org/2000/svg">
<g filter="url(#filter0_d_7_126)">
<path d="M156.108 164.549C117.109 206.817 41.0129 163.121 30.0997 122.228C19.1864 81.3355 21.1437 69.775 99.1891 29.4775C177.235 -10.8201 222.855 92.2058 156.108 164.549Z" fill="#E2D7F1"/>
<path d="M156.108 164.549C117.109 206.817 41.0129 163.121 30.0997 122.228C19.1864 81.3355 21.1437 69.775 99.1891 29.4775C177.235 -10.8201 222.855 92.2058 156.108 164.549Z" stroke="#696969" stroke-width="0.472199"/>
</g>
<path d="M58.8616 76.612L68.62 81.6113C68.8923 81.7509 68.9149 82.0035 68.6876 82.3693C68.5979 82.5137 68.4878 82.616 68.3574 82.676C68.2211 82.7458 68.0873 82.747 67.9562 82.6799L67.1543 82.2691C67.5407 83.3807 67.405 84.466 66.7471 85.5249C66.3046 86.2372 65.7231 86.7451 65.0027 87.0486C64.2823 87.3521 63.564 87.3205 62.8479 86.9536C62.4041 86.7262 62.032 86.3833 61.7318 85.925C61.4356 85.4814 61.3564 84.9776 61.494 84.4136C60.7746 85.2506 59.9829 85.765 59.1191 85.957C58.2493 86.1586 57.4916 86.094 56.8461 85.7633C55.8475 85.2517 55.2118 84.52 54.939 83.568C54.6661 82.6161 54.9364 81.4855 55.7497 80.1763C56.4495 79.05 57.221 78.1826 58.0644 77.5741C57.9367 77.3945 57.9506 77.1795 58.1061 76.9292C58.3274 76.5731 58.5792 76.4673 58.8616 76.612ZM59.1509 78.1688C58.4253 78.6092 57.6946 79.4214 56.959 80.6055C56.349 81.5874 56.1042 82.4201 56.2247 83.1036C56.3553 83.7923 56.7282 84.2943 57.3435 84.6095C58.0596 84.9764 58.7766 84.9566 59.4944 84.5503C60.2223 84.1491 60.8853 83.4672 61.4833 82.5046C61.6687 82.2062 61.9248 81.7726 62.2515 81.204C62.5883 80.6405 62.8105 80.2721 62.9181 80.0988L59.1509 78.1688ZM64.1436 80.7266C63.8539 81.0858 63.5626 81.5013 63.2696 81.973C62.7074 82.8779 62.4624 83.6788 62.5347 84.3757C62.6111 85.0874 62.9116 85.5776 63.4361 85.8463C63.8698 86.0685 64.2792 86.0943 64.6645 85.9236C65.0497 85.753 65.3859 85.4366 65.6729 84.9746C66.0079 84.4355 66.1857 83.8603 66.2064 83.2491C66.2271 82.6379 66.0337 82.0503 65.6263 81.4862L64.1436 80.7266Z" fill="#832DF8"/>
<path d="M51.4029 90.8392L62.7307 94.1952C63.0241 94.2821 63.0979 94.5282 62.9523 94.9335C62.8949 95.0935 62.8089 95.2155 62.6946 95.2996C62.5763 95.3944 62.4466 95.4209 62.3054 95.379L50.9776 92.023C50.8364 91.9812 50.7433 91.8887 50.6986 91.7456C50.6646 91.6058 50.6764 91.4559 50.7339 91.2959C50.8757 90.9013 51.0987 90.749 51.4029 90.8392Z" fill="#832DF8"/>
<path d="M53.1 96.899C54.0686 97.0068 54.868 97.3522 55.4982 97.9353C56.1381 98.5309 56.5672 99.2056 56.7856 99.9595C57.0025 100.725 57.0571 101.506 56.9495 102.303C56.798 103.426 56.2306 104.412 55.2473 105.26C54.2737 106.121 53.1393 106.479 51.8441 106.335C50.6164 106.198 49.6201 105.66 48.8552 104.72C48.1015 103.781 47.8164 102.632 47.9998 101.273C48.1801 99.9368 48.7683 98.8395 49.7643 97.9813C50.7717 97.1244 51.8836 96.7637 53.1 96.899ZM52.9149 98.1438C52.1152 98.0548 51.3339 98.3383 50.5708 98.9944C49.8191 99.6518 49.378 100.463 49.2477 101.429C49.125 102.339 49.3527 103.151 49.9308 103.865C50.5075 104.59 51.2013 104.998 52.0123 105.088C52.8007 105.176 53.5801 104.949 54.3505 104.408C55.1209 103.867 55.572 103.108 55.7038 102.13C55.8584 100.985 55.6297 100.053 55.0178 99.3353C54.4043 98.6287 53.7033 98.2315 52.9149 98.1438Z" fill="#832DF8"/>
<path d="M51.5427 111.114C52.5084 110.983 53.3809 111.121 54.1603 111.529C54.9527 111.947 55.5652 112.493 55.9978 113.165C56.4323 113.849 56.7152 114.588 56.8463 115.382C57.0311 116.5 56.7743 117.587 56.0761 118.642C55.3909 119.708 54.4027 120.328 53.1113 120.504C51.8874 120.671 50.7682 120.395 49.7538 119.675C48.7506 118.954 48.1372 117.918 47.9137 116.565C47.6939 115.234 47.9377 114.035 48.6454 112.967C49.3642 111.897 50.33 111.279 51.5427 111.114ZM51.7309 112.358C50.9337 112.466 50.2638 112.929 49.7214 113.746C49.1902 114.562 49.004 115.45 49.1629 116.412C49.3125 117.317 49.7712 118.044 50.5391 118.591C51.3087 119.149 52.0978 119.373 52.9063 119.263C53.6923 119.156 54.377 118.748 54.9604 118.04C55.5437 117.332 55.7551 116.491 55.5944 115.518C55.4059 114.378 54.911 113.536 54.1095 112.994C53.3098 112.463 52.517 112.25 51.7309 112.358Z" fill="#832DF8"/>
<path d="M46.8067 128.597L57.7359 124.111C57.8722 124.055 58.0048 124.067 58.1338 124.149C58.2732 124.226 58.3808 124.341 58.4566 124.493C58.6434 124.868 58.5901 125.116 58.2966 125.237L56.5825 125.94C58.5824 126.28 60.0521 127.393 60.9916 129.28C61.4209 130.143 61.4857 130.996 61.1862 131.84C60.9021 132.689 60.3617 133.278 59.5649 133.605C58.6319 133.988 57.6485 134.092 56.6147 133.918C55.5915 133.739 54.6654 133.338 53.8366 132.713C53.0128 132.098 52.3837 131.354 51.9493 130.482C51.5301 129.64 51.4548 128.791 51.7233 127.935L47.3673 129.724C47.0843 129.84 46.8468 129.705 46.6548 129.32C46.5791 129.167 46.5501 129.02 46.5679 128.879C46.5908 128.747 46.6704 128.653 46.8067 128.597ZM53.9645 126.997C53.325 127.259 52.9639 127.701 52.8814 128.321C52.8039 128.952 52.8863 129.51 53.1288 129.997C53.4217 130.586 53.8665 131.124 54.463 131.612C55.0596 132.101 55.7523 132.439 56.541 132.629C57.3453 132.824 58.0934 132.779 58.7853 132.495C59.4982 132.203 59.9033 131.774 60.0006 131.208C60.103 130.653 60.0027 130.071 59.6997 129.463C59.4168 128.894 58.9171 128.373 58.2005 127.897C57.4995 127.427 56.7466 127.107 55.942 126.936C55.1478 126.761 54.4887 126.782 53.9645 126.997Z" fill="#832DF8"/>
<path d="M63.7586 147.332L69.4935 142.399C69.7255 142.199 69.9969 142.249 70.3078 142.547C70.4305 142.664 70.5027 142.788 70.5244 142.918C70.5542 143.056 70.5133 143.174 70.4016 143.27L64.6666 148.203C64.5549 148.299 64.4197 148.333 64.261 148.306C64.1109 148.271 63.9745 148.195 63.8518 148.078C63.5491 147.787 63.518 147.539 63.7586 147.332ZM71.4911 140.681L71.7231 140.481C71.9551 140.282 72.2265 140.331 72.5373 140.629C72.66 140.747 72.7322 140.871 72.7539 141.001C72.7837 141.139 72.7428 141.256 72.6311 141.352L72.3992 141.551C72.2875 141.647 72.1523 141.682 71.9935 141.655C71.8434 141.62 71.707 141.544 71.5843 141.426C71.2816 141.136 71.2505 140.888 71.4911 140.681Z" fill="#832DF8"/>
<path d="M72.9113 146.122C73.0208 145.991 73.1483 145.901 73.2938 145.851C73.4485 145.808 73.5864 145.828 73.7074 145.912L74.1822 146.242L75.5291 144.642C75.624 144.53 75.7435 144.475 75.8877 144.479C76.0412 144.49 76.1877 144.543 76.3274 144.64C76.6811 144.886 76.7594 145.126 76.5623 145.36L75.2154 146.959L77.4493 148.511C77.5703 148.595 77.6233 148.707 77.6081 148.848C77.6003 148.98 77.5416 149.111 77.4321 149.241C77.1547 149.57 76.8903 149.647 76.639 149.473L74.405 147.921L71.7879 151.029C70.9702 152 70.957 152.76 71.7482 153.309C72.0833 153.542 72.4448 153.656 72.8329 153.651C73.2302 153.652 73.6114 153.436 73.9764 153.002C74.0786 152.881 74.2137 152.817 74.3818 152.81C74.5592 152.809 74.7224 152.861 74.8713 152.964C75.0109 153.061 75.0944 153.181 75.1218 153.324C75.1565 153.458 75.1154 153.594 74.9986 153.733C74.4126 154.411 73.7475 154.78 73.0034 154.841C72.2686 154.907 71.5801 154.718 70.9378 154.272C69.4579 153.244 69.4953 151.807 71.0503 149.96L73.3718 147.204L72.8971 146.874C72.6365 146.693 72.6412 146.442 72.9113 146.122Z" fill="#832DF8"/>
<path d="M86.6146 162.356L91.1137 151.432C91.2302 151.149 91.4923 151.077 91.9001 151.215C92.0611 151.27 92.1801 151.352 92.2572 151.462C92.345 151.575 92.3609 151.7 92.3048 151.836L87.8057 162.761C87.7496 162.897 87.6452 162.987 87.4927 163.03C87.3444 163.064 87.1898 163.053 87.0289 162.998C86.6318 162.864 86.4937 162.649 86.6146 162.356Z" fill="#832DF8"/>
<path d="M93.5196 164.534L95.5023 157.234C95.5825 156.938 95.8327 156.838 96.253 156.932C96.4189 156.969 96.5467 157.038 96.6365 157.139C96.7373 157.243 96.7685 157.366 96.7298 157.508L94.7471 164.809C94.7085 164.951 94.6165 165.052 94.471 165.112C94.3286 165.162 94.1744 165.168 94.0086 165.13C93.5994 165.039 93.4364 164.84 93.5196 164.534ZM96.1929 154.691L96.2731 154.395C96.3533 154.1 96.6036 154 97.0238 154.094C97.1897 154.131 97.3175 154.2 97.4073 154.301C97.5082 154.405 97.5393 154.528 97.5007 154.67L97.4205 154.966C97.3819 155.108 97.2898 155.209 97.1444 155.269C97.002 155.319 96.8478 155.325 96.682 155.288C96.2728 155.196 96.1098 154.997 96.1929 154.691Z" fill="#832DF8"/>
<path d="M100.518 166.179L101.21 154.385C101.228 154.08 101.452 153.937 101.882 153.958C102.052 153.966 102.191 154.013 102.3 154.097C102.42 154.183 102.475 154.299 102.467 154.446L102.042 161.692L108.062 158.631C108.191 158.557 108.312 158.524 108.425 158.529C108.595 158.537 108.726 158.629 108.818 158.803C108.922 158.967 108.968 159.14 108.958 159.321C108.948 159.49 108.896 159.601 108.802 159.653L104.853 161.658L109.846 166.239C109.887 166.32 109.905 166.401 109.9 166.48C109.889 166.672 109.766 166.831 109.532 166.955C109.379 167.039 109.229 167.077 109.082 167.07C108.924 167.062 108.803 166.988 108.721 166.848L103.642 162.28L101.957 163.134L101.775 166.24C101.766 166.387 101.697 166.503 101.567 166.587C101.438 166.661 101.289 166.693 101.119 166.685C100.7 166.665 100.5 166.496 100.518 166.179Z" fill="#832DF8"/>
<path d="M115.755 162.513C115.591 161.807 115.6 161.148 115.784 160.536C115.967 159.924 116.278 159.409 116.715 158.991C117.153 158.573 117.649 158.23 118.203 157.962C118.754 157.684 119.336 157.486 119.948 157.369C121.039 157.16 121.94 157.235 122.651 157.594C123.36 157.943 123.794 158.459 123.953 159.144C124.125 159.883 123.92 160.58 123.34 161.233C122.759 161.886 121.823 162.336 120.532 162.584C119.375 162.805 118.234 162.851 117.111 162.72C117.423 163.514 117.966 164.125 118.74 164.553C119.514 164.981 120.374 165.104 121.32 164.923C121.821 164.827 122.32 164.651 122.819 164.394C123.328 164.135 123.705 163.832 123.95 163.485C123.974 163.388 124.053 163.327 124.187 163.302C124.343 163.272 124.526 163.311 124.738 163.421C124.946 163.519 125.068 163.64 125.101 163.784C124.953 164.4 124.504 164.918 123.753 165.339C123.011 165.746 122.261 166.023 121.504 166.168C120.135 166.43 118.907 166.198 117.82 165.473C116.733 164.747 116.045 163.761 115.755 162.513ZM116.882 161.433C117.801 161.637 118.878 161.621 120.114 161.384C121.082 161.198 121.782 160.909 122.214 160.515C122.643 160.109 122.814 159.719 122.727 159.344C122.65 159.013 122.374 158.777 121.9 158.638C121.434 158.485 120.789 158.487 119.966 158.645C119.075 158.816 118.376 159.157 117.867 159.67C117.367 160.169 117.038 160.757 116.882 161.433Z" fill="#832DF8"/>
<path d="M140.594 158.801L136.479 152.454C136.313 152.197 136.42 151.967 136.799 151.764C136.949 151.684 137.096 151.65 137.239 151.664C137.392 151.671 137.509 151.737 137.589 151.861L141.703 158.208C141.783 158.332 141.793 158.461 141.732 158.596C141.666 158.722 141.557 158.824 141.407 158.904C141.038 159.102 140.766 159.068 140.594 158.801ZM135.046 150.243L134.88 149.986C134.713 149.729 134.82 149.499 135.2 149.296C135.35 149.216 135.496 149.183 135.639 149.196C135.792 149.204 135.909 149.269 135.989 149.393L136.156 149.65C136.236 149.773 136.245 149.902 136.185 150.037C136.118 150.163 136.01 150.265 135.86 150.346C135.49 150.543 135.219 150.509 135.046 150.243Z" fill="#832DF8"/>
<path d="M141.132 150.054C141.017 149.929 140.95 149.796 140.929 149.656C140.917 149.51 140.971 149.392 141.088 149.303L141.55 148.956L140.142 147.411C140.042 147.302 140.011 147.184 140.048 147.058C140.094 146.924 140.186 146.806 140.321 146.704C140.666 146.445 140.941 146.429 141.147 146.655L142.556 148.2L144.73 146.566C144.847 146.477 144.98 146.455 145.127 146.499C145.267 146.535 145.394 146.616 145.509 146.742C145.799 147.06 145.822 147.311 145.577 147.495L143.403 149.13L146.141 152.132C146.996 153.07 147.809 153.249 148.578 152.67C148.905 152.425 149.109 152.13 149.192 151.786C149.284 151.434 149.139 151.049 148.757 150.631C148.65 150.513 148.612 150.38 148.643 150.229C148.683 150.072 148.775 149.939 148.92 149.83C149.056 149.728 149.204 149.681 149.363 149.688C149.515 149.687 149.652 149.753 149.774 149.887C150.368 150.555 150.612 151.226 150.507 151.897C150.411 152.562 150.051 153.13 149.426 153.6C147.986 154.683 146.452 154.332 144.826 152.549L142.398 149.886L141.936 150.233C141.682 150.424 141.414 150.364 141.132 150.054Z" fill="#832DF8"/>
<path d="M146.838 140.353C146.606 140.171 146.492 139.947 146.497 139.679C146.51 139.403 146.637 139.137 146.878 138.882C147.385 138.347 147.977 138.344 148.656 138.874C149.041 139.174 149.326 139.668 149.512 140.358C149.699 141.047 149.718 141.47 149.57 141.626C149.43 141.774 149.306 141.807 149.199 141.723C149.154 141.688 149.038 141.54 148.85 141.279C148.661 141.003 148.509 140.819 148.392 140.729C148.276 140.638 148.173 140.608 148.083 140.637C147.637 140.747 147.222 140.652 146.838 140.353Z" fill="#832DF8"/>
<path d="M159.723 141.086C159.592 141.018 159.484 140.893 159.399 140.709C159.32 140.516 159.305 140.337 159.355 140.172C159.397 140.105 159.428 140.076 159.448 140.087C159.993 139.961 160.547 139.662 161.108 139.189C161.66 138.711 162.054 138.317 162.288 138.006C162.529 137.685 162.739 137.381 162.919 137.092C163.701 135.843 163.693 135.014 162.898 134.603C162.626 134.463 162.349 134.447 162.068 134.556C161.782 134.651 161.507 134.846 161.242 135.141C160.984 135.427 160.742 135.728 160.518 136.044C160.293 136.361 160.056 136.708 159.805 137.088C159.545 137.462 159.331 137.739 159.165 137.92C158.712 138.411 158.176 138.776 157.559 139.017C156.932 139.253 156.377 139.246 155.894 138.997C155.128 138.602 154.772 137.936 154.826 136.998C154.876 136.045 155.177 135.127 155.73 134.243C156.103 133.647 156.613 133.065 157.261 132.497C157.899 131.924 158.55 131.586 159.214 131.484C159.24 131.484 159.268 131.493 159.298 131.508C159.429 131.576 159.549 131.714 159.659 131.923C159.758 132.126 159.774 132.281 159.708 132.387C159.648 132.483 159.507 132.537 159.286 132.55C158.484 132.746 157.653 133.532 156.794 134.906C156.439 135.473 156.204 136.063 156.087 136.676C155.97 137.289 156.108 137.697 156.5 137.899C156.833 138.071 157.223 137.98 157.67 137.626C158.108 137.267 158.483 136.838 158.795 136.338C159.018 135.983 159.209 135.687 159.369 135.452C159.53 135.217 159.743 134.94 160.01 134.62C160.266 134.295 160.522 134.045 160.777 133.872C161.022 133.693 161.299 133.538 161.609 133.405C161.908 133.267 162.232 133.218 162.58 133.258C162.924 133.283 163.282 133.391 163.655 133.583C164.169 133.848 164.506 134.225 164.666 134.715C164.822 135.189 164.843 135.657 164.727 136.119C164.628 136.576 164.443 137.02 164.173 137.453C162.905 139.48 161.538 140.707 160.073 141.133C159.96 141.164 159.843 141.148 159.723 141.086Z" fill="#832DF8"/>
<path d="M170.318 121.415L158.512 120.228C158.365 120.213 158.259 120.146 158.194 120.025C158.13 119.894 158.109 119.743 158.129 119.575C158.181 119.147 158.36 118.949 158.664 118.979L164.279 119.544C163.76 118.934 163.38 118.212 163.139 117.379C162.898 116.547 162.829 115.714 162.93 114.882C163.06 113.813 163.484 112.956 164.202 112.311C164.909 111.664 165.786 111.394 166.835 111.499C166.937 111.509 167.455 111.567 168.389 111.672C169.314 111.765 170.329 111.867 171.434 111.978C171.58 111.993 171.691 112.067 171.766 112.2C171.83 112.331 171.852 112.482 171.831 112.65C171.78 113.067 171.597 113.259 171.281 113.227L166.833 112.78C166.281 112.725 165.799 112.836 165.389 113.113C164.968 113.378 164.668 113.69 164.487 114.047C164.307 114.405 164.193 114.775 164.146 115.158C164.045 115.99 164.201 116.865 164.614 117.784C165.028 118.691 165.622 119.348 166.394 119.756L170.47 120.166C170.774 120.197 170.901 120.426 170.849 120.853C170.828 121.022 170.771 121.164 170.677 121.28C170.584 121.384 170.464 121.429 170.318 121.415Z" fill="#832DF8"/>
<path d="M167.941 106.099C166.978 106.249 166.102 106.128 165.313 105.736C164.51 105.333 163.885 104.801 163.437 104.137C162.986 103.462 162.686 102.729 162.536 101.939C162.325 100.825 162.557 99.7345 163.231 98.6663C163.891 97.5887 164.865 96.9493 166.153 96.7483C167.374 96.5577 168.5 96.8118 169.531 97.5106C170.551 98.2111 171.189 99.235 171.444 100.582C171.695 101.907 171.479 103.11 170.796 104.192C170.102 105.274 169.15 105.91 167.941 106.099ZM167.724 104.86C168.519 104.736 169.178 104.261 169.702 103.434C170.214 102.609 170.38 101.717 170.198 100.76C170.027 99.8578 169.552 99.141 168.771 98.6095C167.988 98.0668 167.193 97.8584 166.387 97.9843C165.603 98.1067 164.928 98.5274 164.361 99.2464C163.794 99.9655 163.602 100.809 163.785 101.778C164 102.914 164.515 103.745 165.33 104.271C166.142 104.786 166.94 104.983 167.724 104.86Z" fill="#832DF8"/>
<path d="M161.454 93.4085C161.296 93.4705 161.142 93.4884 160.992 93.4623C160.837 93.4258 160.728 93.3411 160.665 93.208L160.417 92.686L158.47 93.4486C158.333 93.5023 158.203 93.4925 158.08 93.419C157.953 93.3354 157.853 93.2168 157.78 93.0632C157.595 92.6742 157.645 92.4239 157.93 92.3123L159.877 91.5497L158.71 89.0929C158.647 88.9599 158.656 88.8348 158.738 88.7176C158.809 88.6046 158.924 88.5171 159.083 88.4551C159.484 88.2981 159.75 88.3577 159.881 88.6341L161.048 91.0909L164.831 89.609C166.013 89.1461 166.397 88.4795 165.984 87.6094C165.809 87.2409 165.552 86.9649 165.215 86.7814C164.873 86.5877 164.438 86.5942 163.91 86.8009C163.762 86.8588 163.614 86.85 163.466 86.7746C163.312 86.689 163.197 86.5642 163.119 86.4005C163.046 86.2469 163.033 86.1004 163.079 85.9608C163.115 85.8254 163.217 85.7246 163.386 85.6584C164.225 85.3421 164.98 85.3377 165.651 85.6452C166.318 85.9425 166.82 86.4443 167.155 87.1506C167.928 88.7782 167.191 90.0323 164.943 90.9127L161.588 92.2271L161.836 92.7492C161.972 93.0358 161.845 93.2556 161.454 93.4085Z" fill="#832DF8"/>
<path d="M162.426 79.9831L162.017 80.227C161.803 80.3548 161.573 80.3738 161.327 80.284C161.074 80.185 160.844 79.9933 160.638 79.7086C160.459 79.4608 160.37 79.2118 160.37 78.9619C160.36 78.7178 160.468 78.5289 160.691 78.3954L161.1 78.1515C161.324 78.0179 161.57 78.0023 161.84 78.1046C162.099 78.2127 162.315 78.3861 162.488 78.6249C162.694 78.9095 162.793 79.1722 162.786 79.4129C162.77 79.6595 162.649 79.8495 162.426 79.9831Z" fill="#832DF8"/>
<path d="M97.7498 55.289C98.0994 55.5487 119.975 52.9303 127.936 52.4064C130.277 52.2552 132.569 52.0759 134.919 52.0759C135.371 52.0759 137.019 51.6255 137.323 52.1878C138.046 53.5128 136.357 56.7311 135.889 57.9336C133.665 63.5526 131.122 69.072 128.435 74.5134C127.641 76.1113 126.973 77.744 126.028 79.2649C125.935 79.4101 125.127 80.4281 125.305 80.5898C126.079 81.3009 128.682 80.9222 129.639 80.9222C133.562 80.9222 137.518 80.6624 141.432 81.0324C143.487 81.2195 146.756 81.0918 145.284 83.7942C142.228 89.408 139.743 96.7 134.932 102.763C126.618 113.227 112.856 132.59 110.138 131.285C107.185 129.872 114.287 108.78 115.076 104.795C115.307 103.623 116.004 101.046 115.195 99.9315C114.272 98.6581 108.638 99.3797 107.375 99.3797C102.237 99.3797 96.9698 98.9651 91.8491 98.5987C90.4334 98.4964 87.8957 98.903 86.6745 98.1562C85.8655 97.6612 86.1757 96.2006 86.3124 95.5028C86.8604 92.7304 87.5596 90.035 88.357 87.3257C89.9393 81.9227 90.4931 76.1585 92.3306 70.8578C94.0112 65.969 96.9264 56.9349 97.7498 55.289Z" fill="#FBC604"/>
<defs>
<filter id="filter0_d_7_126" x="25.0629" y="20.1949" width="166.789" height="165.611" filterUnits="userSpaceOnUse" color-interpolation-filters="sRGB">
<feFlood flood-opacity="0" result="BackgroundImageFix"/>
<feColorMatrix in="SourceAlpha" type="matrix" values="0 0 0 0 0 0 0 0 0 0 0 0 0 0 0 0 0 0 127 0" result="hardAlpha"/>
<feOffset dx="3.24139" dy="3.78162"/>
<feComposite in2="hardAlpha" operator="out"/>
<feColorMatrix type="matrix" values="0 0 0 0 0 0 0 0 0 0 0 0 0 0 0 0 0 0 0.85 0"/>
<feBlend mode="normal" in2="BackgroundImageFix" result="effect1_dropShadow_7_126"/>
<feBlend mode="normal" in="SourceGraphic" in2="effect1_dropShadow_7_126" result="shape"/>
</filter>
</defs>
</svg>
