<svg width="344" height="345" viewBox="0 0 344 345" fill="none" xmlns="http://www.w3.org/2000/svg">
<g filter="url(#filter0_d_7_98)">
<path d="M93.6041 168.469C122.216 93.2461 160.837 79.5109 177.519 79.2279C189.106 78.724 223.971 88.9286 237.11 131.191C253.534 184.018 263.628 187.393 238.539 240.634C213.45 293.876 57.8394 262.498 93.6041 168.469Z" fill="#BAE8D7"/>
<path d="M93.6041 168.469C122.216 93.2461 160.837 79.5109 177.519 79.2279C189.106 78.724 223.971 88.9286 237.11 131.191C253.534 184.018 263.628 187.393 238.539 240.634C213.45 293.876 57.8394 262.498 93.6041 168.469Z" stroke="#696969" stroke-width="0.472199"/>
</g>
<path d="M179.731 168.635C175.496 168.261 173.482 166.191 170.798 164.11C165.746 160.196 157.466 159.589 152.283 163.454C149.426 165.581 148.26 168.362 148.068 171.673C147.892 174.725 148.749 177.853 147.149 180.671C145.321 183.888 140.885 185.589 139.899 189.225C139.214 191.761 139.064 194.86 140.589 197.29C141.627 198.943 143.053 200.122 145.231 200.616C148.392 201.332 152.017 200.205 154.325 202.983C154.926 203.707 154.992 204.575 155.217 205.4C156.093 208.6 155.886 214.852 160.729 216.002C168.564 217.866 170.893 207.868 178.462 209.394C184.535 210.618 185.711 217.797 191.104 216.358C194.207 215.53 195.41 212.175 197.514 211.225C199.366 210.388 204.588 213.941 208.407 210.706C211.025 208.483 212.539 204.083 211.571 200.725C210.779 197.974 207.417 195.101 208.734 192.165C209.725 189.959 212.473 188.74 213.414 186.644C213.701 186.005 213.75 185.279 213.738 184.593C213.721 183.531 213.361 182.818 212.637 181.946C211.227 180.248 209.612 179.132 207.3 178.46C204.805 177.735 204.311 176.968 203.121 174.653C201.794 172.072 204.08 168.571 200.644 165.609C198.635 163.877 195.418 161.22 188.454 166.477C186.767 167.902 183.616 168.978 179.731 168.635Z" fill="#FB8CAC"/>
<path d="M161.507 193.5C161.237 193.356 161.46 191.489 161.484 191.283C161.634 190.032 161.694 188.774 161.793 187.519C161.891 186.307 161.975 185.105 162.086 183.893C162.16 183.055 162.208 182.195 162.248 181.356C162.288 180.551 162.28 179.741 162.256 178.935C162.191 176.794 162.273 170.48 158.558 170.902C155.605 171.236 154.349 174.644 153.6 176.946C151.87 182.254 150.198 187.903 150.761 193.58C150.928 195.262 151.106 197.513 152.631 198.603C154.155 199.692 156.261 200.089 158.059 200.436C162.037 201.204 169.062 203.524 171.251 198.747C172.077 196.944 171.951 193.6 169.626 192.857C167.799 192.275 165.94 192.764 164.162 193.089C163.727 193.173 162.764 193.668 161.507 193.5Z" fill="#FBC604"/>
<path fill-rule="evenodd" clip-rule="evenodd" d="M168.642 192.64C168.349 191.516 168.2 190.376 168.218 189.279C168.245 187.74 168.434 186.215 168.624 184.688C168.663 184.375 168.702 184.061 168.739 183.747C169.385 178.348 172.261 170.801 179.005 171.705C179.907 171.826 180.604 172.153 181.372 172.575C182.282 173.079 183.44 173.771 184.171 174.542C185.94 176.405 186.581 179.518 186.893 181.892C187.666 187.802 187.247 196.238 182.407 199.897C178.241 203.046 174.165 201.463 171.459 198.197C172.033 196.334 171.731 193.529 169.626 192.857C169.305 192.755 168.976 192.683 168.642 192.64ZM180.587 184.351C180.624 183.97 180.664 183.589 180.705 183.209C180.852 181.884 180.264 178.255 178.157 178.792C177.421 178.974 176.632 179.26 176.127 179.835C174.283 181.92 173.97 185.785 174.318 188.446C174.459 189.509 174.979 191.441 176.323 191.756C177.643 192.066 178.98 190.978 179.45 189.818C180.235 187.866 180.394 186.281 180.587 184.351Z" fill="#F7F2EC"/>
<path d="M185.243 196.402C185.186 197.837 185.296 199.404 186.318 200.425C187.626 201.731 189.609 202.462 191.316 203.092L191.377 203.114C191.861 203.292 192.389 203.504 192.949 203.728C196.791 205.266 202.116 207.398 204.713 203.616C205.836 201.979 206.278 198.671 204.104 197.562C202.597 196.793 200.929 196.84 199.312 196.884C199.093 196.89 198.875 196.896 198.658 196.9C198.556 196.901 198.429 196.909 198.278 196.919C197.776 196.951 197.006 197 195.962 196.86C195.562 196.552 196.901 192.476 196.982 192.145C197.074 191.773 197.166 191.401 197.261 191.03C197.356 190.659 197.45 190.289 197.544 189.921C197.748 189.118 197.952 188.318 198.165 187.513C198.381 186.703 198.576 185.87 198.757 185.047C198.933 184.262 199.062 183.465 199.173 182.669C199.191 182.544 199.212 182.404 199.234 182.252C199.591 179.841 200.403 174.35 196.879 174.168C193.906 174.014 192.081 177.158 190.95 179.297C189.594 181.856 188.239 184.509 187.192 187.262C187.125 190.456 186.589 193.761 185.243 196.402Z" fill="#FBC604"/>
<path d="M122.419 135.874L131.116 142.668C131.358 142.857 131.349 143.122 131.089 143.461C130.986 143.595 130.869 143.682 130.737 143.722C130.599 143.771 130.471 143.75 130.354 143.658L129.64 143.1C129.874 144.312 129.613 145.409 128.859 146.391C128.351 147.051 127.736 147.478 127.013 147.67C126.289 147.862 125.609 147.709 124.97 147.211C124.575 146.902 124.262 146.485 124.031 145.962C123.802 145.455 123.788 144.922 123.987 144.363C123.2 145.106 122.384 145.504 121.537 145.557C120.684 145.619 119.97 145.426 119.394 144.976C118.505 144.281 117.987 143.419 117.842 142.392C117.697 141.364 118.091 140.243 119.024 139.029C119.826 137.984 120.666 137.219 121.544 136.733C121.443 136.526 121.483 136.307 121.661 136.074C121.915 135.744 122.168 135.677 122.419 135.874ZM122.507 137.528C121.762 137.861 120.968 138.576 120.124 139.674C119.425 140.585 119.091 141.403 119.123 142.128C119.165 142.861 119.459 143.441 120.008 143.869C120.646 144.368 121.332 144.468 122.065 144.169C122.807 143.877 123.521 143.285 124.207 142.392C124.42 142.115 124.716 141.711 125.096 141.179C125.485 140.655 125.741 140.312 125.864 140.151L122.507 137.528ZM126.957 141.004C126.637 141.326 126.309 141.706 125.973 142.143C125.328 142.983 124.998 143.768 124.983 144.499C124.97 145.246 125.197 145.802 125.665 146.167C126.051 146.469 126.438 146.564 126.826 146.453C127.214 146.341 127.572 146.071 127.901 145.643C128.286 145.143 128.525 144.579 128.618 143.952C128.711 143.325 128.598 142.687 128.278 142.036L126.957 141.004Z" fill="#0D9F69"/>
<path d="M113.024 149.438L123.477 155.08C123.748 155.226 123.784 155.489 123.584 155.868C123.506 156.017 123.405 156.123 123.283 156.185C123.155 156.257 123.026 156.258 122.895 156.187L112.442 150.546C112.312 150.476 112.236 150.364 112.213 150.211C112.201 150.063 112.234 149.915 112.312 149.765C112.506 149.396 112.743 149.287 113.024 149.438Z" fill="#0D9F69"/>
<path d="M113.544 156.262C114.469 156.58 115.186 157.094 115.695 157.805C116.212 158.531 116.508 159.289 116.584 160.079C116.657 160.88 116.569 161.661 116.319 162.423C115.968 163.496 115.236 164.343 114.122 164.964C113.017 165.599 111.845 165.705 110.608 165.281C109.435 164.879 108.56 164.132 107.985 163.04C107.42 161.951 107.35 160.757 107.775 159.459C108.193 158.182 108.966 157.23 110.093 156.602C111.231 155.977 112.382 155.864 113.544 156.262ZM113.138 157.448C112.373 157.186 111.56 157.295 110.696 157.775C109.844 158.259 109.266 158.962 108.964 159.885C108.679 160.754 108.754 161.603 109.189 162.432C109.62 163.272 110.223 163.824 110.998 164.09C111.751 164.348 112.552 164.294 113.402 163.929C114.252 163.564 114.83 162.915 115.135 161.981C115.494 160.887 115.44 159.919 114.973 159.079C114.503 158.25 113.891 157.706 113.138 157.448Z" fill="#0D9F69"/>
<path d="M109.12 170.838C110.09 170.933 110.904 171.269 111.561 171.846C112.228 172.435 112.69 173.106 112.945 173.86C113.199 174.624 113.292 175.407 113.225 176.208C113.129 177.337 112.613 178.333 111.675 179.196C110.748 180.072 109.635 180.446 108.337 180.318C107.107 180.197 106.087 179.67 105.278 178.737C104.481 177.805 104.139 176.656 104.255 175.291C104.368 173.948 104.899 172.84 105.849 171.966C106.811 171.094 107.901 170.718 109.12 170.838ZM108.997 172.088C108.196 172.01 107.431 172.304 106.703 172.972C105.987 173.641 105.588 174.461 105.506 175.431C105.429 176.345 105.696 177.157 106.308 177.865C106.919 178.585 107.63 178.985 108.443 179.065C109.233 179.143 109.998 178.906 110.739 178.353C111.48 177.8 111.892 177.033 111.975 176.051C112.072 174.9 111.797 173.969 111.152 173.256C110.505 172.556 109.787 172.166 108.997 172.088Z" fill="#0D9F69"/>
<path d="M100.288 187.55L111.959 185.911C112.105 185.891 112.226 185.937 112.323 186.049C112.432 186.16 112.499 186.3 112.524 186.469C112.587 186.884 112.462 187.114 112.149 187.158L110.318 187.415C112.104 188.254 113.156 189.718 113.473 191.807C113.618 192.762 113.422 193.615 112.885 194.367C112.361 195.129 111.673 195.57 110.822 195.689C109.826 195.829 108.866 195.683 107.943 195.25C107.03 194.816 106.277 194.188 105.683 193.365C105.091 192.553 104.722 191.665 104.575 190.699C104.433 189.767 104.618 188.915 105.129 188.143L100.478 188.796C100.175 188.839 99.9918 188.646 99.9269 188.22C99.9013 188.051 99.9183 187.9 99.9778 187.765C100.039 187.642 100.143 187.57 100.288 187.55ZM107.528 187.789C106.845 187.885 106.371 188.227 106.106 188.815C105.843 189.414 105.752 189.983 105.834 190.522C105.933 191.173 106.191 191.814 106.607 192.444C107.023 193.074 107.574 193.581 108.262 193.967C108.962 194.362 109.682 194.507 110.421 194.403C111.182 194.297 111.694 193.978 111.956 193.448C112.22 192.929 112.301 192.333 112.199 191.659C112.103 191.03 111.789 190.392 111.256 189.744C110.736 189.106 110.121 188.601 109.413 188.23C108.716 187.858 108.088 187.711 107.528 187.789Z" fill="#0D9F69"/>
<path d="M110.719 211.085L117.561 207.958C117.838 207.831 118.067 207.965 118.249 208.357C118.321 208.513 118.345 208.658 118.321 208.794C118.302 208.941 118.226 209.045 118.093 209.106L111.251 212.233C111.118 212.294 110.984 212.286 110.849 212.21C110.725 212.129 110.626 212.011 110.555 211.856C110.377 211.474 110.432 211.217 110.719 211.085ZM119.944 206.868L120.221 206.742C120.498 206.615 120.727 206.749 120.909 207.142C120.981 207.297 121.005 207.442 120.981 207.578C120.962 207.725 120.886 207.829 120.753 207.89L120.476 208.016C120.343 208.077 120.209 208.069 120.074 207.993C119.949 207.912 119.851 207.794 119.779 207.639C119.602 207.257 119.657 207 119.944 206.868Z" fill="#0D9F69"/>
<path d="M119.626 212.825C119.768 212.734 119.913 212.689 120.061 212.69C120.214 212.7 120.331 212.768 120.411 212.892L120.724 213.383L122.476 212.266C122.599 212.187 122.725 212.175 122.853 212.228C122.987 212.292 123.1 212.395 123.192 212.54C123.426 212.905 123.414 213.169 123.158 213.332L121.406 214.449L122.881 216.755C122.96 216.88 122.97 217.01 122.908 217.143C122.856 217.271 122.759 217.381 122.617 217.471C122.256 217.701 121.992 217.687 121.827 217.427L120.352 215.121L116.948 217.291C115.885 217.969 115.614 218.716 116.136 219.533C116.358 219.879 116.643 220.116 116.993 220.245C117.348 220.383 117.764 220.301 118.238 219.999C118.371 219.914 118.514 219.897 118.667 219.948C118.827 220.009 118.955 220.116 119.054 220.27C119.146 220.414 119.18 220.562 119.156 220.712C119.141 220.857 119.058 220.977 118.906 221.074C118.15 221.543 117.428 221.678 116.74 221.481C116.059 221.293 115.506 220.868 115.083 220.205C114.106 218.677 114.629 217.268 116.651 215.979L119.67 214.054L119.357 213.564C119.185 213.295 119.275 213.049 119.626 212.825Z" fill="#0D9F69"/>
<path d="M120.993 227.02L121.349 226.708C121.535 226.545 121.751 226.493 121.995 226.552C122.248 226.619 122.49 226.786 122.722 227.053C122.925 227.285 123.042 227.531 123.074 227.791C123.115 228.044 123.038 228.255 122.843 228.426L122.487 228.737C122.292 228.907 122.061 228.959 121.792 228.89C121.532 228.814 121.305 228.665 121.11 228.441C120.878 228.174 120.75 227.915 120.725 227.663C120.709 227.405 120.798 227.19 120.993 227.02Z" fill="#0D9F69"/>
<path d="M132.78 239.054L138.513 229.784C138.673 229.525 138.936 229.511 139.302 229.743C139.447 229.834 139.546 229.944 139.601 230.072C139.666 230.206 139.659 230.336 139.582 230.46L136.64 235.217L144.945 233.492C145.085 233.461 145.208 233.478 145.314 233.545C145.458 233.637 145.552 233.789 145.594 234.003C145.652 234.212 145.637 234.389 145.548 234.533C145.488 234.629 145.404 234.689 145.295 234.713L139.284 235.949L141.049 243.824C141.064 243.886 141.041 243.966 140.982 244.061C140.899 244.196 140.75 244.274 140.534 244.298C140.325 244.312 140.143 244.27 139.988 244.173C139.892 244.112 139.822 243.987 139.777 243.799L138.018 236.208L135.734 236.683L133.85 239.73C133.773 239.855 133.657 239.922 133.504 239.931C133.357 239.931 133.211 239.886 133.066 239.794C132.71 239.569 132.614 239.322 132.78 239.054Z" fill="#0D9F69"/>
<path d="M146.497 247.206L148.819 240C148.864 239.86 148.952 239.771 149.084 239.732C149.227 239.697 149.379 239.707 149.541 239.761C149.95 239.899 150.109 240.113 150.015 240.404L149.605 241.677C150.331 241.278 151.13 241.042 152.002 240.966C152.878 240.881 153.71 240.97 154.497 241.236C155.51 241.577 156.254 242.179 156.729 243.043C157.218 243.898 157.299 244.832 156.974 245.842C156.943 245.939 156.778 246.431 156.48 247.32C156.196 248.201 155.885 249.168 155.545 250.221C155.5 250.361 155.405 250.454 155.258 250.5C155.116 250.535 154.963 250.526 154.802 250.471C154.403 250.337 154.252 250.119 154.349 249.818L155.715 245.578C155.96 244.815 155.874 244.137 155.456 243.543C155.049 242.953 154.554 242.56 153.972 242.363C153.185 242.098 152.292 242.089 151.293 242.336C150.307 242.575 149.525 243.038 148.945 243.725L147.694 247.61C147.6 247.9 147.349 247.976 146.939 247.838C146.778 247.783 146.65 247.699 146.555 247.583C146.472 247.472 146.452 247.346 146.497 247.206Z" fill="#0D9F69"/>
<path d="M162.977 248.357C163.046 247.386 163.36 246.571 163.918 245.914C164.488 245.246 165.146 244.785 165.892 244.53C166.648 244.277 167.428 244.184 168.23 244.252C169.36 244.348 170.369 244.866 171.257 245.806C172.157 246.735 172.561 247.849 172.469 249.148C172.381 250.38 171.882 251.4 170.972 252.209C170.063 253.007 168.925 253.347 167.558 253.231C166.213 253.117 165.092 252.584 164.193 251.632C163.296 250.669 162.89 249.577 162.977 248.357ZM164.23 248.481C164.173 249.283 164.488 250.049 165.175 250.778C165.863 251.496 166.692 251.896 167.664 251.978C168.579 252.056 169.383 251.789 170.074 251.178C170.777 250.567 171.157 249.855 171.215 249.041C171.271 248.25 171.013 247.484 170.44 246.742C169.868 246 169.09 245.587 168.107 245.503C166.955 245.405 166.032 245.679 165.338 246.325C164.655 246.971 164.286 247.69 164.23 248.481Z" fill="#0D9F69"/>
<path d="M177.027 246.029C176.997 245.873 177.058 245.717 177.212 245.562C177.377 245.404 177.537 245.311 177.693 245.282C177.871 245.25 178.02 245.309 178.142 245.46L182.085 251.061L183.257 245.125C183.27 245.076 183.287 244.986 183.308 244.855C183.328 244.724 183.345 244.635 183.359 244.586C183.372 244.537 183.389 244.476 183.41 244.403C183.441 244.328 183.482 244.274 183.533 244.242C183.585 244.209 183.644 244.187 183.71 244.175C183.777 244.162 183.842 244.173 183.907 244.208C183.982 244.24 184.05 244.291 184.109 244.361C184.18 244.429 184.233 244.494 184.268 244.557C184.315 244.618 184.363 244.69 184.414 244.773C184.463 244.845 184.488 244.886 184.49 244.898L187.902 249.99L189.143 243.434C189.199 243.251 189.316 243.142 189.494 243.11C189.661 243.079 189.841 243.115 190.033 243.218C190.235 243.308 190.35 243.426 190.379 243.571C190.389 243.627 190.385 243.691 190.364 243.764L188.863 251.287C188.831 251.477 188.76 251.641 188.648 251.777C188.534 251.902 188.416 251.976 188.294 251.998C188.038 252.045 187.778 251.891 187.513 251.535L184.279 246.999L183.046 252.358C183.001 252.539 182.922 252.698 182.811 252.834C182.71 252.968 182.599 253.047 182.477 253.069C182.21 253.118 181.944 252.965 181.679 252.609L177.113 246.204C177.067 246.143 177.038 246.085 177.027 246.029Z" fill="#0D9F69"/>
<path d="M206.561 245.013L202.884 238.35C202.736 238.08 202.849 237.843 203.224 237.637C203.373 237.556 203.515 237.523 203.653 237.539C203.8 237.549 203.909 237.619 203.981 237.749L207.657 244.412C207.729 244.542 207.732 244.677 207.668 244.816C207.598 244.945 207.489 245.051 207.34 245.132C206.975 245.332 206.715 245.292 206.561 245.013ZM201.604 236.029L201.455 235.759C201.306 235.49 201.42 235.252 201.795 235.047C201.943 234.965 202.086 234.933 202.224 234.948C202.371 234.959 202.48 235.029 202.552 235.159L202.7 235.428C202.772 235.558 202.776 235.693 202.711 235.832C202.641 235.961 202.532 236.067 202.383 236.148C202.018 236.348 201.758 236.308 201.604 236.029Z" fill="#0D9F69"/>
<path d="M207.543 236.006C207.441 235.869 207.384 235.726 207.372 235.578C207.37 235.424 207.427 235.303 207.545 235.215L208.005 234.873L206.75 233.183C206.661 233.064 206.638 232.939 206.681 232.808C206.733 232.67 206.826 232.55 206.962 232.45C207.305 232.194 207.568 232.19 207.752 232.437L209.007 234.127L211.175 232.514C211.292 232.426 211.42 232.41 211.558 232.463C211.689 232.508 211.806 232.599 211.908 232.736C212.166 233.084 212.174 233.349 211.93 233.53L209.763 235.143L212.202 238.426C212.964 239.451 213.729 239.678 214.497 239.107C214.822 238.865 215.034 238.565 215.133 238.207C215.24 237.843 215.124 237.432 214.784 236.974C214.688 236.846 214.66 236.703 214.698 236.547C214.745 236.384 214.841 236.249 214.985 236.141C215.121 236.04 215.264 235.998 215.416 236.013C215.561 236.019 215.687 236.095 215.796 236.242C216.325 236.972 216.52 237.687 216.381 238.387C216.252 239.081 215.875 239.66 215.252 240.124C213.816 241.192 212.374 240.751 210.924 238.801L208.76 235.889L208.3 236.232C208.047 236.42 207.795 236.345 207.543 236.006Z" fill="#0D9F69"/>
<path d="M221.525 233.822L221.186 233.484C221.009 233.306 220.938 233.093 220.976 232.844C221.021 232.588 221.167 232.335 221.412 232.087C221.625 231.871 221.86 231.739 222.115 231.692C222.363 231.636 222.579 231.702 222.765 231.887L223.104 232.225C223.29 232.411 223.36 232.64 223.315 232.913C223.261 233.178 223.132 233.414 222.926 233.622C222.681 233.871 222.435 234.014 222.187 234.054C221.932 234.085 221.711 234.008 221.525 233.822Z" fill="#0D9F69"/>
<path d="M227.508 219.196C225.966 218.383 224.9 217.279 224.309 215.885C223.723 214.48 223.733 213.186 224.34 212.002C224.947 210.818 225.987 210.099 227.462 209.844C228.932 209.574 230.397 209.824 231.858 210.594C233.471 211.445 234.565 212.531 235.142 213.854C235.713 215.162 235.69 216.431 235.073 217.66C234.467 218.844 233.444 219.604 232.004 219.941C230.569 220.268 229.07 220.019 227.508 219.196ZM228.094 218.09C229.243 218.696 230.393 218.901 231.543 218.704C232.698 218.498 233.502 217.953 233.955 217.07C234.402 216.198 234.367 215.242 233.849 214.205C233.321 213.162 232.477 212.335 231.318 211.724C230.209 211.14 229.065 210.925 227.885 211.08C226.709 211.225 225.901 211.729 225.459 212.592C225.006 213.474 225.054 214.468 225.602 215.572C226.155 216.667 226.985 217.506 228.094 218.09Z" fill="#0D9F69"/>
<path d="M232.568 205.184C232.412 205.15 232.291 205.031 232.205 204.828C232.121 204.613 232.094 204.428 232.126 204.273C232.161 204.095 232.271 203.98 232.456 203.928L239.086 202.497L234.042 199.065C234.003 199.034 233.926 198.982 233.813 198.912C233.7 198.841 233.623 198.79 233.583 198.758C233.543 198.726 233.493 198.686 233.433 198.639C233.375 198.58 233.341 198.521 233.33 198.46C233.319 198.4 233.32 198.337 233.334 198.27C233.347 198.204 233.381 198.148 233.437 198.102C233.495 198.045 233.567 198.003 233.654 197.975C233.743 197.936 233.822 197.913 233.894 197.905C233.967 197.887 234.051 197.87 234.147 197.856C234.231 197.84 234.279 197.833 234.29 197.835L240.254 196.694L234.664 192.954C234.516 192.829 234.459 192.678 234.495 192.501C234.528 192.334 234.628 192.182 234.795 192.045C234.953 191.894 235.104 191.834 235.248 191.865C235.304 191.877 235.361 191.907 235.421 191.955L241.807 196.319C241.971 196.423 242.096 196.554 242.18 196.711C242.253 196.866 242.277 197.004 242.253 197.126C242.201 197.381 241.962 197.561 241.536 197.665L236.151 198.862L240.639 202.121C240.79 202.235 240.908 202.37 240.992 202.527C241.078 202.673 241.109 202.807 241.085 202.929C241.031 203.195 240.791 203.38 240.365 203.485L232.761 205.173C232.688 205.192 232.623 205.196 232.568 205.184Z" fill="#0D9F69"/>
<path d="M243.258 185.585L235.685 186.052C235.538 186.061 235.421 186.012 235.334 185.903C235.245 185.784 235.195 185.639 235.182 185.469C235.15 185.039 235.287 184.815 235.592 184.796L236.93 184.713C236.278 184.185 235.747 183.53 235.337 182.748C234.916 181.967 234.674 181.163 234.613 180.337C234.534 179.273 234.801 178.364 235.414 177.61C236.015 176.845 236.847 176.43 237.909 176.365C238.01 176.358 238.53 176.332 239.469 176.285C240.395 176.228 241.411 176.165 242.518 176.097C242.665 176.088 242.788 176.143 242.888 176.262C242.976 176.381 243.027 176.526 243.039 176.696C243.071 177.115 242.928 177.334 242.612 177.353L238.156 177.628C237.354 177.678 236.76 178.004 236.374 178.608C235.986 179.201 235.816 179.802 235.861 180.413C235.923 181.24 236.262 182.071 236.881 182.909C237.487 183.735 238.221 184.293 239.082 184.581L243.165 184.328C243.47 184.31 243.638 184.515 243.67 184.945C243.683 185.115 243.654 185.265 243.585 185.394C243.514 185.512 243.405 185.576 243.258 185.585Z" fill="#0D9F69"/>
<path d="M238.755 160.504L231.696 163.118C231.411 163.224 231.192 163.075 231.038 162.67C230.978 162.51 230.965 162.363 230.998 162.229C231.028 162.085 231.112 161.987 231.249 161.936L238.308 159.321C238.446 159.271 238.579 159.288 238.708 159.374C238.826 159.464 238.915 159.588 238.976 159.748C239.125 160.142 239.052 160.394 238.755 160.504ZM229.238 164.029L228.952 164.135C228.667 164.241 228.447 164.091 228.294 163.686C228.234 163.527 228.22 163.38 228.254 163.246C228.284 163.101 228.367 163.004 228.505 162.953L228.79 162.847C228.928 162.796 229.061 162.813 229.19 162.899C229.308 162.989 229.398 163.114 229.458 163.274C229.607 163.668 229.534 163.919 229.238 164.029Z" fill="#0D9F69"/>
<path d="M229.989 158.117C229.841 158.197 229.693 158.231 229.545 158.22C229.393 158.198 229.281 158.123 229.211 157.992L228.934 157.481L227.103 158.465C226.974 158.535 226.848 158.538 226.724 158.475C226.595 158.402 226.489 158.291 226.408 158.14C226.201 157.76 226.232 157.497 226.5 157.353L228.33 156.369L227.026 153.963C226.956 153.833 226.956 153.703 227.027 153.575C227.088 153.451 227.193 153.349 227.342 153.269C227.719 153.067 227.981 153.101 228.128 153.371L229.432 155.777L232.988 153.864C234.1 153.266 234.424 152.542 233.962 151.69C233.767 151.329 233.499 151.072 233.159 150.918C232.814 150.754 232.394 150.805 231.898 151.072C231.759 151.147 231.615 151.153 231.466 151.091C231.311 151.018 231.191 150.902 231.104 150.742C231.022 150.591 230.999 150.442 231.034 150.294C231.059 150.151 231.151 150.037 231.309 149.952C232.099 149.54 232.829 149.458 233.501 149.705C234.168 149.942 234.689 150.406 235.064 151.098C235.928 152.691 235.303 154.056 233.19 155.192L230.035 156.889L230.312 157.4C230.464 157.681 230.357 157.92 229.989 158.117Z" fill="#0D9F69"/>
<path d="M229.658 143.872L229.28 144.156C229.082 144.305 228.863 144.342 228.623 144.265C228.376 144.18 228.146 143.996 227.934 143.713C227.749 143.467 227.65 143.213 227.637 142.952C227.614 142.697 227.707 142.492 227.914 142.336L228.292 142.052C228.498 141.897 228.733 141.863 228.996 141.95C229.25 142.045 229.466 142.211 229.644 142.448C229.857 142.731 229.966 142.998 229.972 143.25C229.97 143.509 229.865 143.717 229.658 143.872Z" fill="#0D9F69"/>
<defs>
<filter id="filter0_d_7_98" x="88.0557" y="78.9742" width="169.104" height="191.532" filterUnits="userSpaceOnUse" color-interpolation-filters="sRGB">
<feFlood flood-opacity="0" result="BackgroundImageFix"/>
<feColorMatrix in="SourceAlpha" type="matrix" values="0 0 0 0 0 0 0 0 0 0 0 0 0 0 0 0 0 0 127 0" result="hardAlpha"/>
<feOffset dx="3.24139" dy="3.78162"/>
<feComposite in2="hardAlpha" operator="out"/>
<feColorMatrix type="matrix" values="0 0 0 0 0 0 0 0 0 0 0 0 0 0 0 0 0 0 0.85 0"/>
<feBlend mode="normal" in2="BackgroundImageFix" result="effect1_dropShadow_7_98"/>
<feBlend mode="normal" in="SourceGraphic" in2="effect1_dropShadow_7_98" result="shape"/>
</filter>
</defs>
</svg>
