<svg width="196" height="200" viewBox="0 0 196 200" fill="none" xmlns="http://www.w3.org/2000/svg">
<g filter="url(#filter0_d_7_97)">
<path d="M31.2419 160.455C-0.623823 96.7984 17.6505 53.1327 30.7709 39.2569C48.4269 17.644 54.9142 25.2686 80.8807 16.1529C106.847 7.0371 162.389 18.9344 165.85 38.5635C169.311 58.1926 184.887 74.8348 180.448 121.354C176.008 167.873 63.1077 224.112 31.2419 160.455Z" fill="#FEE6DE"/>
<path d="M31.2419 160.455C-0.623823 96.7984 17.6505 53.1327 30.7709 39.2569C48.4269 17.644 54.9142 25.2686 80.8807 16.1529C106.847 7.0371 162.389 18.9344 165.85 38.5635C169.311 58.1926 184.887 74.8348 180.448 121.354C176.008 167.873 63.1077 224.112 31.2419 160.455Z" stroke="#696969" stroke-width="0.472199"/>
</g>
<path d="M92.9629 53.8837C89.1983 54.5996 86.8376 56.3094 84.9722 58.5028C78.2774 66.4132 82.1582 78.2579 82.7672 87.5215C82.8838 89.0539 82.9869 90.7961 82.4223 92.2413C81.0705 95.8971 73.3361 97.7222 73.8851 100.836C75.4098 103.079 83.7702 99.8855 86.3685 104.749C89.7301 111.041 90.1244 118.79 93.1157 125.303C94.6792 128.652 97.4106 131.949 101.111 132.902C102.991 133.398 104.898 133.477 106.78 133.403C108.562 133.349 110.633 133.19 112.309 132.533C119.97 129.525 123.89 121.844 124.322 113.847C124.549 109.614 124.283 105.207 123.698 101.014C123.182 97.2214 122.574 93.1867 121.472 89.5497C118.688 80.1526 116.361 70.7262 110.781 62.5977C107.872 58.2962 103.923 54.4879 98.5292 54.0925C96.3644 54.0084 95.3379 53.4129 92.9638 53.8836L92.9629 53.8837Z" fill="#2953A7"/>
<path d="M99.8947 69.3478C96.4418 69.6643 95.7017 70.9129 94.9439 72.0661C93.6748 74.137 94.4125 77.5057 96.8911 78.4782C98.4854 79.0714 100.111 79.0277 101.772 78.638C106.197 77.5655 105.283 69.6601 99.8937 69.347L99.8947 69.3478Z" fill="#F7F2EC"/>
<path d="M103.85 86.4962C100.398 86.8126 99.6569 88.0614 98.8992 89.2154C97.63 91.2854 98.3677 94.6542 100.846 95.6267C102.441 96.2196 104.067 96.176 105.728 95.7862C110.152 94.7139 109.192 86.8167 103.85 86.4962Z" fill="#F7F2EC"/>
<path d="M106.902 103.804C103.45 104.121 102.709 105.37 101.951 106.524C100.682 108.594 101.419 111.962 103.898 112.934C105.493 113.528 107.119 113.484 108.78 113.094C113.204 112.022 112.244 104.125 106.902 103.804Z" fill="#F7F2EC"/>
<path d="M92.9629 53.8837C89.1983 54.5996 86.8376 56.3094 84.9722 58.5028C78.2774 66.4132 82.1582 78.2579 82.7672 87.5215C82.8838 89.0539 82.9869 90.7961 82.4223 92.2412C81.0705 95.8971 73.3361 97.7222 73.8851 100.836C75.4098 103.079 83.7702 99.8855 86.3685 104.749C89.7301 111.041 90.1244 118.79 93.1157 125.303C94.6792 128.652 97.4106 131.949 101.111 132.902C102.991 133.398 104.898 133.477 106.78 133.403C108.562 133.349 110.633 133.19 112.309 132.533C119.97 129.525 123.89 121.844 124.322 113.847C124.549 109.614 124.283 105.207 123.698 101.014C123.182 97.2214 122.574 93.1867 121.472 89.5497C118.688 80.1526 116.361 70.7262 110.781 62.5977C107.872 58.2962 103.923 54.4879 98.5292 54.0925C96.3644 54.0084 95.3379 53.4129 92.9638 53.8836L92.9629 53.8837Z" stroke="#7B6661" stroke-width="0.289228" stroke-miterlimit="2.854" stroke-linecap="round" stroke-linejoin="round"/>
<path d="M99.8947 69.3478C96.4418 69.6643 95.7017 70.9129 94.9439 72.0661C93.6748 74.137 94.4125 77.5057 96.8911 78.4782C98.4854 79.0714 100.111 79.0277 101.772 78.638C106.197 77.5655 105.283 69.6601 99.8937 69.347L99.8947 69.3478Z" stroke="#7B6661" stroke-width="0.289228" stroke-miterlimit="1.915" stroke-linecap="round" stroke-linejoin="round"/>
<path d="M103.85 86.4962C100.398 86.8126 99.6569 88.0614 98.8992 89.2154C97.63 91.2854 98.3677 94.6542 100.846 95.6267C102.441 96.2196 104.067 96.176 105.728 95.7862C110.152 94.7139 109.192 86.8167 103.85 86.4962Z" stroke="#7B6661" stroke-width="0.289228" stroke-miterlimit="1.915" stroke-linecap="round" stroke-linejoin="round"/>
<path d="M106.902 103.804C103.45 104.121 102.709 105.37 101.951 106.524C100.682 108.594 101.419 111.962 103.898 112.934C105.493 113.528 107.119 113.484 108.78 113.094C113.204 112.022 112.244 104.125 106.902 103.804Z" stroke="#7B6661" stroke-width="0.289228" stroke-miterlimit="1.915" stroke-linecap="round" stroke-linejoin="round"/>
<path d="M53.8235 161.226C52.684 162.533 51.2728 163.203 49.59 163.236C47.8913 163.271 46.4074 162.722 45.1383 161.591C44.3769 160.913 43.9013 160.018 43.7116 158.908C43.6961 158.788 43.7292 158.681 43.8112 158.587C43.9303 158.45 44.097 158.371 44.3113 158.35C44.5181 158.337 44.6807 158.383 44.7991 158.489C44.8838 158.564 44.9296 158.658 44.9367 158.77C45.03 159.491 45.3812 160.123 45.9904 160.666C47.0987 161.654 48.3162 162.094 49.643 161.986C50.9539 161.879 52.0264 161.347 52.8605 160.391C53.717 159.408 54.1345 158.24 54.113 156.885C54.0916 155.53 53.5098 154.343 52.3676 153.325C51.6231 152.662 50.7836 152.392 49.8491 152.515C49.6741 152.526 49.5528 152.502 49.4851 152.441C49.3582 152.328 49.2914 152.155 49.2846 151.921C49.2779 151.687 49.3267 151.511 49.4309 151.391C49.498 151.314 49.5871 151.272 49.6985 151.265C51.0053 151.094 52.1494 151.446 53.1308 152.321C54.1038 153.188 54.7646 154.172 55.1134 155.272C55.4548 156.38 55.5057 157.443 55.2663 158.459C55.0194 159.484 54.5384 160.406 53.8235 161.226Z" fill="#FF5016"/>
<path d="M44.7238 144.676L34.8995 151.33C34.7775 151.413 34.6522 151.429 34.5238 151.379C34.3891 151.32 34.2746 151.219 34.1805 151.078C33.9419 150.719 33.9493 150.454 34.2027 150.283L38.8756 147.118C38.0801 146.986 37.3187 146.68 36.5916 146.201C35.8644 145.722 35.2686 145.133 34.8041 144.435C34.2077 143.538 33.9746 142.615 34.1046 141.665C34.2252 140.721 34.7219 139.953 35.5945 139.362C35.679 139.305 36.1137 139.017 36.8988 138.499C37.6683 137.978 38.5128 137.406 39.4323 136.784C39.5543 136.701 39.6874 136.686 39.8315 136.739C39.9662 136.798 40.0806 136.899 40.1748 137.04C40.4071 137.39 40.3918 137.653 40.1291 137.831L36.4274 140.338C35.9676 140.649 35.6707 141.042 35.5368 141.516C35.3873 141.987 35.3598 142.416 35.4543 142.804C35.5489 143.191 35.7029 143.545 35.9163 143.866C36.3808 144.565 37.0705 145.131 37.9855 145.565C38.8942 145.99 39.7773 146.11 40.635 145.926L44.027 143.629C44.2804 143.457 44.5263 143.551 44.7649 143.909C44.859 144.051 44.9078 144.196 44.9111 144.344C44.9082 144.483 44.8458 144.594 44.7238 144.676Z" fill="#FF5016"/>
<path d="M32.9517 130.408C31.5179 130.908 30.088 130.777 28.6619 130.015C27.2359 129.252 26.2771 128.158 25.7854 126.733C25.4491 125.759 25.5317 124.8 26.0335 123.856C26.5352 122.913 27.2568 122.277 28.1984 121.948L32.409 120.497C32.5481 120.448 32.6845 120.479 32.8182 120.588C32.9374 120.691 33.0248 120.822 33.0802 120.983C33.2022 121.336 33.1134 121.566 32.8138 121.67L30.1014 122.617C31.5243 123.092 32.624 123.639 33.4004 124.256C34.1731 124.863 34.7037 125.584 34.992 126.419C35.2582 127.191 35.1826 127.979 34.7653 128.785C34.3373 129.594 33.7328 130.136 32.9517 130.408ZM32.5846 129.24C33.1945 129.027 33.586 128.65 33.7591 128.11C33.9215 127.573 33.9196 127.064 33.7532 126.582C33.561 126.024 33.0682 125.482 32.2749 124.955C31.4708 124.431 30.6504 124.051 29.8137 123.815C28.9625 123.572 28.3444 123.518 27.9592 123.652C27.6382 123.764 27.3879 123.96 27.2083 124.238C27.0144 124.51 26.9066 124.806 26.885 125.125C26.8597 125.434 26.8591 125.711 26.8833 125.954C26.8967 126.202 26.9293 126.4 26.981 126.55C27.3433 127.6 28.0949 128.406 29.2359 128.968C30.3663 129.534 31.4825 129.625 32.5846 129.24Z" fill="#FF5016"/>
<path d="M23.128 113.844C22.9592 113.864 22.8082 113.842 22.6751 113.777C22.5407 113.701 22.465 113.59 22.4478 113.444L22.3805 112.87L20.3035 113.111C20.1572 113.128 20.038 113.085 19.946 112.981C19.8527 112.867 19.7961 112.725 19.7763 112.556C19.7262 112.128 19.8531 111.897 20.157 111.862L22.234 111.621L21.9172 108.919C21.9 108.773 21.9488 108.653 22.0634 108.56C22.1667 108.468 22.3028 108.413 22.4716 108.393C22.8994 108.343 23.1311 108.471 23.1668 108.774L23.4836 111.476L27.5193 111.008C28.7801 110.862 29.3545 110.31 29.2423 109.354C29.1947 108.948 29.0413 108.612 28.7818 108.346C28.521 108.068 28.1092 107.962 27.5463 108.027C27.3887 108.045 27.252 107.998 27.1362 107.886C27.019 107.763 26.9499 107.611 26.9287 107.431C26.9089 107.262 26.9431 107.116 27.0312 106.992C27.1081 106.869 27.2366 106.797 27.4167 106.776C28.3073 106.684 29.0201 106.875 29.5549 107.349C30.0885 107.812 30.4008 108.432 30.4918 109.209C30.7017 110.998 29.6077 112.032 27.2099 112.31L23.6301 112.725L23.6974 113.299C23.7343 113.614 23.5446 113.796 23.128 113.844Z" fill="#FF5016"/>
<path d="M28.1432 99.9736C27.9965 99.9602 27.8438 99.8835 27.6853 99.7438C27.5277 99.5928 27.4336 99.4305 27.403 99.257C27.4099 99.1779 27.4245 99.1395 27.4471 99.1415C27.8732 98.8165 28.2283 98.3256 28.5124 97.6689C28.7852 97.0111 28.9551 96.4919 29.022 96.1111C29.0899 95.719 29.1385 95.3536 29.1677 95.0149C29.2942 93.547 28.9116 92.7722 28.0201 92.6903C27.7154 92.6623 27.463 92.753 27.263 92.9622C27.0527 93.1591 26.8971 93.4464 26.7963 93.8241C26.6965 94.1905 26.6188 94.5646 26.5631 94.9464C26.5075 95.3282 26.4545 95.7444 26.4043 96.195C26.3428 96.6446 26.2793 96.9858 26.2137 97.2188C26.0341 97.851 25.7254 98.3973 25.2876 98.8579C24.8386 99.3174 24.3432 99.5222 23.8015 99.4725C22.9438 99.3937 22.3262 98.9045 21.9488 98.005C21.561 97.0931 21.4118 96.1178 21.5014 95.079C21.5617 94.3789 21.7505 93.6395 22.0679 92.8606C22.374 92.0808 22.7979 91.5165 23.3398 91.168C23.3634 91.1588 23.3921 91.1557 23.4259 91.1588C23.5726 91.1723 23.7417 91.2561 23.9332 91.4103C24.1134 91.5634 24.1981 91.702 24.1874 91.8262C24.1777 91.9391 24.0776 92.0438 23.8874 92.1401C23.2651 92.6292 22.8844 93.681 22.7453 95.2956C22.6879 95.9618 22.7462 96.6045 22.9204 97.2236C23.0945 97.8428 23.4016 98.1725 23.8418 98.213C24.2142 98.2472 24.5187 98.0134 24.7553 97.5116C24.9806 97.0088 25.1186 96.4639 25.1692 95.8767C25.2052 95.459 25.241 95.1095 25.2766 94.8282C25.3122 94.547 25.3757 94.2057 25.4672 93.8044C25.5473 93.4021 25.6612 93.0712 25.8087 92.8116C25.9449 92.551 26.1201 92.2996 26.3343 92.0575C26.5373 91.8144 26.8021 91.6453 27.1288 91.5501C27.4451 91.4426 27.8121 91.408 28.2297 91.4464C28.8052 91.4992 29.2749 91.7244 29.6388 92.122C29.9923 92.5073 30.2225 92.9381 30.3293 93.4145C30.4484 93.8807 30.486 94.3678 30.4422 94.8759C30.2369 97.2583 29.5812 98.9278 28.475 99.8846C28.3892 99.9564 28.2786 99.9861 28.1432 99.9736Z" fill="#FF5016"/>
<path d="M31.1428 75.1339C29.7792 74.4654 28.8601 73.3522 28.3855 71.7944C27.9109 70.2365 27.9982 68.7774 28.6473 67.4171C29.0523 66.5682 29.7064 65.9738 30.6093 65.634L30.2582 65.4619C29.9835 65.3272 29.9389 65.0655 30.1243 64.6768C30.1975 64.5234 30.2941 64.413 30.4142 64.3457C30.5391 64.2681 30.6677 64.2617 30.8 64.3266L38.1112 67.9109C39.3018 68.4946 40.0474 69.3397 40.3481 70.4463C40.659 71.5578 40.5679 72.6301 40.075 73.6632C39.6846 74.4814 39.2152 75.0969 38.6667 75.5095C38.1182 75.9221 37.5108 75.9714 36.8445 75.6574C36.6817 75.5776 36.5789 75.4641 36.5362 75.3169C36.5036 75.1747 36.5239 75.0269 36.5971 74.8735C36.6751 74.7098 36.7868 74.5942 36.9321 74.5266C37.0822 74.4488 37.2285 74.4448 37.371 74.5146C37.544 74.5994 37.7033 74.6207 37.849 74.5786C38.0097 74.5312 38.1617 74.41 38.3049 74.2152C38.4481 74.0204 38.5614 73.8487 38.6448 73.7003C38.733 73.5416 38.8455 73.3191 38.9821 73.0327C39.3286 72.3065 39.4076 71.5754 39.2189 70.8392C39.0351 70.0928 38.5209 69.5126 37.6764 69.0986L34.5778 67.5795C35.251 68.9318 35.6461 70.1036 35.7632 71.095C35.8852 72.0761 35.7559 72.9655 35.3752 73.7633C35.0238 74.4998 34.4188 75.0046 33.5602 75.2778C32.6914 75.546 31.8856 75.498 31.1428 75.1339ZM31.7004 74.0442C32.2804 74.3285 32.8207 74.341 33.3211 74.0815C33.8115 73.8171 34.1664 73.4547 34.386 72.9944C34.6398 72.4626 34.6707 71.7268 34.4787 70.7871C34.2766 69.8424 33.9623 68.9879 33.536 68.2236C33.1044 67.444 32.7054 66.9645 32.3391 66.7849C32.0338 66.6352 31.7202 66.5951 31.3983 66.6645C31.0711 66.7186 30.7881 66.8512 30.5493 67.0623C30.3154 67.2631 30.1217 67.4584 29.9684 67.6483C29.8048 67.8331 29.6889 67.9972 29.6206 68.1404C29.1423 69.1427 29.1099 70.2501 29.5233 71.4624C29.9266 72.6698 30.6523 73.5304 31.7004 74.0442Z" fill="#FF5016"/>
<path d="M38.706 58.3259C37.9633 57.6947 37.4873 56.9555 37.2779 56.1083C37.067 55.245 37.0725 54.4317 37.2943 53.6684C37.5234 52.8964 37.895 52.201 38.4093 51.5822C39.1337 50.7106 40.1282 50.1877 41.393 50.0133C42.6563 49.8229 43.7846 50.1497 44.7776 50.9937C45.7189 51.7937 46.2547 52.8067 46.385 54.0328C46.5066 55.2516 46.1292 56.3883 45.2527 57.4429C44.3908 58.4801 43.3194 59.0865 42.0388 59.2622C40.7496 59.4306 39.6386 59.1185 38.706 58.3259ZM39.523 57.3695C40.1361 57.8905 40.9328 58.0843 41.9131 57.9508C42.8848 57.8099 43.6821 57.3647 44.3051 56.6152C44.8918 55.9092 45.1369 55.0914 45.0403 54.1616C44.9509 53.223 44.5953 52.4896 43.9736 51.9612C43.3691 51.4474 42.6043 51.2064 41.6791 51.2381C40.754 51.2698 39.9763 51.6647 39.3461 52.423C38.6073 53.312 38.2991 54.2324 38.4216 55.1842C38.5514 56.1273 38.9185 56.8557 39.523 57.3695Z" fill="#FF5016"/>
<path d="M48.1545 42.5352C48.0511 42.4003 47.9928 42.2589 47.9795 42.1111C47.9751 41.9564 48.031 41.8337 48.1471 41.743L48.6027 41.3873L47.3311 39.7275C47.2415 39.6105 47.2173 39.4857 47.2584 39.353C47.3084 39.2133 47.4004 39.0911 47.5344 38.9865C47.8738 38.7215 48.1365 38.7104 48.3226 38.9533L49.5942 40.6131L51.738 38.9393C51.8541 38.8486 51.9813 38.8283 52.1197 38.8785C52.2511 38.9196 52.3685 39.0076 52.4719 39.1426C52.7338 39.4844 52.7442 39.7495 52.503 39.9378L50.3592 41.6117L52.83 44.8369C53.6019 45.8445 54.3675 46.0518 55.1267 45.459C55.4483 45.2079 55.6563 44.9017 55.7507 44.5405C55.854 44.1722 55.7334 43.7632 55.3888 43.3134C55.2923 43.1875 55.2622 43.0456 55.2984 42.888C55.3435 42.7233 55.4376 42.5852 55.5805 42.4736C55.7145 42.369 55.8572 42.3223 56.0085 42.3335C56.153 42.3357 56.2803 42.4088 56.3906 42.5527C56.9261 43.2704 57.1287 43.9821 56.9984 44.6877C56.8769 45.3864 56.5081 45.9763 55.8917 46.4576C54.4715 47.5665 53.0273 47.1629 51.5594 45.2467L49.3677 42.3859L48.9122 42.7416C48.662 42.9369 48.4095 42.8681 48.1545 42.5352Z" fill="#FF5016"/>
<path d="M67.7421 30.107C67.6836 29.9474 67.6701 29.7953 67.7015 29.6506C67.7436 29.502 67.8338 29.4021 67.9719 29.3509L68.5138 29.1499L67.7943 27.1867C67.7436 27.0484 67.7577 26.9222 67.8367 26.8084C67.9263 26.6905 68.0508 26.602 68.2101 26.5429C68.6139 26.3932 68.8684 26.4619 68.9737 26.7492L69.6932 28.7124L72.2433 27.7665C72.3814 27.7153 72.5091 27.7344 72.6264 27.8239C72.7398 27.9027 72.8257 28.0219 72.8842 28.1815C73.0324 28.5859 72.963 28.8413 72.6762 28.9477L70.1261 29.8936L71.5241 33.7082C71.9608 34.9 72.6308 35.3284 73.5339 34.9934C73.9165 34.8515 74.2068 34.6229 74.4051 34.3076C74.614 33.9884 74.621 33.5628 74.426 33.0307C74.3714 32.8818 74.385 32.7377 74.4668 32.5986C74.5592 32.4555 74.6904 32.3525 74.8604 32.2894C75.0198 32.2303 75.1701 32.2289 75.3115 32.2853C75.4489 32.331 75.5489 32.439 75.6113 32.6092C75.9087 33.4538 75.8896 34.1921 75.554 34.8243C75.229 35.4525 74.7 35.9026 73.9668 36.1745C72.2774 36.8012 71.0173 35.9812 70.1867 33.7148L68.9466 30.331L68.4047 30.532C68.1072 30.6424 67.8863 30.5007 67.7421 30.107Z" fill="#FF5016"/>
<path d="M81.8713 28.8937C81.767 28.176 81.831 27.514 82.0636 26.9078C82.2961 26.3016 82.6467 25.7986 83.1154 25.3987C83.584 24.9989 84.1041 24.6774 84.6758 24.4344C85.2458 24.1802 85.8392 24.0084 86.4561 23.9192C87.5552 23.7602 88.4427 23.878 89.1185 24.2726C89.7926 24.656 90.1802 25.1953 90.2813 25.8906C90.3906 26.642 90.1302 27.3324 89.5002 27.9617C88.8702 28.5911 87.9047 28.9999 86.6036 29.1881C85.4372 29.3569 84.3023 29.3493 83.1991 29.1654C83.4431 29.9774 83.9312 30.6168 84.6632 31.0834C85.3953 31.55 86.238 31.7144 87.1913 31.5764C87.6961 31.5034 88.2062 31.3494 88.7217 31.1145C89.2485 30.878 89.6477 30.5913 89.9194 30.2542C89.9512 30.158 90.0344 30.1002 90.169 30.0807C90.326 30.058 90.5048 30.1065 90.7055 30.2264C90.9045 30.335 91.0146 30.4622 91.0358 30.608C90.8386 31.2205 90.3501 31.7206 89.5705 32.1082C88.8004 32.483 88.0341 32.7255 87.2714 32.8359C85.8918 33.0355 84.6929 32.7452 83.6748 31.965C82.6567 31.1848 82.0555 30.161 81.8713 28.8937ZM83.0781 27.8603C83.9731 28.1087 85.0431 28.1428 86.2881 27.9627C87.2639 27.8215 87.9821 27.563 88.4428 27.1872C88.9019 26.8002 89.1037 26.416 89.0483 26.0347C88.9994 25.6982 88.7455 25.4487 88.2867 25.2861C87.8375 25.1106 87.1978 25.0829 86.3679 25.203C85.4706 25.3328 84.7485 25.6434 84.2015 26.1348C83.6641 26.6133 83.2896 27.1885 83.0781 27.8603Z" fill="#FF5016"/>
<path d="M98.8367 28.4572C98.984 26.9458 99.7028 25.7042 100.993 24.7324C102.283 23.7606 103.678 23.3522 105.177 23.5072C106.203 23.6132 107.039 24.0926 107.684 24.9454C108.33 25.7982 108.605 26.721 108.508 27.7135L108.059 32.1446C108.045 32.2912 107.96 32.4021 107.805 32.4772C107.662 32.5421 107.506 32.5659 107.336 32.5484C106.964 32.51 106.794 32.3328 106.825 32.017L107.103 29.1577C106.075 30.2477 105.118 31.0146 104.232 31.4585C103.357 31.9036 102.48 32.0807 101.601 31.9899C100.789 31.906 100.105 31.5049 99.5491 30.7867C98.994 30.0571 98.7565 29.2806 98.8367 28.4572ZM100.051 28.6169C99.9882 29.2598 100.166 29.7738 100.584 30.1587C101.003 30.5324 101.466 30.7455 101.973 30.7979C102.559 30.8585 103.258 30.6402 104.07 30.143C104.882 29.6345 105.571 29.0506 106.136 28.3913C106.714 27.7218 107.022 27.1841 107.062 26.778C107.095 26.4396 107.023 26.1302 106.845 25.8498C106.68 25.5593 106.456 25.3369 106.175 25.1825C105.906 25.0293 105.655 24.9123 105.424 24.8314C105.194 24.7393 105 24.6851 104.842 24.6688C103.737 24.5546 102.691 24.8965 101.702 25.6943C100.714 26.4809 100.164 27.4551 100.051 28.6169Z" fill="#FF5016"/>
<path d="M118.62 25.0087C118.863 24.3254 119.386 23.8956 120.187 23.7192C120.999 23.5465 121.748 23.5797 122.433 23.8187C122.871 23.9718 123.286 24.1947 123.678 24.4873C124.069 24.78 124.412 25.1277 124.707 25.5305C125.012 25.9371 125.211 26.4087 125.304 26.9455C125.402 27.4715 125.358 28.0082 125.172 28.5557C124.958 29.189 124.644 29.7097 124.231 30.1176C123.821 30.5148 123.386 30.7768 122.924 30.9037C122.466 31.0199 122.044 31.0827 121.658 31.092C121.272 31.1013 120.933 31.061 120.64 30.9709L120.324 31.9048C120.222 32.2054 119.974 32.2866 119.578 32.1484C119.417 32.0924 119.28 32.0025 119.167 31.8788C119.067 31.7482 119.041 31.613 119.088 31.4735L119.742 29.5412C120.113 29.6467 120.497 29.7146 120.894 29.745C121.29 29.7754 121.698 29.7555 122.116 29.6855C122.549 29.6085 122.938 29.4321 123.282 29.1563C123.63 28.8697 123.883 28.4957 124.039 28.0341C124.249 27.4115 124.124 26.8096 123.663 26.2285C123.216 25.6404 122.698 25.2436 122.11 25.0383C121.692 24.8926 121.237 24.8417 120.744 24.8856C120.254 24.9187 119.951 25.107 119.835 25.4505C119.784 25.6008 119.678 25.7019 119.517 25.7537C119.356 25.8055 119.189 25.8015 119.018 25.7417C118.858 25.6857 118.733 25.5942 118.644 25.4673C118.57 25.3333 118.562 25.1805 118.62 25.0087ZM117.831 33.9154L117.984 33.4645C118.064 33.2284 118.224 33.0741 118.464 33.0018C118.714 32.9332 119.005 32.9568 119.337 33.0725C119.626 33.1734 119.848 33.329 120.004 33.5395C120.164 33.7393 120.202 33.9626 120.119 34.2095L119.966 34.6604C119.882 34.9073 119.708 35.0685 119.443 35.1441C119.182 35.209 118.912 35.1929 118.634 35.0958C118.303 34.98 118.064 34.8188 117.919 34.612C117.777 34.3945 117.748 34.1623 117.831 33.9154Z" fill="#FF5016"/>
<path d="M137.005 43.4711L143.887 34.9353C144.079 34.6971 144.341 34.715 144.674 34.989C144.805 35.0971 144.889 35.2181 144.927 35.352C144.973 35.4931 144.95 35.6209 144.858 35.7356L144.292 36.437C145.498 36.2415 146.582 36.5403 147.543 37.3334C148.19 37.867 148.603 38.5013 148.782 39.2363C148.961 39.9714 148.798 40.6521 148.293 41.2785C147.98 41.6667 147.562 41.9683 147.039 42.1835C146.532 42.397 146.003 42.3941 145.452 42.1748C146.176 42.9921 146.558 43.828 146.597 44.6826C146.644 45.5444 146.44 46.2576 145.985 46.8222C145.281 47.6956 144.418 48.1884 143.396 48.3004C142.374 48.4124 141.269 47.9781 140.079 46.9975C139.056 46.154 138.311 45.2822 137.843 44.3821C137.636 44.4761 137.419 44.4293 137.192 44.2418C136.868 43.975 136.806 43.7181 137.005 43.4711ZM138.648 43.4377C138.966 44.1991 139.662 45.0232 140.738 45.9101C141.63 46.6455 142.436 47.009 143.156 47.0006C143.883 46.9834 144.463 46.7056 144.897 46.1675C145.402 45.5411 145.513 44.8536 145.228 44.105C144.951 43.3475 144.375 42.6083 143.501 41.8873C143.23 41.6638 142.834 41.3517 142.312 40.9512C141.798 40.5418 141.462 40.2723 141.305 40.1425L138.648 43.4377ZM142.169 39.0705C142.483 39.4031 142.854 39.746 143.283 40.0993C144.105 40.777 144.878 41.1357 145.603 41.1754C146.344 41.2135 146.899 41.0031 147.269 40.5443C147.575 40.165 147.676 39.7781 147.572 39.3837C147.467 38.9894 147.206 38.6191 146.786 38.273C146.296 37.8693 145.741 37.6099 145.121 37.4948C144.5 37.3797 143.865 37.4726 143.215 37.7736L142.169 39.0705Z" fill="#FF5016"/>
<path d="M149.563 55.0521L158.5 47.3247C158.732 47.1246 158.987 47.1888 159.265 47.5173C159.375 47.6469 159.437 47.7809 159.45 47.9193C159.47 48.0662 159.425 48.1879 159.314 48.2843L150.377 56.0117C150.265 56.1081 150.135 56.1383 149.986 56.1026C149.845 56.0594 149.72 55.9729 149.61 55.8432C149.339 55.5234 149.323 55.2597 149.563 55.0521Z" fill="#FF5016"/>
<path d="M157.313 58.5147C158.151 58.0157 159 57.8064 159.861 57.8868C160.738 57.9711 161.496 58.2449 162.136 58.7082C162.781 59.1813 163.306 59.765 163.713 60.4592C164.286 61.437 164.443 62.557 164.185 63.8192C163.942 65.0854 163.26 66.0521 162.141 66.7193C161.08 67.3516 159.954 67.5274 158.765 67.2465C157.586 66.9599 156.65 66.225 155.956 65.0419C155.275 63.8784 155.065 62.6577 155.328 61.3799C155.6 60.0963 156.262 59.1412 157.313 58.5147ZM157.935 59.6087C157.243 60.0206 156.797 60.7154 156.595 61.6933C156.403 62.6653 156.553 63.5718 157.046 64.4126C157.51 65.2046 158.192 65.7082 159.093 65.9232C160 66.1481 160.804 66.0516 161.505 65.6339C162.186 65.2278 162.666 64.579 162.945 63.6873C163.224 62.7957 163.114 61.9245 162.615 61.0738C162.031 60.0765 161.274 59.479 160.344 59.2814C159.419 59.0935 158.616 59.2026 157.935 59.6087Z" fill="#FF5016"/>
<path d="M165.73 74.2631C166.664 73.9835 167.54 73.9874 168.358 74.2748C169.19 74.5698 169.861 75.0195 170.371 75.6238C170.885 76.239 171.256 76.9323 171.485 77.7037C171.807 78.7902 171.691 79.9133 171.137 81.073C170.596 82.2403 169.702 83.0109 168.454 83.3847C167.27 83.739 166.134 83.6355 165.046 83.0742C163.968 82.5096 163.234 81.57 162.844 80.2554C162.461 78.9625 162.55 77.7291 163.112 76.5553C163.685 75.3782 164.557 74.6142 165.73 74.2631ZM166.071 75.474C165.301 75.7048 164.7 76.2692 164.269 77.1672C163.848 78.0619 163.777 78.9765 164.054 79.9109C164.315 80.7909 164.858 81.4447 165.682 81.8722C166.51 82.3106 167.314 82.4127 168.096 82.1787C168.856 81.9511 169.478 81.4394 169.963 80.6436C170.448 79.8477 170.551 78.9772 170.27 78.0319C169.941 76.9237 169.349 76.1607 168.492 75.743C167.638 75.3361 166.831 75.2464 166.071 75.474Z" fill="#FF5016"/>
<path d="M162.198 92.2973L174.003 91.828C174.15 91.8222 174.266 91.88 174.351 92.0014C174.447 92.1223 174.498 92.2677 174.506 92.4375C174.523 92.8565 174.374 93.0722 174.057 93.0848L172.205 93.1584C173.893 94.1688 174.782 95.727 174.872 97.8329C174.913 98.7954 174.625 99.6234 174.008 100.317C173.403 101.022 172.67 101.391 171.81 101.425C170.802 101.465 169.861 101.225 168.989 100.704C168.127 100.182 167.445 99.4835 166.942 98.6075C166.44 97.7428 166.169 96.8236 166.127 95.8499C166.087 94.9101 166.363 94.0825 166.957 93.3671L162.252 93.5541C161.946 93.5663 161.784 93.3572 161.766 92.927C161.758 92.7571 161.792 92.6084 161.866 92.4807C161.94 92.3643 162.051 92.3032 162.198 92.2973ZM169.385 93.2535C168.694 93.281 168.185 93.5735 167.857 94.1309C167.53 94.6996 167.378 95.2558 167.401 95.7992C167.429 96.4559 167.616 97.1177 167.962 97.7844C168.308 98.4511 168.803 99.0099 169.446 99.4607C170.101 99.9224 170.802 100.138 171.549 100.109C172.319 100.078 172.864 99.8125 173.183 99.3121C173.502 98.8231 173.647 98.2389 173.618 97.5595C173.591 96.9255 173.347 96.2604 172.887 95.5641C172.438 94.8788 171.88 94.3169 171.215 93.8783C170.561 93.4393 169.951 93.231 169.385 93.2535Z" fill="#FF5016"/>
<path d="M164.806 117.814L172.109 119.786C172.404 119.866 172.497 120.114 172.389 120.531C172.346 120.695 172.272 120.822 172.166 120.911C172.058 121.011 171.933 121.042 171.791 121.003L164.488 119.031C164.346 118.993 164.247 118.901 164.191 118.757C164.145 118.616 164.144 118.463 164.187 118.298C164.293 117.893 164.499 117.731 164.806 117.814ZM174.652 120.473L174.948 120.553C175.243 120.633 175.336 120.881 175.228 121.298C175.185 121.462 175.111 121.589 175.006 121.678C174.897 121.778 174.772 121.809 174.63 121.77L174.335 121.69C174.192 121.652 174.093 121.561 174.037 121.416C173.992 121.275 173.991 121.122 174.034 120.958C174.14 120.552 174.346 120.391 174.652 120.473Z" fill="#FF5016"/>
<path d="M169.796 127.286C169.952 127.354 170.072 127.449 170.156 127.572C170.235 127.705 170.246 127.839 170.189 127.975L169.965 128.508L171.884 129.338C172.019 129.397 172.101 129.494 172.13 129.63C172.154 129.776 172.133 129.928 172.068 130.085C171.901 130.481 171.677 130.619 171.396 130.498L169.477 129.667L168.422 132.174C168.365 132.31 168.264 132.39 168.119 132.413C167.984 132.441 167.839 132.422 167.683 132.354C167.287 132.183 167.149 131.957 167.268 131.675L168.322 129.167L164.594 127.554C163.429 127.05 162.66 127.241 162.286 128.129C162.128 128.505 162.096 128.874 162.19 129.236C162.279 129.608 162.584 129.907 163.104 130.132C163.249 130.195 163.345 130.304 163.39 130.459C163.431 130.625 163.416 130.792 163.346 130.959C163.28 131.115 163.178 131.226 163.041 131.29C162.913 131.358 162.767 131.356 162.6 131.284C161.783 130.918 161.259 130.395 161.029 129.715C160.794 129.046 160.829 128.35 161.132 127.63C161.831 125.969 163.288 125.618 165.503 126.577L168.81 128.008L169.034 127.475C169.157 127.183 169.411 127.12 169.796 127.286Z" fill="#FF5016"/>
<path d="M157.741 136.473L158.143 136.728C158.353 136.862 158.467 137.055 158.484 137.307C158.495 137.569 158.408 137.85 158.223 138.148C158.061 138.408 157.862 138.59 157.624 138.694C157.396 138.805 157.172 138.79 156.952 138.65L156.55 138.395C156.33 138.255 156.213 138.046 156.198 137.769C156.193 137.497 156.268 137.236 156.423 136.985C156.608 136.687 156.817 136.49 157.049 136.396C157.29 136.308 157.521 136.333 157.741 136.473Z" fill="#FF5016"/>
<defs>
<filter id="filter0_d_7_97" x="13.2858" y="12.7991" width="171.429" height="180.2" filterUnits="userSpaceOnUse" color-interpolation-filters="sRGB">
<feFlood flood-opacity="0" result="BackgroundImageFix"/>
<feColorMatrix in="SourceAlpha" type="matrix" values="0 0 0 0 0 0 0 0 0 0 0 0 0 0 0 0 0 0 127 0" result="hardAlpha"/>
<feOffset dx="3.24139" dy="3.78162"/>
<feComposite in2="hardAlpha" operator="out"/>
<feColorMatrix type="matrix" values="0 0 0 0 0 0 0 0 0 0 0 0 0 0 0 0 0 0 0.85 0"/>
<feBlend mode="normal" in2="BackgroundImageFix" result="effect1_dropShadow_7_97"/>
<feBlend mode="normal" in="SourceGraphic" in2="effect1_dropShadow_7_97" result="shape"/>
</filter>
</defs>
</svg>
