<svg width="28" height="27" viewBox="0 0 28 27" fill="none" xmlns="http://www.w3.org/2000/svg">
<path d="M2.86125 6.43664C2.637 6.3053 3.19072 6.31836 3.19831 6.31836C5.07521 6.31836 6.95252 6.06478 8.82218 5.92512C11.6952 5.71051 14.5618 5.41179 17.441 5.28209C19.2762 5.19942 21.2506 5.08679 23.0624 5.46676C24.8655 5.84493 24.6749 8.23568 24.9086 9.69789C25.217 11.6284 25.1709 13.535 25.2952 15.4771C25.4055 17.1986 25.7449 18.8923 25.8604 20.6132C25.9325 21.6876 26 22.7715 26 23.8489C26 24.1162 25.992 24.3789 25.7497 24.5434C25.4629 24.7382 25.031 24.7237 24.7016 24.7509C23.5643 24.8447 22.4296 24.9045 21.288 24.9142C16.2916 24.9567 11.3119 25.3161 6.31666 25.0102C5.43629 24.9562 4.55007 24.9075 3.67429 24.8002C3.29835 24.7541 2.83205 24.723 2.50655 24.5036C2.39604 24.4291 2.36687 24.3215 2.36687 24.1972M2.30062 6.75362C2.30062 8.26019 2.06108 9.74805 2.14869 11.2744C2.28954 13.7285 2.29215 16.2076 2.55465 18.6518C2.68832 19.8965 2.83484 21.0945 2.83484 22.347C2.83484 22.4809 2.77507 23.6854 2.77507 23.2257M2.47889 11.1029C3.21407 11.1029 3.95063 11.1766 4.68866 11.1743C6.71759 11.168 8.76074 10.87 10.7836 10.7238C14.2727 10.4717 17.804 10.3109 21.3037 10.3109C22.1238 10.3109 22.9406 10.2589 23.7608 10.2589C23.9498 10.2589 24.8647 10.0327 24.2976 10.1783M7.3443 11.7231C7.66066 12.1552 7.64779 12.9023 7.70108 13.4046C7.86083 14.9104 8.06963 16.3853 8.27792 17.884C8.4649 19.2293 8.40457 20.6326 8.71758 21.9562C8.86525 22.5806 9.12568 23.0925 8.98809 23.7546M13.0474 11.3073C13.2055 11.3784 13.0063 13.9142 13.0106 14.1418C13.0404 15.7125 13.147 17.2749 13.147 18.8478C13.147 20.0939 13.2723 21.3068 13.6945 22.4857C13.7958 22.7685 14.0723 24.171 14.4409 24.2097M18.4347 10.8396C18.3214 10.8396 18.7518 17.3812 18.7747 17.9933C18.824 19.3136 18.8043 20.7362 19.0524 22.037C19.1363 22.4771 19.4272 23.7471 19.4982 23.3048M2.47246 16.7852C1.67188 16.7852 2.00834 16.5476 2.59844 16.4445C5.67743 15.9063 8.84968 15.828 11.9649 15.6646C15.4205 15.4834 18.8717 15.2871 22.333 15.2871C22.4 15.2871 23.5069 15.3092 23.3996 15.2011M2.97332 21.0091C2.88052 21.0091 3.35835 20.9817 3.42342 20.9784C5.04212 20.8965 6.65485 20.6403 8.27037 20.5077C12.4259 20.1666 16.6309 20.3159 20.7735 19.896C21.963 19.7754 23.1411 19.4315 24.3303 19.3473C24.5608 19.331 25.5053 19.4293 25.6314 19.2798M9.42373 3.37405C9.65287 3.11026 9.966 4.19948 10.0305 4.49993C10.1349 4.98681 9.90566 6.48655 9.90566 5.98859M13.6355 2.90622C13.6355 2.70288 13.649 2.73765 13.7843 2.93967C14.0712 3.36848 14.2462 3.84176 14.3879 4.33564C14.5645 4.95075 14.4811 5.40733 14.4811 6.00818M18.7909 2.39731C18.7432 2.32642 18.6121 2.18382 18.7291 2.36256C19.0041 2.78285 19.1814 3.29327 19.2501 3.7881C19.2916 4.08689 19.4732 5.29237 19.2143 5.56557" stroke="#232F61" stroke-width="3" stroke-linecap="round" stroke-linejoin="round"/>
</svg>
