<svg width="26" height="26" viewBox="0 0 26 26" fill="none" xmlns="http://www.w3.org/2000/svg">
<path d="M1.86125 5.43664C1.637 5.3053 2.19072 5.31836 2.19831 5.31836C4.07521 5.31836 5.95252 5.06478 7.82218 4.92512C10.6952 4.71051 13.5618 4.41179 16.441 4.28209C18.2762 4.19942 20.2506 4.08679 22.0624 4.46676C23.8655 4.84493 23.6749 7.23568 23.9086 8.69789C24.217 10.6284 24.1709 12.535 24.2952 14.4771C24.4055 16.1986 24.7449 17.8923 24.8604 19.6132C24.9325 20.6876 25 21.7715 25 22.8489C25 23.1162 24.992 23.3789 24.7497 23.5434C24.4629 23.7382 24.031 23.7237 23.7016 23.7509C22.5643 23.8447 21.4296 23.9045 20.288 23.9142C15.2916 23.9567 10.3119 24.3161 5.31666 24.0102C4.43629 23.9562 3.55007 23.9075 2.67429 23.8002C2.29835 23.7541 1.83205 23.723 1.50655 23.5036C1.39604 23.4291 1.36687 23.3215 1.36687 23.1972M1.30062 5.75362C1.30062 7.26019 1.06108 8.74805 1.14869 10.2744C1.28954 12.7285 1.29215 15.2076 1.55465 17.6518C1.68832 18.8965 1.83484 20.0945 1.83484 21.347C1.83484 21.4809 1.77507 22.6854 1.77507 22.2257M1.47889 10.1029C2.21407 10.1029 2.95063 10.1766 3.68866 10.1743C5.71759 10.168 7.76074 9.87 9.7836 9.72383C13.2727 9.47171 16.804 9.31088 20.3037 9.31088C21.1238 9.31088 21.9406 9.25891 22.7608 9.25891C22.9498 9.25891 23.8647 9.0327 23.2976 9.17827M6.3443 10.7231C6.66066 11.1552 6.64779 11.9023 6.70108 12.4046C6.86083 13.9104 7.06963 15.3853 7.27792 16.884C7.4649 18.2293 7.40457 19.6326 7.71758 20.9562C7.86525 21.5806 8.12568 22.0925 7.98809 22.7546M12.0474 10.3073C12.2055 10.3784 12.0063 12.9142 12.0106 13.1418C12.0404 14.7125 12.147 16.2749 12.147 17.8478C12.147 19.0939 12.2723 20.3068 12.6945 21.4857C12.7958 21.7685 13.0723 23.171 13.4409 23.2097M17.4347 9.83961C17.3214 9.83961 17.7518 16.3812 17.7747 16.9933C17.824 18.3136 17.8043 19.7362 18.0524 21.037C18.1363 21.4771 18.4272 22.7471 18.4982 22.3048M1.47246 15.7852C0.671879 15.7852 1.00834 15.5476 1.59844 15.4445C4.67743 14.9063 7.84968 14.828 10.9649 14.6646C14.4205 14.4834 17.8717 14.2871 21.333 14.2871C21.4 14.2871 22.5069 14.3092 22.3996 14.2011M1.97332 20.0091C1.88052 20.0091 2.35835 19.9817 2.42342 19.9784C4.04212 19.8965 5.65485 19.6403 7.27037 19.5077C11.4259 19.1666 15.6309 19.3159 19.7735 18.896C20.963 18.7754 22.1411 18.4315 23.3303 18.3473C23.5608 18.331 24.5053 18.4293 24.6314 18.2798M8.42373 2.37405C8.65287 2.11026 8.966 3.19948 9.03046 3.49993C9.13492 3.98681 8.90566 5.48655 8.90566 4.98859M12.6355 1.90622C12.6355 1.70288 12.649 1.73765 12.7843 1.93967C13.0712 2.36848 13.2462 2.84176 13.3879 3.33564C13.5645 3.95075 13.4811 4.40733 13.4811 5.00818M17.7909 1.39731C17.7432 1.32642 17.6121 1.18382 17.7291 1.36256C18.0041 1.78285 18.1814 2.29327 18.2501 2.7881C18.2916 3.08689 18.4732 4.29237 18.2143 4.56557" stroke="#007A55" stroke-width="2" stroke-linecap="round" stroke-linejoin="round"/>
</svg>
