<svg width="28" height="29" viewBox="0 0 28 29" fill="none" xmlns="http://www.w3.org/2000/svg">
<path d="M2.6737 25.6037C2.30851 25.6037 4.02192 24.8125 4.41849 24.5141C6.85069 22.684 8.13433 20.2859 9.71547 17.7747C10.2261 16.9638 9.75622 17.5424 9.13353 17.593C7.29514 17.7424 5.00452 15.7375 4.27361 14.1805C3.27103 12.0448 3.10552 7.81958 4.73551 5.95961C7.00866 3.36572 10.8791 2.43912 14.1625 2.10257C17.1538 1.79595 19.4015 2.67995 22.0979 3.77147C24.4237 4.71301 25.6191 6.00015 25.9262 8.46445C26.3649 11.9842 24.8466 15.8781 21.4054 17.3108C20.0453 17.877 18.4765 18.2009 17.0015 18.2009C16.3715 18.2009 16.6538 17.849 16.5944 18.5136C16.461 20.0085 14.2507 21.7649 13.1262 22.5255C11.8493 23.3892 10.5381 24.1232 9.20752 24.8976C7.29259 26.0119 4.24232 26.9038 2 26.9038M10.2302 11.6337H10.6058M14.7073 11.4371C14.7073 11.3876 14.6806 11.1243 14.7383 11.1243M18.8518 11.2226V11.3879" stroke="#232F61" stroke-width="3" stroke-linecap="round" stroke-linejoin="round"/>
</svg>
