<svg width="53" height="54" viewBox="0 0 53 54" fill="none" xmlns="http://www.w3.org/2000/svg">
<g id="Doodled Icons">
<path id="message" d="M3.35484 49.3855C2.62044 49.3855 6.06618 47.7943 6.86369 47.1943C11.755 43.5139 14.3364 38.6911 17.5162 33.641C18.543 32.0103 17.5981 33.1739 16.3459 33.2757C12.6488 33.576 8.04222 29.5441 6.57233 26.413C4.5561 22.1181 4.22324 13.6209 7.50123 9.88037C12.0726 4.66394 19.8564 2.80052 26.4593 2.1237C32.4751 1.50707 36.9953 3.28483 42.4177 5.47993C47.0951 7.37341 49.499 9.9619 50.1166 14.9177C50.9989 21.9961 47.9456 29.827 41.0251 32.7081C38.2899 33.8469 35.135 34.4981 32.1686 34.4981C30.9017 34.4981 31.4694 33.7904 31.35 35.127C31.0817 38.1332 26.6367 41.6656 24.3754 43.1951C21.8074 44.932 19.1706 46.4082 16.4947 47.9654C12.6436 50.2065 6.50941 52 2 52M18.5512 21.2911H19.3067M27.5549 20.8958C27.5549 20.7963 27.5013 20.2669 27.6174 20.2669M35.8898 20.4644V20.7969" stroke="#5C26A6" stroke-width="4" stroke-linecap="round" stroke-linejoin="round"/>
</g>
</svg>
