<svg width="55" height="54" viewBox="0 0 55 54" fill="none" xmlns="http://www.w3.org/2000/svg">
<g id="Doodled Icons">
<path id="sad" d="M7.36102 15.8583C2.7522 14.0221 12.4923 6.7053 14.0081 5.68193C21.8808 0.366816 34.3895 1.01073 42.1094 6.29736C49.4463 11.3217 53.4221 21.8921 52.009 30.5137C50.6618 38.7328 45.2581 44.6639 38.2481 48.726C26.9999 55.244 8.65478 52.1508 4.65463 38.3596C3.1825 33.2842 2 27.8126 2 22.5112C2 19.1851 4.92922 9.64624 4.92922 12.9724M17.7357 19.506H17.6963M32.0108 19.04C31.8314 19.0141 31.7364 18.7633 31.5529 18.7105M19.5357 37.5821C17.3215 37.5821 24.6373 32.6743 25.6661 32.3077C28.3935 31.3359 31.3054 31.2328 33.4773 33.353C34.3485 34.2034 35.8825 37.4742 35.6977 37.0367" stroke="#0F77A7" stroke-width="4" stroke-linecap="round" stroke-linejoin="round"/>
</g>
</svg>
