<svg width="28" height="28" viewBox="0 0 28 28" fill="none" xmlns="http://www.w3.org/2000/svg">
<path d="M4.86745 8.6134C2.66805 7.73714 7.31619 4.24545 8.03955 3.75708C11.7965 1.22062 17.7659 1.5279 21.4499 4.05077C24.9512 6.44846 26.8486 11.4928 26.1742 15.6072C25.5313 19.5295 22.9525 22.3599 19.6073 24.2984C14.2394 27.4089 5.48485 25.9328 3.57591 19.3514C2.87339 16.9293 2.30908 14.3182 2.30908 11.7883C2.30908 10.201 3.70695 5.64891 3.70695 7.23621M9.81843 10.3542H9.79959M16.6307 10.1317C16.5451 10.1194 16.4998 9.99972 16.4122 9.97451M10.6774 18.9804C9.62074 18.9804 13.112 16.6383 13.6029 16.4633C14.9045 15.9996 16.2941 15.9504 17.3306 16.9622C17.7463 17.368 18.4783 18.9289 18.3902 18.7201" stroke="#232F61" stroke-width="3" stroke-linecap="round" stroke-linejoin="round"/>
</svg>
