<svg width="27" height="23" viewBox="0 0 27 23" fill="none" xmlns="http://www.w3.org/2000/svg">
<path d="M8.27164 2.46275C7.52398 2.08504 7.76497 3.56776 7.69457 4.11619C7.25208 7.56321 6.76531 11.0825 6.76531 14.5601C6.76531 16.7501 6.88775 18.9475 6.88775 21.1419C6.88775 21.217 7.07208 20.6729 7.04717 20.4721M1.69418 15.7979C0.82841 15.7286 3.12671 15.9381 3.32475 15.9412C7.53151 16.007 11.7393 15.6671 15.9526 15.7312C19.0521 15.7783 22.1173 16.0879 25.2202 15.9632C26.0442 15.93 24.8063 15.9671 24.5987 15.9308M10.8685 12.0244C10.0997 12.189 11.3763 11.4933 11.5406 11.3794C13.9605 9.70136 16.4279 8.09571 18.6825 6.19415C19.099 5.84286 22.1382 3.88742 22.0751 3.28974C22.0707 3.24837 22.0252 3.21703 21.9522 3.19351M21.9522 3.19351C21.6029 3.08096 20.6238 3.1472 20.5072 3.1477C20.0294 3.14977 18.6199 3.40702 19.0976 3.40702C20.0631 3.40702 20.995 3.30078 21.9522 3.19351ZM21.9522 3.19351C21.9775 3.19068 22.0028 3.18785 22.0281 3.18501C22.3596 3.14793 23.7685 2.79982 23.2431 3.49974C22.713 4.20593 22.2846 4.98132 21.8056 5.72095" stroke="#232F61" stroke-width="3" stroke-linecap="round" stroke-linejoin="round"/>
</svg>
