<svg width="58" height="54" viewBox="0 0 58 54" fill="none" xmlns="http://www.w3.org/2000/svg">
<g id="Doodled Icons">
<path id="exponential graph" d="M15.1884 5.93646C15.1884 3.01075 15.3282 5.56158 15.3282 7.07327C15.3282 14.888 14.7794 22.8918 15.9159 30.6379C16.8911 37.2844 18.6794 57.355 18.3208 50.6469M2.59509 42.2347C2.30098 42.2347 2.12933 42.2316 2.05123 42.2295M2.05123 42.2295C1.97919 42.2276 1.98676 42.2266 2.05123 42.2295ZM2.05123 42.2295C2.16991 42.235 2.48144 42.2541 2.8443 42.3068C6.78366 42.8785 10.6325 43.1974 14.6284 43.211C27.5183 43.2549 40.4349 41.5697 53.2537 43.5787M26.1738 29.9459C26.1025 28.2357 26.4088 28.8492 28.7556 28.7101C34.476 28.3709 41.8299 26.6684 45.5256 21.9039C48.748 17.7497 50.0133 11.9569 51.0615 6.90396C51.1594 6.43232 52.0291 2.82147 51.2719 3.41023C49.1311 5.0748 46.525 6.23959 44.2125 7.64863C42.4997 8.69229 48.3264 4.781 49.1597 4.13204C50.8191 2.8397 51.8262 0.893968 52.7135 2.79154C53.4104 4.28187 54.3555 8.34031 55.6426 9.2365" stroke="#C23621" stroke-width="4" stroke-linecap="round" stroke-linejoin="round"/>
</g>
</svg>
