<svg width="27" height="45" viewBox="0 0 27 45" fill="none" xmlns="http://www.w3.org/2000/svg">
<path d="M4.40526 3.65187C3.35697 3.65187 3.63914 11.0502 3.63914 12.1401C3.63914 14.9029 3.75165 23.1907 3.75165 20.4278M6.16781 3.58919C1.9271 4.11984 14.6698 2.50985 18.9436 2.50985C21.0021 2.50985 23.0464 2.40192 25.0982 2.40192C25.9022 2.40192 25.2512 15.2998 25.2512 17.0363C25.2512 17.7511 25.6785 19.6454 25.2523 20.2521C24.956 20.6739 20.162 21.0897 19.5826 21.2106C14.86 22.1966 10.6536 21.6758 6.0553 21.6758M4.99252 31.4314C4.61501 31.5429 2.65484 32.2255 3.18228 32.2255C6.51718 32.2255 9.85233 32.6264 13.2002 32.6264C15.0724 32.6264 17.0262 32.5107 18.8791 32.5107M1.5 43.4975C2.8359 42.0821 9.12583 42.7685 10.672 43.4435" stroke="#232F61" stroke-width="3" stroke-linecap="round" stroke-linejoin="round"/>
</svg>
