<svg width="28" height="31" viewBox="0 0 28 31" fill="none" xmlns="http://www.w3.org/2000/svg">
<path d="M2.30061 12.1806C2.30061 12.1232 2.28708 12.0703 2.26576 12.0196M2.26576 12.0196C2.18659 11.8312 2 11.6727 2 11.4237C2 10.932 2.59252 10.3232 2.81107 9.8876C3.98676 7.54442 5.72688 5.73076 7.98516 4.38041C11.6335 2.19887 18.3013 0.863935 21.2475 4.7525C23.8869 8.23606 25.5642 11.2999 25.9615 15.7753C26.2622 19.163 24.7933 24.3228 21.9128 26.4001C16.2775 30.4641 7.99836 29.2233 4.13495 23.4087C2.55678 21.0335 2.07427 18.5563 2.07427 15.7321C2.07427 15.3831 1.85452 12.6966 2.26576 12.0196ZM2.26576 12.0196C2.32562 11.921 2.39884 11.8651 2.48805 11.8651M10.1378 14.0384C7.77373 14.0384 8.80369 10.0813 10.2586 12.7627C10.6057 13.4024 11.1331 11.9388 11.5065 11.565C12.1893 10.8815 9.9892 15.1109 10.2686 14.186M18.5937 14.4507C17.8646 14.4507 17.7321 14.2694 17.2427 13.6539C16.7108 12.985 16.4036 12.3744 16.4364 11.5091C16.4613 10.8499 17.805 11.1517 18.0506 11.4441C18.3558 11.8073 18.6291 13.2191 18.6291 12.7446C18.6291 12.2147 19.3589 11.5372 19.8109 11.3488C20.3286 11.1329 20.1526 12.2085 20.13 12.5015C20.0715 13.2594 19.376 13.8599 18.7811 14.2268M11.6937 20.3338C10.2289 20.3338 14.4984 22.1053 15.8886 21.6435C16.6038 21.4058 17.2793 21.0386 17.7406 20.4339C17.8447 20.2974 18.2008 19.4714 18.332 19.4381" stroke="#232F61" stroke-width="3" stroke-linecap="round" stroke-linejoin="round"/>
</svg>
