<svg width="28" height="31" viewBox="0 0 28 31" fill="none" xmlns="http://www.w3.org/2000/svg">
<path d="M2.57183 17.6482C1.92104 17.6482 3.03404 16.5053 3.15809 16.3306C4.9702 13.7778 6.61368 11.2509 8.7764 8.96296C11.7994 5.7649 18.2614 -0.133246 23.0011 3.51959C25.7804 5.66164 26.3413 9.9571 25.8305 13.2968C25.2347 17.1927 24.9397 20.628 23.4427 24.3482C23.2691 24.7797 22.6858 27.504 22.147 27.504C19.9208 27.504 17.5211 27.3274 15.4314 26.5384C12.1787 25.3103 9.25159 23.7856 6.40518 21.8135C5.18474 20.968 4.14961 19.8902 2.90297 19.089C2.88708 19.0788 1.65998 18.1234 2.09217 18.1234M8.55197 24.7319C8.52151 24.4251 7.90985 24.4621 7.76608 24.5848C6.9954 25.2426 6.61367 26.3537 6.61367 27.3357C6.61367 30.956 11.4742 28.8016 12.2364 26.565C12.5462 25.6558 12.5878 25.1979 11.9922 26.2098C11.3547 27.2927 10.0838 28.453 8.68652 28.0454C8.26803 27.9233 8.12055 27.6594 8.13599 27.3364M8.13599 27.3364C8.17434 26.5337 9.21875 25.3664 9.61002 25.1053C10.1767 24.7272 8.58459 26.8745 8.13599 27.3364ZM8.13599 27.3364C8.11977 27.3531 8.10504 27.3676 8.09196 27.3797" stroke="#232F61" stroke-width="3" stroke-linecap="round" stroke-linejoin="round"/>
</svg>
