<svg width="28" height="67" viewBox="0 0 28 67" fill="none" xmlns="http://www.w3.org/2000/svg">
<path d="M23.6937 61.5613C23.6937 62.9448 23.7315 58.7911 23.8704 57.4146C24.3533 52.6296 24.9141 47.8538 25.322 43.0609C25.6906 38.7288 25.9133 34.3369 25.9395 29.9876C25.9435 29.324 26.0947 28.4356 25.9034 27.7877C25.7992 27.4348 25.8276 27.9675 25.854 28.0697M12.9454 63.3269C12.9307 63.5601 12.9211 64.7411 12.8533 63.8485C12.7174 62.0602 12.7988 60.2615 12.6607 58.4695C12.399 55.0738 12.3386 51.6866 12.3895 48.2813C12.4545 43.9367 12.2859 39.5843 12.5007 35.243C12.9002 27.1709 12.8582 19.0913 13.1794 11.0173C13.2748 8.62015 13.5063 6.25437 13.7454 3.86928C13.8016 3.30801 14.0644 2.00402 13.7112 1.49574M3.46887 65.2167C3.69298 65.2167 3.32733 63.5599 3.31342 63.4573C3.05065 61.5185 3.11303 59.4781 3.03007 57.5231C2.8309 52.8294 2.80522 48.1403 2.66576 43.4477C2.55653 39.772 2.22114 36.0992 2.22114 32.4185C2.22114 31.326 2.24538 30.2304 2.2205 29.1381C2.21264 28.7932 2.18854 28.2432 2 28.8208" stroke="#024A70" stroke-width="3" stroke-linecap="round" stroke-linejoin="round"/>
</svg>
