<svg width="29" height="54" viewBox="0 0 29 54" fill="none" xmlns="http://www.w3.org/2000/svg">
<g id="Doodled Icons">
<path id="victory" d="M5.18668 3.30916C4.87367 2.72493 4.85205 2.55404 5.5756 3.10872C7.05334 4.2416 8.21494 5.85288 9.01677 7.51822C10.8064 11.2352 13.1536 14.5806 15.0592 18.2471C16.2536 20.5453 17.5353 22.9983 19.0313 25.1112C19.3257 25.5272 20.5209 28.0581 20.5209 27.7091M26.782 2C26.0197 2 26.2776 2.22493 26.1878 3.00327C25.8975 5.51951 25.064 7.9475 24.4994 10.4081C23.6473 14.1221 22.6982 17.7944 21.7366 21.4846C21.1733 23.646 20.8545 25.9786 20.1169 28.0797C20.0139 28.373 19.9517 29.4971 19.9517 28.7385M13.3607 33.21C12.6695 32.7627 13.3075 32.6611 13.8399 32.5304C15.6656 32.0823 17.4454 31.5281 19.3275 31.3395C22.4335 31.0281 24.0216 31.3435 25.0603 34.3912C26.874 39.7129 24.8011 46.6743 20.2465 49.9552C15.1978 53.592 8.51122 52.0712 4.39505 47.8048C2.79518 46.1466 2.80856 44.1089 2.20549 42.017C2.10646 41.6735 1.79634 38.0467 2.20723 38.4767M8.40902 38.5873C7.98633 37.9658 8.30887 38.8497 8.33224 39.3074C8.43451 41.31 8.6765 43.225 8.96113 45.2082C9.0135 45.5731 8.93869 46.7673 9.20073 47.0132C9.43668 47.2346 9.55145 47.4356 9.55145 47.7666" stroke="#D83C25" stroke-width="4" stroke-linecap="round" stroke-linejoin="round"/>
</g>
</svg>
