<svg width="34" height="34" viewBox="0 0 34 34" fill="none" xmlns="http://www.w3.org/2000/svg">
<g id="Quote--Streamline-Fun-Stickers">
<path id="Vector" d="M21.0927 5.37207C21.4787 4.86114 22.6909 6.11895 23.2389 6.65995C24.8744 8.27401 26.6117 10.2077 27.8385 12.1793C28.2638 12.8654 28.554 13.6288 28.9046 14.3585C30.5868 17.8768 32.3796 22.9159 28.826 25.8668C28.3747 26.2402 27.8818 26.5601 27.357 26.8202C26.4935 27.2604 25.5653 27.56 24.6074 27.7076C23.9828 27.8004 23.1533 28.0579 22.5273 27.8883C20.1039 27.2313 18.1895 24.4368 17.7962 21.907C17.6386 20.8931 17.9687 19.6164 18.5454 18.6841C19.2691 17.5119 19.8967 16.7535 21.1486 16.4355C22.1185 16.191 23.2544 15.7498 23.5393 14.6192C23.8631 13.3294 23.4372 11.8065 23.0581 10.592C22.3628 8.3834 20.6172 6.00791 21.0924 5.37207H21.0927Z" stroke="#FF6944" stroke-width="0.296735" stroke-linecap="round" stroke-linejoin="round"/>
<path id="Vector_2" d="M8.90444 6.45778C10.1246 5.94058 12.3794 10.489 14.5259 15.0906C15.6 17.3944 16.6786 20.7818 15.8363 23.2676C14.6098 26.892 12.9469 28.5355 7.62548 28.6786C3.3071 28.7952 1.82622 23.0786 1.82622 21.4748C1.82622 20.29 1.94684 16.3927 6.40634 16.6841C7.91796 16.7866 9.11165 16.0321 10.0429 14.6643C11.2512 12.8899 7.19321 6.87385 8.90741 6.45249" stroke="#FF6944" stroke-width="0.296735" stroke-linecap="round" stroke-linejoin="round"/>
</g>
</svg>
