<svg width="29" height="26" viewBox="0 0 29 26" fill="none" xmlns="http://www.w3.org/2000/svg">
<g id="Smiley--Streamline-Fun-Stickers" clip-path="url(#clip0_10_44)">
<path id="Vector" d="M25.9266 8.42121C24.3755 5.69698 17.0008 -0.452918 8.61667 2.82453C6.8608 3.5121 5.32435 5.04957 4.05154 6.39818C3.46625 7.03196 2.22244 9.02797 1.91515 9.8236C-0.235598 15.3801 1.98838 20.4915 6.97797 22.6221C12.6844 25.063 20.1323 25.0767 24.6681 21.1791C27.7557 18.5359 28.0627 12.157 25.9266 8.42121Z" stroke="#7C35EE" stroke-width="0.296735" stroke-miterlimit="1.585" stroke-linecap="round" stroke-linejoin="round"/>
<path id="Vector_2" fill-rule="evenodd" clip-rule="evenodd" d="M8.78621 7.52218C8.71578 7.48556 8.63714 7.46288 8.55574 7.45571C8.47434 7.44854 8.39215 7.45706 8.31487 7.48067C8.23759 7.50428 8.16709 7.54242 8.10825 7.59244C8.04942 7.64245 8.00367 7.70314 7.97419 7.77029C7.88546 7.89026 7.79787 8.01047 7.72351 8.13812C7.29792 8.87153 7.1171 10.357 7.08978 11.1935C7.08076 11.4679 7.09794 11.7735 7.18836 12.0503C7.27933 12.3279 7.46551 12.6375 7.84321 12.8118C7.93405 12.8544 8.03514 12.8773 8.13807 12.8786C8.241 12.8799 8.3428 12.8595 8.43498 12.8192C8.59919 12.7476 8.68988 12.6333 8.73354 12.5689C8.82198 12.4382 8.86648 12.2831 8.89127 12.1817C8.9383 11.9896 8.96563 11.7413 8.96957 11.7028C9.05181 11.3013 9.21715 10.4479 9.2915 9.64808C9.32897 9.2458 9.34587 8.8346 9.31038 8.49404C9.29263 8.325 9.25996 8.15051 9.19743 7.99485C9.13885 7.84961 9.02477 7.64611 8.78621 7.52218ZM7.98799 7.75121L7.98517 7.75517C7.98607 7.75383 7.98701 7.75251 7.98799 7.75121Z" fill="#7C35EE"/>
<path id="Vector_3" fill-rule="evenodd" clip-rule="evenodd" d="M18.2466 7.129C18.1762 7.09238 18.0976 7.06969 18.0162 7.06252C17.9348 7.05535 17.8526 7.06387 17.7753 7.08748C17.698 7.11109 17.6275 7.14923 17.5687 7.19925C17.5099 7.24926 17.4641 7.30996 17.4346 7.3771C17.3459 7.49707 17.2583 7.61728 17.1839 7.74493C16.7584 8.47835 16.5775 9.96377 16.5502 10.8001C16.5412 11.0744 16.5587 11.38 16.6488 11.6572C16.7398 11.9348 16.9259 12.2443 17.3036 12.4183C17.3944 12.461 17.4955 12.484 17.5984 12.4854C17.7014 12.4868 17.8032 12.4665 17.8954 12.4263C18.0596 12.3544 18.1503 12.2399 18.194 12.1759C18.2824 12.0448 18.3269 11.8899 18.3517 11.7885C18.3987 11.5964 18.4261 11.3481 18.43 11.3097C18.5122 10.9081 18.6776 10.0547 18.7519 9.25489C18.7894 8.85261 18.8063 8.44142 18.7708 8.10086C18.7531 7.93182 18.7204 7.75707 18.6579 7.60167C18.5993 7.45642 18.4852 7.25293 18.2466 7.129ZM17.4484 7.35802L17.4456 7.36199C17.4465 7.36064 17.4474 7.35932 17.4484 7.35802Z" fill="#7C35EE"/>
<path id="Vector_4" fill-rule="evenodd" clip-rule="evenodd" d="M21.7493 13.5118C21.8551 13.5414 21.9532 13.5891 22.038 13.652C22.1228 13.715 22.1927 13.7921 22.2437 13.8788C22.2947 13.9656 22.3257 14.0603 22.3351 14.1576C22.3445 14.2549 22.3319 14.3529 22.2983 14.446C21.2378 17.3782 18.3514 19.3734 15.2272 19.9822C12.0839 20.5949 8.59641 19.8191 6.41919 17.1035C6.35522 17.0237 6.30973 16.9336 6.28533 16.8384C6.26093 16.7431 6.25809 16.6445 6.27697 16.5483C6.29586 16.4521 6.33609 16.3601 6.39539 16.2775C6.45468 16.195 6.53187 16.1235 6.62254 16.0672C6.71322 16.0109 6.81561 15.9709 6.92386 15.9494C7.03212 15.928 7.14412 15.9255 7.25347 15.9421C7.36282 15.9587 7.46738 15.9941 7.56118 16.0463C7.65499 16.0985 7.73619 16.1664 7.80016 16.2462C9.51997 18.3912 12.2664 19.0361 14.8616 18.5302C17.4763 18.0206 19.8329 16.3585 20.688 13.9949C20.756 13.807 20.906 13.6505 21.105 13.5599C21.304 13.4693 21.5358 13.452 21.7493 13.5118Z" fill="#7C35EE"/>
</g>
<defs>
<clipPath id="clip0_10_44">
<rect width="28.1659" height="24.786" fill="white" transform="translate(0.00732422 0.646973)"/>
</clipPath>
</defs>
</svg>
