<svg width="53" height="54" viewBox="0 0 53 54" fill="none" xmlns="http://www.w3.org/2000/svg">
<g id="Doodled Icons">
<path id="sparkle-1" d="M32.1176 15.2707C31.2019 14.4686 31.6446 16.9625 31.6446 17.4141C31.6446 17.4492 31.6444 17.4844 31.6441 17.5194M31.6441 17.5194C31.5948 23.2305 27.5404 27.6735 23.1532 30.8477C21.0871 32.3426 18.1933 34.2945 15.3424 35.3439M31.6441 17.5194C32.8116 21.3353 34.8944 25.8247 37.1749 28.8492C38.0485 30.0078 42.9981 34.148 46.5265 34.8702M31.6441 17.5194C31.559 17.2412 31.4787 16.9665 31.4036 16.6963M15.3424 35.3439C14.0957 35.8028 12.8572 36.0891 11.6998 36.0891C10.6921 36.0891 11.1737 35.0488 12.0548 35.0488C13.2027 35.0488 14.2971 35.1511 15.3424 35.3439ZM15.3424 35.3439C23.7814 36.9 29.0133 44.3493 33.2708 51.4106C34.8092 53.9621 36.0795 47.4751 36.6166 46.2942C38.0328 43.1805 43.0363 37.8894 46.5265 34.8702M46.5265 34.8702C49.1655 32.5874 50.9394 31.6033 49.6432 33.8416C49.0171 34.9228 47.8757 35.1464 46.5265 34.8702ZM8.69881 2.87757C8.0604 2.39222 8.37425 3.34398 8.3686 3.92926C8.3486 6.00149 7.21366 8.4211 6.11511 10.1181C5.65382 10.8307 4.54862 11.6526 3.59965 12.2459M3.59965 12.2459C2.40387 12.9936 1.45613 13.3784 2.35731 12.7245C2.74459 12.4435 3.16374 12.2937 3.59965 12.2459ZM3.59965 12.2459C5.68622 12.0174 8.15679 14.1263 9.35429 15.3651C12.3767 18.4921 9.60554 15.9216 10.7594 13.3303C11.211 12.3162 15.0034 9.47333 16.7775 8.34621M16.7775 8.34621C17.3294 7.99561 17.686 7.81102 17.686 7.89914C17.686 8.20032 17.3228 8.32728 16.7775 8.34621ZM16.7775 8.34621C15.2111 8.4006 12.1424 7.56341 11.8671 7.40398C10.1823 6.42832 8.52714 0.463645 8.89615 2.37527C9.25853 4.2526 9.41943 7.59607 8.55602 9.31186" stroke="#0D714C" stroke-width="4" stroke-linecap="round" stroke-linejoin="round"/>
</g>
</svg>
