<svg width="28" height="30" viewBox="0 0 28 30" fill="none" xmlns="http://www.w3.org/2000/svg">
<path d="M19.5994 13.6966C18.4211 12.3401 17.4069 11.2677 15.3079 12.0807C12.9741 12.9847 12.2073 15.1251 12.3278 17.4579C12.4185 19.216 15.4176 19.7833 16.5636 18.8528C18.0346 17.6583 18.3078 15.696 18.8539 13.9931C19.2531 12.7485 19.3757 13.9956 19.3757 14.6059C19.3757 16.0054 19.0159 18.2336 20.5318 19.0131C22.3744 19.9604 24.3538 18.42 25.0635 16.8118C27.256 11.8431 24.3767 3.53316 18.6967 2.46008C12.9782 1.37972 4.38308 5.15684 2.78917 11.1828C1.90992 14.5069 1.38646 17.9497 3.3217 20.9495C5.34403 24.0843 8.26598 26.4118 11.8764 27.516C15.3321 28.5727 19.7816 27.0896 22.6632 25.1072C23.6326 24.4404 25.8197 22.6123 26 21.3148" stroke="#232F61" stroke-width="3" stroke-linecap="round" stroke-linejoin="round"/>
</svg>
