<svg width="34" height="54" viewBox="0 0 34 54" fill="none" xmlns="http://www.w3.org/2000/svg">
<g id="Doodled Icons">
<path id="time " d="M5.86106 2.50869C4.95019 1.80345 6.92631 2.14017 7.32773 2.14941C11.9855 2.2566 16.6339 2 21.2905 2C24.0173 2 26.6871 2.1769 29.3978 2.34745C30.1558 2.39514 30.2538 2.28457 30.0846 2.98255C29.7217 4.4796 29.9214 6.38458 29.9977 7.90059C30.149 10.9097 28.8477 13.3224 27.0081 15.65C24.45 18.8867 21.0714 21.669 18.1253 24.5582C15.0643 27.5601 11.8531 30.4057 8.71585 33.3296C5.35893 36.4582 3.13569 40.6902 2.5048 45.2534C2.35379 46.3457 1.29851 51.2431 2.78172 51.8709C3.32776 52.102 4.23431 51.9586 4.79767 51.928C6.88435 51.8149 8.96725 51.6433 11.0539 51.5306C15.2087 51.3063 19.3813 50.993 23.5257 50.6234C24.0546 50.5763 31.1815 49.7861 31.1815 50.042M5.03317 3.75854C3.76524 5.4509 4.8726 8.44977 5.7082 10.1904C7.79433 14.536 11.3507 17.3813 14.8523 20.5336C19.0383 24.3021 25.8093 26.7939 27.7521 32.5777C28.538 34.9175 29.1343 37.1464 29.554 39.5748C29.8868 41.5003 29.6548 43.5486 29.6548 45.4977C29.6548 47.4751 29.1319 49.5366 28.9919 51.5311C28.9409 52.2586 29.3643 51.7828 29.3643 51.4654" stroke="#D45125" stroke-width="4" stroke-linecap="round" stroke-linejoin="round"/>
</g>
</svg>
