<svg width="28" height="45" viewBox="0 0 28 45" fill="none" xmlns="http://www.w3.org/2000/svg">
<path d="M5.17549 2.63511C4.42635 2.05508 6.05159 2.33202 6.38174 2.33962C10.2125 2.42777 14.0355 2.21674 17.8653 2.21674C20.1079 2.21674 22.3036 2.36223 24.5331 2.5025C25.1564 2.54172 25.237 2.45078 25.0979 3.02483C24.7994 4.25606 24.9637 5.82279 25.0264 7.06961C25.1508 9.54446 24.0806 11.5287 22.5677 13.443C20.4637 16.1051 17.685 18.3933 15.2621 20.7695C12.7446 23.2384 10.1036 25.5787 7.52338 27.9834C4.76252 30.5565 2.93404 34.0371 2.41517 37.7901C2.29097 38.6884 1.42307 42.7162 2.64292 43.2325C3.092 43.4226 3.83759 43.3047 4.30092 43.2795C6.01709 43.1865 7.73014 43.0454 9.44632 42.9527C12.8633 42.7682 16.295 42.5105 19.7036 42.2066C20.1386 42.1678 26 41.5179 26 41.7284M4.4946 3.66303C3.4518 5.05489 4.36254 7.52128 5.04977 8.95283C6.76549 12.5268 9.69041 14.8669 12.5702 17.4595C16.013 20.5589 21.5817 22.6082 23.1796 27.3651C23.8259 29.2894 24.3164 31.1225 24.6615 33.1197C24.9352 34.7033 24.7444 36.388 24.7444 37.991C24.7444 39.6173 24.3144 41.3127 24.1992 42.9531C24.1573 43.5514 24.5055 43.1601 24.5055 42.899" stroke="#232F61" stroke-width="3" stroke-linecap="round" stroke-linejoin="round"/>
</svg>
