<svg width="60" height="46" viewBox="0 0 60 46" fill="none" xmlns="http://www.w3.org/2000/svg">
<g id="Doodled Icons">
<path id="upload" d="M5.69134 33.3646C-10.4022 33.3646 70.037 35.0285 53.9434 35.0285M32.1154 6.46011C32.1154 2.92353 32.8186 10.3413 32.8186 11.0965C32.8186 14.4381 31.8654 24.4174 31.8654 21.0758M31.5762 3.06474C31.5762 2.06122 31.0797 2.11991 30.3919 2.67117M30.3919 2.67117C29.0433 3.75203 26.9592 6.72647 26.4393 7.3008C22.0131 12.1901 27.835 6.48217 29.1312 4.75679C29.6352 4.08595 30.0271 3.32896 30.3919 2.67117ZM30.3919 2.67117C31.24 1.14193 31.9413 0.148954 33.5624 2.02166C35.7669 4.56837 40.1469 13.0551 40.1469 9.68678M2.20802 36.9726C1.07531 35.6269 2.64888 39.2665 2.80093 40.333C3.11778 42.5553 2.80935 45 5.52674 45C12.2833 45 18.8208 43.6001 25.7003 44.2405C32.503 44.8737 39.3637 44.674 46.1873 44.674C50.9745 44.674 61.5822 46.8119 57.1322 38.0069" stroke="#084A31" stroke-width="2" stroke-linecap="round" stroke-linejoin="round"/>
</g>
</svg>
