<svg width="28" height="19" viewBox="0 0 28 19" fill="none" xmlns="http://www.w3.org/2000/svg">
<path d="M2.65274 16.9595C0.89297 16.9193 3.21215 12.2145 3.54442 11.6802C5.15208 9.09483 7.73646 7.92101 10.731 8.0532C13.7324 8.18569 15.2563 10.9245 16.2287 13.357C16.311 13.5627 17.2214 16.3976 16.7193 16.3976M15.1703 10.4355C15.1703 8.94803 16.6256 8.2685 17.9536 7.81914C20.3559 7.00629 22.4887 7.93085 24.3485 9.46473C26.3291 11.0982 25.9755 14.2634 25.9755 16.4683M9.86329 7.47667C8.87072 6.91162 7.37478 7.28066 7.27734 5.62619C7.16602 3.73577 8.92741 3.22655 10.4542 3.22655C11.739 3.22655 12.3461 4.35633 12.3461 5.52343C12.3461 6.94951 11.3885 7.54418 10.1116 7.92699M20.4074 7.27186C19.327 6.6568 18.0805 6.17816 17.7766 4.78208C17.4001 3.05237 19.3952 2.36301 20.7772 2.36301C21.9832 2.36301 22.9988 3.33092 22.9988 4.61088C22.9988 6.06262 21.9159 6.55134 20.5988 6.73595" stroke="#232F61" stroke-width="3" stroke-linecap="round" stroke-linejoin="round"/>
</svg>
