<svg width="26" height="17" viewBox="0 0 26 17" fill="none" xmlns="http://www.w3.org/2000/svg">
<path d="M1.65274 15.9595C-0.10703 15.9193 2.21215 11.2145 2.54442 10.6802C4.15208 8.09483 6.73646 6.92101 9.73098 7.0532C12.7324 7.18569 14.2563 9.92452 15.2287 12.357C15.311 12.5627 16.2214 15.3976 15.7193 15.3976M14.1703 9.43546C14.1703 7.94803 15.6256 7.2685 16.9536 6.81914C19.3559 6.00629 21.4887 6.93085 23.3485 8.46473C25.3291 10.0982 24.9755 13.2634 24.9755 15.4683M8.86329 6.47667C7.87072 5.91162 6.37478 6.28066 6.27734 4.62619C6.16602 2.73577 7.92741 2.22655 9.45424 2.22655C10.739 2.22655 11.3461 3.35633 11.3461 4.52343C11.3461 5.94951 10.3885 6.54418 9.11157 6.92699M19.4074 6.27186C18.327 5.6568 17.0805 5.17816 16.7766 3.78208C16.4001 2.05237 18.3952 1.36301 19.7772 1.36301C20.9832 1.36301 21.9988 2.33092 21.9988 3.61088C21.9988 5.06262 20.9159 5.55134 19.5988 5.73595" stroke="#232F61" stroke-width="2" stroke-linecap="round" stroke-linejoin="round"/>
</svg>
