<svg width="28" height="31" viewBox="0 0 28 31" fill="none" xmlns="http://www.w3.org/2000/svg">
<path d="M2.51128 29.3904C1.26968 29.277 2.66274 26.3399 2.7967 25.9092C4.08127 21.7791 5.76053 18.9857 8.9756 16.1046C12.7202 12.749 19.5747 12.2631 22.8889 16.718C24.3481 18.6793 26 21.1217 26 23.7027C26 24.3963 25.4194 28.6391 26 28.8619M12.3317 12.2315C11.7773 11.9323 11.5973 12.1806 10.8862 11.8473C8.93717 10.9335 7.88623 8.47889 8.37703 6.41229C9.35768 2.28306 12.3234 1.87458 15.9913 2.73292C18.7295 3.37371 19.0722 6.69357 17.9586 8.89074C16.9466 10.8876 14.6062 11.3172 12.7948 12.2947" stroke="#232F61" stroke-width="3" stroke-linecap="round" stroke-linejoin="round"/>
</svg>
