<svg width="37" height="35" viewBox="0 0 37 35" fill="none" xmlns="http://www.w3.org/2000/svg">
<g id="trace 1" clip-path="url(#clip0_10_54)">
<path id="Vector" fill-rule="evenodd" clip-rule="evenodd" d="M18.6613 7.40036C13.8896 7.72335 9.30601 11.2384 8.65197 15.0761C8.20957 17.6722 9.09569 22.8128 10.269 24.457C10.4121 24.6575 10.5291 24.8402 10.5291 24.8631C10.5291 24.9228 9.64679 27.1011 9.47042 27.4767C9.20336 28.0455 9.2979 28.3247 9.73713 28.2645L9.99809 28.2288L9.9459 28.461C9.81626 29.0379 10.0635 29.1303 10.8092 28.7838C11.114 28.6421 11.8296 28.3653 12.3993 28.1686C12.969 27.972 13.6895 27.7072 14.0004 27.5803L14.5657 27.3495L14.6909 27.4639C14.9714 27.7202 15.1943 27.7806 16.0532 27.8335C16.7683 27.8775 16.97 27.9128 17.4631 28.0801C19.8839 28.9014 24.1416 28.9543 25.977 28.1857C26.9497 27.7785 28.3298 26.605 28.8752 25.7215C29.9679 23.9517 30.0584 23.7326 30.5511 21.6648C31.1997 18.9426 31.0769 17.2228 30.019 14.2129C28.6066 10.1942 26.8415 8.14388 24.2922 7.5605C23.4959 7.37832 20.3211 7.28797 18.6613 7.40036ZM20.4554 8.06355C13.8725 8.84269 10.1483 11.3467 9.25532 15.5939C8.84008 17.569 9.505 21.3398 10.5896 23.1609C11.0393 23.916 11.2184 24.2961 11.2191 24.4974C11.2194 24.5837 11.2713 24.7391 11.3345 24.8427C11.4894 25.0967 11.4803 25.225 11.2729 25.7104C11.1178 26.0734 10.7967 27.1334 10.8325 27.1646C10.8397 27.1709 11.2081 27.0554 11.6512 26.9081C13.3039 26.3583 13.322 26.3541 14.0105 26.3606C14.7616 26.3678 15.296 26.5084 16.3036 26.9641C17.7367 27.6122 19.8182 27.8345 22.7006 27.6471C25.6552 27.4551 26.8086 26.9445 28.4155 25.1174C30.4565 22.7966 30.8069 17.145 29.1205 13.7431C27.0909 9.64836 24.0278 7.64072 20.4554 8.06355ZM15.3333 12.3575C14.9993 12.7024 14.7749 12.862 14.0311 13.2835C12.0754 14.3915 11.7309 15.5254 12.6832 17.7191C12.8215 18.0377 13.0311 18.5574 13.1489 18.8739C13.8844 20.8497 15.0873 22.1934 17.2364 23.4397C21.6665 26.0087 22.5662 26.2523 24.5698 25.4253C24.8388 25.3143 25.2869 25.1356 25.5654 25.0284C26.343 24.7289 27.0917 24.081 27.3747 23.4628C27.8385 22.45 26.4618 20.4425 24.9151 19.8761C23.9459 19.5213 23.6019 19.5852 23.1892 20.1967C22.5879 21.0878 20.4968 21.2514 19.3696 20.4957C17.4301 19.1955 17.2452 17.9339 18.8194 16.7417C19.5044 16.223 19.5927 16.0644 19.3916 15.7146C17.4733 12.3778 16.2741 11.3859 15.3333 12.3575ZM15.8387 12.8466C15.5685 13.04 15.2662 13.3877 13.9077 15.0671C13.1184 16.0431 13.0809 16.4299 13.6173 18.0683C14.4298 20.5504 17.4924 23.3709 20.6762 24.5692C22.0547 25.0882 23.829 25.0985 24.9151 24.5939C25.7894 24.1877 26.181 23.9147 26.181 23.7113C26.181 22.6902 24.9223 20.5441 24.3863 20.6513C24.0784 20.7129 23.3403 21.0512 22.9887 21.292C21.0683 22.6067 18.5881 21.4933 16.7688 18.4999C16.1439 17.4718 16.4489 16.6917 17.7369 16.024C18.0932 15.8393 18.11 15.8213 18.0576 15.6827C17.825 15.0674 16.7778 13.3113 16.4097 12.919L16.1396 12.6311L15.8387 12.8466ZM13.5038 14.2762C12.9456 14.6721 12.8312 14.8474 12.8316 15.3062L12.832 15.6515L12.9851 15.3925C13.1253 15.1556 13.5262 14.6092 13.9034 14.1409C14.1156 13.8775 14.0205 13.9097 13.5038 14.2762ZM17.9235 16.5571C17.2717 16.8915 16.8738 17.5062 17.0672 17.8802L17.1604 18.0604L17.2876 17.7478C17.4531 17.3409 17.6619 17.0143 17.95 16.7115C18.2275 16.4197 18.2246 16.4027 17.9235 16.5571ZM25.9795 21.3914C26.2768 21.8752 26.6989 22.9828 26.6989 23.279C26.6989 23.4363 26.783 23.4185 26.8623 23.2445C27.0159 22.9074 26.8164 22.4161 26.1683 21.5353C25.8443 21.0952 25.7561 21.0279 25.9795 21.3914ZM13.1761 27.0225C11.7382 27.4635 11.4333 27.5636 11.0669 27.7153C10.7404 27.8505 10.6475 27.9162 10.6181 28.0333C10.5672 28.236 10.5909 28.2435 10.8838 28.118C11.0246 28.0576 11.6432 27.8336 12.2586 27.6203C12.874 27.4068 13.5329 27.16 13.7228 27.0717L14.0681 26.9112L13.8091 26.9094C13.6667 26.9085 13.3818 26.9593 13.1761 27.0225Z" fill="#30B540"/>
</g>
<defs>
<clipPath id="clip0_10_54">
<rect width="36.0224" height="34.0659" fill="white" transform="translate(0.976807 0.776489)"/>
</clipPath>
</defs>
</svg>
