<svg width="24" height="18" viewBox="0 0 24 18" fill="none" xmlns="http://www.w3.org/2000/svg">
<g id="Doodled Icons">
<path id="upload" d="M3.1606 12.7689C-2.69161 12.7689 26.559 13.374 20.7068 13.374M12.7694 2.98549C12.7694 1.69947 13.0251 4.39682 13.0251 4.67147C13.0251 5.88658 12.6784 9.51541 12.6784 8.3003M12.5733 1.75082C12.5733 1.3859 12.3927 1.40724 12.1426 1.6077M12.1426 1.6077C11.6522 2.00074 10.8944 3.08235 10.7053 3.2912C9.09578 5.06912 11.2128 2.99352 11.6842 2.36611C11.8674 2.12217 12.01 1.84689 12.1426 1.6077ZM12.1426 1.6077C12.451 1.05161 12.706 0.690529 13.2955 1.37151C14.0972 2.29759 15.6899 5.38367 15.6899 4.15883M1.89394 14.0809C1.48204 13.5916 2.05425 14.9151 2.10954 15.3029C2.22476 16.111 2.1126 17 3.10074 17C5.55769 17 7.93495 16.4909 10.4366 16.7238C12.9103 16.9541 15.4051 16.8814 17.8864 16.8814C19.6272 16.8814 23.4845 17.6589 21.8664 14.4571" stroke="#F7F4E9" stroke-width="2" stroke-linecap="round" stroke-linejoin="round"/>
</g>
</svg>
