<svg width="28" height="26" viewBox="0 0 28 26" fill="none" xmlns="http://www.w3.org/2000/svg">
<path d="M2.2166 23.9692C1.48822 23.9692 2.82016 22.3459 2.94348 22.1309C4.6295 19.191 4.79969 15.4816 5.99312 12.3344C7.31249 8.85517 9.61607 5.38039 11.7283 2.3082C12.5638 1.09294 12.6116 1.80592 12.8869 2.93579C14.0433 7.68272 14.2834 12.7404 14.6679 17.5949C14.775 18.948 14.4078 20.4965 14.7687 21.8114C14.9431 22.447 15.4276 23.1042 14.8767 22.4271M5.54368 15.5354C3.36196 15.5354 9.90687 15.4858 12.0883 15.4513C13.5851 15.4277 18.0099 14.844 16.5756 15.2724M24.6999 16.0197C26.2352 14.8415 21.864 15.2036 20.9612 16.199C20.0064 17.252 19.473 20.0073 20.521 21.1195C21.9069 22.5905 23.9234 21.4714 24.6335 19.9646M25.9751 13.8857C25.6645 11.601 26 17.1724 26 17.7077C26 19.1856 25.8879 23.618 25.8879 22.1401" stroke="#232F61" stroke-width="3" stroke-linecap="round" stroke-linejoin="round"/>
</svg>
